<?xml version="1.0" encoding="utf-8" standalone="no"?>
<!DOCTYPE svg PUBLIC "-//W3C//DTD SVG 1.1//EN"
  "http://www.w3.org/Graphics/SVG/1.1/DTD/svg11.dtd">
<svg xmlns:xlink="http://www.w3.org/1999/xlink" width="460.8pt" height="345.6pt" viewBox="0 0 460.8 345.6" xmlns="http://www.w3.org/2000/svg" version="1.1">
 <metadata>
  <rdf:RDF xmlns:dc="http://purl.org/dc/elements/1.1/" xmlns:cc="http://creativecommons.org/ns#" xmlns:rdf="http://www.w3.org/1999/02/22-rdf-syntax-ns#">
   <cc:Work>
    <dc:type rdf:resource="http://purl.org/dc/dcmitype/StillImage"/>
    <dc:date>2023-03-10T01:14:08.852648</dc:date>
    <dc:format>image/svg+xml</dc:format>
    <dc:creator>
     <cc:Agent>
      <dc:title>Matplotlib v3.6.2, https://matplotlib.org/</dc:title>
     </cc:Agent>
    </dc:creator>
   </cc:Work>
  </rdf:RDF>
 </metadata>
 <defs>
  <style type="text/css">*{stroke-linejoin: round; stroke-linecap: butt}</style>
 </defs>
 <g id="figure_1">
  <g id="patch_1">
   <path d="M 0 345.6 
L 460.8 345.6 
L 460.8 0 
L 0 0 
z
" style="fill: #ffffff"/>
  </g>
  <g id="axes_1">
   <g id="patch_2">
    <path d="M 57.6 307.584 
L 162.635294 307.584 
L 162.635294 41.472 
L 57.6 41.472 
z
" style="fill: #ffffff"/>
   </g>
   <g id="patch_3">
    <path d="M 62.374332 307.584 
L 67.148664 307.584 
L 67.148664 223.104026 
L 62.374332 223.104026 
z
" clip-path="url(#p02cb23655c)" style="fill: #1f77b4"/>
   </g>
   <g id="patch_4">
    <path d="M 67.148664 307.584 
L 71.922996 307.584 
L 71.922996 223.104026 
L 67.148664 223.104026 
z
" clip-path="url(#p02cb23655c)" style="fill: #1f77b4"/>
   </g>
   <g id="patch_5">
    <path d="M 71.922996 307.584 
L 76.697325 307.584 
L 76.697325 286.463994 
L 71.922996 286.463994 
z
" clip-path="url(#p02cb23655c)" style="fill: #1f77b4"/>
   </g>
   <g id="patch_6">
    <path d="M 76.697325 307.584 
L 81.471658 307.584 
L 81.471658 201.984032 
L 76.697325 201.984032 
z
" clip-path="url(#p02cb23655c)" style="fill: #1f77b4"/>
   </g>
   <g id="patch_7">
    <path d="M 81.471658 307.584 
L 86.24599 307.584 
L 86.24599 138.624052 
L 81.471658 138.624052 
z
" clip-path="url(#p02cb23655c)" style="fill: #1f77b4"/>
   </g>
   <g id="patch_8">
    <path d="M 86.24599 307.584 
L 91.020321 307.584 
L 91.020321 54.144 
L 86.24599 54.144 
z
" clip-path="url(#p02cb23655c)" style="fill: #1f77b4"/>
   </g>
   <g id="patch_9">
    <path d="M 91.020321 307.584 
L 95.794652 307.584 
L 95.794652 180.864 
L 91.020321 180.864 
z
" clip-path="url(#p02cb23655c)" style="fill: #1f77b4"/>
   </g>
   <g id="patch_10">
    <path d="M 95.794652 307.584 
L 100.568984 307.584 
L 100.568984 96.384065 
L 95.794652 96.384065 
z
" clip-path="url(#p02cb23655c)" style="fill: #1f77b4"/>
   </g>
   <g id="patch_11">
    <path d="M 100.568984 307.584 
L 105.343316 307.584 
L 105.343316 201.984016 
L 100.568984 201.984016 
z
" clip-path="url(#p02cb23655c)" style="fill: #1f77b4"/>
   </g>
   <g id="patch_12">
    <path d="M 105.343316 307.584 
L 110.117647 307.584 
L 110.117647 180.864019 
L 105.343316 180.864019 
z
" clip-path="url(#p02cb23655c)" style="fill: #1f77b4"/>
   </g>
   <g id="patch_13">
    <path d="M 110.117647 307.584 
L 114.891979 307.584 
L 114.891979 96.384032 
L 110.117647 96.384032 
z
" clip-path="url(#p02cb23655c)" style="fill: #1f77b4"/>
   </g>
   <g id="patch_14">
    <path d="M 114.891979 307.584 
L 119.66631 307.584 
L 119.66631 138.624026 
L 114.891979 138.624026 
z
" clip-path="url(#p02cb23655c)" style="fill: #1f77b4"/>
   </g>
   <g id="patch_15">
    <path d="M 119.66631 307.584 
L 124.440642 307.584 
L 124.440642 180.864039 
L 119.66631 180.864039 
z
" clip-path="url(#p02cb23655c)" style="fill: #1f77b4"/>
   </g>
   <g id="patch_16">
    <path d="M 124.440642 307.584 
L 129.214973 307.584 
L 129.214973 159.744 
L 124.440642 159.744 
z
" clip-path="url(#p02cb23655c)" style="fill: #1f77b4"/>
   </g>
   <g id="patch_17">
    <path d="M 129.214973 307.584 
L 133.989304 307.584 
L 133.989304 201.984 
L 129.214973 201.984 
z
" clip-path="url(#p02cb23655c)" style="fill: #1f77b4"/>
   </g>
   <g id="patch_18">
    <path d="M 133.989304 307.584 
L 138.763636 307.584 
L 138.763636 75.264071 
L 133.989304 75.264071 
z
" clip-path="url(#p02cb23655c)" style="fill: #1f77b4"/>
   </g>
   <g id="patch_19">
    <path d="M 138.763636 307.584 
L 143.537969 307.584 
L 143.537969 265.344013 
L 138.763636 265.344013 
z
" clip-path="url(#p02cb23655c)" style="fill: #1f77b4"/>
   </g>
   <g id="patch_20">
    <path d="M 143.537969 307.584 
L 148.312301 307.584 
L 148.312301 138.624052 
L 143.537969 138.624052 
z
" clip-path="url(#p02cb23655c)" style="fill: #1f77b4"/>
   </g>
   <g id="patch_21">
    <path d="M 148.312301 307.584 
L 153.08663 307.584 
L 153.08663 180.863961 
L 148.312301 180.863961 
z
" clip-path="url(#p02cb23655c)" style="fill: #1f77b4"/>
   </g>
   <g id="patch_22">
    <path d="M 153.08663 307.584 
L 157.860963 307.584 
L 157.860963 244.224019 
L 153.08663 244.224019 
z
" clip-path="url(#p02cb23655c)" style="fill: #1f77b4"/>
   </g>
   <g id="matplotlib.axis_1">
    <g id="xtick_1">
     <g id="line2d_1">
      <defs>
       <path id="m53a352d63b" d="M 0 0 
L 0 3.5 
" style="stroke: #000000; stroke-width: 0.8"/>
      </defs>
      <g>
       <use xlink:href="#m53a352d63b" x="60.695294" y="307.584" style="stroke: #000000; stroke-width: 0.8"/>
      </g>
     </g>
     <g id="text_1">
      <!-- −1 -->
      <g transform="translate(53.3242 322.182437) scale(0.1 -0.1)">
       <defs>
        <path id="DejaVuSans-2212" d="M 678 2272 
L 4684 2272 
L 4684 1741 
L 678 1741 
L 678 2272 
z
" transform="scale(0.015625)"/>
        <path id="DejaVuSans-31" d="M 794 531 
L 1825 531 
L 1825 4091 
L 703 3866 
L 703 4441 
L 1819 4666 
L 2450 4666 
L 2450 531 
L 3481 531 
L 3481 0 
L 794 0 
L 794 531 
z
" transform="scale(0.015625)"/>
       </defs>
       <use xlink:href="#DejaVuSans-2212"/>
       <use xlink:href="#DejaVuSans-31" x="83.789062"/>
      </g>
     </g>
    </g>
    <g id="xtick_2">
     <g id="line2d_2">
      <g>
       <use xlink:href="#m53a352d63b" x="109.885198" y="307.584" style="stroke: #000000; stroke-width: 0.8"/>
      </g>
     </g>
     <g id="text_2">
      <!-- 0 -->
      <g transform="translate(106.703948 322.182437) scale(0.1 -0.1)">
       <defs>
        <path id="DejaVuSans-30" d="M 2034 4250 
Q 1547 4250 1301 3770 
Q 1056 3291 1056 2328 
Q 1056 1369 1301 889 
Q 1547 409 2034 409 
Q 2525 409 2770 889 
Q 3016 1369 3016 2328 
Q 3016 3291 2770 3770 
Q 2525 4250 2034 4250 
z
M 2034 4750 
Q 2819 4750 3233 4129 
Q 3647 3509 3647 2328 
Q 3647 1150 3233 529 
Q 2819 -91 2034 -91 
Q 1250 -91 836 529 
Q 422 1150 422 2328 
Q 422 3509 836 4129 
Q 1250 4750 2034 4750 
z
" transform="scale(0.015625)"/>
       </defs>
       <use xlink:href="#DejaVuSans-30"/>
      </g>
     </g>
    </g>
    <g id="xtick_3">
     <g id="line2d_3">
      <g>
       <use xlink:href="#m53a352d63b" x="159.075102" y="307.584" style="stroke: #000000; stroke-width: 0.8"/>
      </g>
     </g>
     <g id="text_3">
      <!-- 1 -->
      <g transform="translate(155.893852 322.182437) scale(0.1 -0.1)">
       <use xlink:href="#DejaVuSans-31"/>
      </g>
     </g>
    </g>
    <g id="text_4">
     <!-- cos$\theta_l$ -->
     <g transform="translate(97.517647 335.860562) scale(0.1 -0.1)">
      <defs>
       <path id="DejaVuSans-63" d="M 3122 3366 
L 3122 2828 
Q 2878 2963 2633 3030 
Q 2388 3097 2138 3097 
Q 1578 3097 1268 2742 
Q 959 2388 959 1747 
Q 959 1106 1268 751 
Q 1578 397 2138 397 
Q 2388 397 2633 464 
Q 2878 531 3122 666 
L 3122 134 
Q 2881 22 2623 -34 
Q 2366 -91 2075 -91 
Q 1284 -91 818 406 
Q 353 903 353 1747 
Q 353 2603 823 3093 
Q 1294 3584 2113 3584 
Q 2378 3584 2631 3529 
Q 2884 3475 3122 3366 
z
" transform="scale(0.015625)"/>
       <path id="DejaVuSans-6f" d="M 1959 3097 
Q 1497 3097 1228 2736 
Q 959 2375 959 1747 
Q 959 1119 1226 758 
Q 1494 397 1959 397 
Q 2419 397 2687 759 
Q 2956 1122 2956 1747 
Q 2956 2369 2687 2733 
Q 2419 3097 1959 3097 
z
M 1959 3584 
Q 2709 3584 3137 3096 
Q 3566 2609 3566 1747 
Q 3566 888 3137 398 
Q 2709 -91 1959 -91 
Q 1206 -91 779 398 
Q 353 888 353 1747 
Q 353 2609 779 3096 
Q 1206 3584 1959 3584 
z
" transform="scale(0.015625)"/>
       <path id="DejaVuSans-73" d="M 2834 3397 
L 2834 2853 
Q 2591 2978 2328 3040 
Q 2066 3103 1784 3103 
Q 1356 3103 1142 2972 
Q 928 2841 928 2578 
Q 928 2378 1081 2264 
Q 1234 2150 1697 2047 
L 1894 2003 
Q 2506 1872 2764 1633 
Q 3022 1394 3022 966 
Q 3022 478 2636 193 
Q 2250 -91 1575 -91 
Q 1294 -91 989 -36 
Q 684 19 347 128 
L 347 722 
Q 666 556 975 473 
Q 1284 391 1588 391 
Q 1994 391 2212 530 
Q 2431 669 2431 922 
Q 2431 1156 2273 1281 
Q 2116 1406 1581 1522 
L 1381 1569 
Q 847 1681 609 1914 
Q 372 2147 372 2553 
Q 372 3047 722 3315 
Q 1072 3584 1716 3584 
Q 2034 3584 2315 3537 
Q 2597 3491 2834 3397 
z
" transform="scale(0.015625)"/>
       <path id="DejaVuSans-Oblique-3b8" d="M 2913 2219 
L 925 2219 
Q 791 1284 928 888 
Q 1100 400 1566 400 
Q 2034 400 2391 891 
Q 2703 1322 2913 2219 
z
M 3009 2750 
Q 3094 3638 2984 3950 
Q 2813 4444 2353 4444 
Q 1875 4444 1525 3956 
Q 1250 3563 1034 2750 
L 3009 2750 
z
M 2444 4913 
Q 3194 4913 3494 4250 
Q 3794 3591 3566 2422 
Q 3341 1256 2781 594 
Q 2225 -72 1475 -72 
Q 722 -72 425 594 
Q 128 1256 353 2422 
Q 581 3591 1134 4250 
Q 1691 4913 2444 4913 
z
" transform="scale(0.015625)"/>
       <path id="DejaVuSans-Oblique-6c" d="M 1172 4863 
L 1747 4863 
L 800 0 
L 225 0 
L 1172 4863 
z
" transform="scale(0.015625)"/>
      </defs>
      <use xlink:href="#DejaVuSans-63" transform="translate(0 0.234375)"/>
      <use xlink:href="#DejaVuSans-6f" transform="translate(54.980469 0.234375)"/>
      <use xlink:href="#DejaVuSans-73" transform="translate(116.162109 0.234375)"/>
      <use xlink:href="#DejaVuSans-Oblique-3b8" transform="translate(168.261719 0.234375)"/>
      <use xlink:href="#DejaVuSans-Oblique-6c" transform="translate(229.443359 -16.171875) scale(0.7)"/>
     </g>
    </g>
   </g>
   <g id="matplotlib.axis_2">
    <g id="ytick_1">
     <g id="line2d_4">
      <defs>
       <path id="m302ef24f2f" d="M 0 0 
L -3.5 0 
" style="stroke: #000000; stroke-width: 0.8"/>
      </defs>
      <g>
       <use xlink:href="#m302ef24f2f" x="57.6" y="307.584" style="stroke: #000000; stroke-width: 0.8"/>
      </g>
     </g>
     <g id="text_5">
      <!-- 0.0 -->
      <g transform="translate(34.696875 311.383219) scale(0.1 -0.1)">
       <defs>
        <path id="DejaVuSans-2e" d="M 684 794 
L 1344 794 
L 1344 0 
L 684 0 
L 684 794 
z
" transform="scale(0.015625)"/>
       </defs>
       <use xlink:href="#DejaVuSans-30"/>
       <use xlink:href="#DejaVuSans-2e" x="63.623047"/>
       <use xlink:href="#DejaVuSans-30" x="95.410156"/>
      </g>
     </g>
    </g>
    <g id="ytick_2">
     <g id="line2d_5">
      <g>
       <use xlink:href="#m302ef24f2f" x="57.6" y="255.516807" style="stroke: #000000; stroke-width: 0.8"/>
      </g>
     </g>
     <g id="text_6">
      <!-- 0.2 -->
      <g transform="translate(34.696875 259.316026) scale(0.1 -0.1)">
       <defs>
        <path id="DejaVuSans-32" d="M 1228 531 
L 3431 531 
L 3431 0 
L 469 0 
L 469 531 
Q 828 903 1448 1529 
Q 2069 2156 2228 2338 
Q 2531 2678 2651 2914 
Q 2772 3150 2772 3378 
Q 2772 3750 2511 3984 
Q 2250 4219 1831 4219 
Q 1534 4219 1204 4116 
Q 875 4013 500 3803 
L 500 4441 
Q 881 4594 1212 4672 
Q 1544 4750 1819 4750 
Q 2544 4750 2975 4387 
Q 3406 4025 3406 3419 
Q 3406 3131 3298 2873 
Q 3191 2616 2906 2266 
Q 2828 2175 2409 1742 
Q 1991 1309 1228 531 
z
" transform="scale(0.015625)"/>
       </defs>
       <use xlink:href="#DejaVuSans-30"/>
       <use xlink:href="#DejaVuSans-2e" x="63.623047"/>
       <use xlink:href="#DejaVuSans-32" x="95.410156"/>
      </g>
     </g>
    </g>
    <g id="ytick_3">
     <g id="line2d_6">
      <g>
       <use xlink:href="#m302ef24f2f" x="57.6" y="203.449615" style="stroke: #000000; stroke-width: 0.8"/>
      </g>
     </g>
     <g id="text_7">
      <!-- 0.4 -->
      <g transform="translate(34.696875 207.248834) scale(0.1 -0.1)">
       <defs>
        <path id="DejaVuSans-34" d="M 2419 4116 
L 825 1625 
L 2419 1625 
L 2419 4116 
z
M 2253 4666 
L 3047 4666 
L 3047 1625 
L 3713 1625 
L 3713 1100 
L 3047 1100 
L 3047 0 
L 2419 0 
L 2419 1100 
L 313 1100 
L 313 1709 
L 2253 4666 
z
" transform="scale(0.015625)"/>
       </defs>
       <use xlink:href="#DejaVuSans-30"/>
       <use xlink:href="#DejaVuSans-2e" x="63.623047"/>
       <use xlink:href="#DejaVuSans-34" x="95.410156"/>
      </g>
     </g>
    </g>
    <g id="ytick_4">
     <g id="line2d_7">
      <g>
       <use xlink:href="#m302ef24f2f" x="57.6" y="151.382422" style="stroke: #000000; stroke-width: 0.8"/>
      </g>
     </g>
     <g id="text_8">
      <!-- 0.6 -->
      <g transform="translate(34.696875 155.181641) scale(0.1 -0.1)">
       <defs>
        <path id="DejaVuSans-36" d="M 2113 2584 
Q 1688 2584 1439 2293 
Q 1191 2003 1191 1497 
Q 1191 994 1439 701 
Q 1688 409 2113 409 
Q 2538 409 2786 701 
Q 3034 994 3034 1497 
Q 3034 2003 2786 2293 
Q 2538 2584 2113 2584 
z
M 3366 4563 
L 3366 3988 
Q 3128 4100 2886 4159 
Q 2644 4219 2406 4219 
Q 1781 4219 1451 3797 
Q 1122 3375 1075 2522 
Q 1259 2794 1537 2939 
Q 1816 3084 2150 3084 
Q 2853 3084 3261 2657 
Q 3669 2231 3669 1497 
Q 3669 778 3244 343 
Q 2819 -91 2113 -91 
Q 1303 -91 875 529 
Q 447 1150 447 2328 
Q 447 3434 972 4092 
Q 1497 4750 2381 4750 
Q 2619 4750 2861 4703 
Q 3103 4656 3366 4563 
z
" transform="scale(0.015625)"/>
       </defs>
       <use xlink:href="#DejaVuSans-30"/>
       <use xlink:href="#DejaVuSans-2e" x="63.623047"/>
       <use xlink:href="#DejaVuSans-36" x="95.410156"/>
      </g>
     </g>
    </g>
    <g id="ytick_5">
     <g id="line2d_8">
      <g>
       <use xlink:href="#m302ef24f2f" x="57.6" y="99.31523" style="stroke: #000000; stroke-width: 0.8"/>
      </g>
     </g>
     <g id="text_9">
      <!-- 0.8 -->
      <g transform="translate(34.696875 103.114449) scale(0.1 -0.1)">
       <defs>
        <path id="DejaVuSans-38" d="M 2034 2216 
Q 1584 2216 1326 1975 
Q 1069 1734 1069 1313 
Q 1069 891 1326 650 
Q 1584 409 2034 409 
Q 2484 409 2743 651 
Q 3003 894 3003 1313 
Q 3003 1734 2745 1975 
Q 2488 2216 2034 2216 
z
M 1403 2484 
Q 997 2584 770 2862 
Q 544 3141 544 3541 
Q 544 4100 942 4425 
Q 1341 4750 2034 4750 
Q 2731 4750 3128 4425 
Q 3525 4100 3525 3541 
Q 3525 3141 3298 2862 
Q 3072 2584 2669 2484 
Q 3125 2378 3379 2068 
Q 3634 1759 3634 1313 
Q 3634 634 3220 271 
Q 2806 -91 2034 -91 
Q 1263 -91 848 271 
Q 434 634 434 1313 
Q 434 1759 690 2068 
Q 947 2378 1403 2484 
z
M 1172 3481 
Q 1172 3119 1398 2916 
Q 1625 2713 2034 2713 
Q 2441 2713 2670 2916 
Q 2900 3119 2900 3481 
Q 2900 3844 2670 4047 
Q 2441 4250 2034 4250 
Q 1625 4250 1398 4047 
Q 1172 3844 1172 3481 
z
" transform="scale(0.015625)"/>
       </defs>
       <use xlink:href="#DejaVuSans-30"/>
       <use xlink:href="#DejaVuSans-2e" x="63.623047"/>
       <use xlink:href="#DejaVuSans-38" x="95.410156"/>
      </g>
     </g>
    </g>
    <g id="ytick_6">
     <g id="line2d_9">
      <g>
       <use xlink:href="#m302ef24f2f" x="57.6" y="47.248037" style="stroke: #000000; stroke-width: 0.8"/>
      </g>
     </g>
     <g id="text_10">
      <!-- 1.0 -->
      <g transform="translate(34.696875 51.047256) scale(0.1 -0.1)">
       <use xlink:href="#DejaVuSans-31"/>
       <use xlink:href="#DejaVuSans-2e" x="63.623047"/>
       <use xlink:href="#DejaVuSans-30" x="95.410156"/>
      </g>
     </g>
    </g>
    <g id="text_11">
     <!-- frequency -->
     <g transform="translate(28.617187 199.604562) rotate(-90) scale(0.1 -0.1)">
      <defs>
       <path id="DejaVuSans-66" d="M 2375 4863 
L 2375 4384 
L 1825 4384 
Q 1516 4384 1395 4259 
Q 1275 4134 1275 3809 
L 1275 3500 
L 2222 3500 
L 2222 3053 
L 1275 3053 
L 1275 0 
L 697 0 
L 697 3053 
L 147 3053 
L 147 3500 
L 697 3500 
L 697 3744 
Q 697 4328 969 4595 
Q 1241 4863 1831 4863 
L 2375 4863 
z
" transform="scale(0.015625)"/>
       <path id="DejaVuSans-72" d="M 2631 2963 
Q 2534 3019 2420 3045 
Q 2306 3072 2169 3072 
Q 1681 3072 1420 2755 
Q 1159 2438 1159 1844 
L 1159 0 
L 581 0 
L 581 3500 
L 1159 3500 
L 1159 2956 
Q 1341 3275 1631 3429 
Q 1922 3584 2338 3584 
Q 2397 3584 2469 3576 
Q 2541 3569 2628 3553 
L 2631 2963 
z
" transform="scale(0.015625)"/>
       <path id="DejaVuSans-65" d="M 3597 1894 
L 3597 1613 
L 953 1613 
Q 991 1019 1311 708 
Q 1631 397 2203 397 
Q 2534 397 2845 478 
Q 3156 559 3463 722 
L 3463 178 
Q 3153 47 2828 -22 
Q 2503 -91 2169 -91 
Q 1331 -91 842 396 
Q 353 884 353 1716 
Q 353 2575 817 3079 
Q 1281 3584 2069 3584 
Q 2775 3584 3186 3129 
Q 3597 2675 3597 1894 
z
M 3022 2063 
Q 3016 2534 2758 2815 
Q 2500 3097 2075 3097 
Q 1594 3097 1305 2825 
Q 1016 2553 972 2059 
L 3022 2063 
z
" transform="scale(0.015625)"/>
       <path id="DejaVuSans-71" d="M 947 1747 
Q 947 1113 1208 752 
Q 1469 391 1925 391 
Q 2381 391 2643 752 
Q 2906 1113 2906 1747 
Q 2906 2381 2643 2742 
Q 2381 3103 1925 3103 
Q 1469 3103 1208 2742 
Q 947 2381 947 1747 
z
M 2906 525 
Q 2725 213 2448 61 
Q 2172 -91 1784 -91 
Q 1150 -91 751 415 
Q 353 922 353 1747 
Q 353 2572 751 3078 
Q 1150 3584 1784 3584 
Q 2172 3584 2448 3432 
Q 2725 3281 2906 2969 
L 2906 3500 
L 3481 3500 
L 3481 -1331 
L 2906 -1331 
L 2906 525 
z
" transform="scale(0.015625)"/>
       <path id="DejaVuSans-75" d="M 544 1381 
L 544 3500 
L 1119 3500 
L 1119 1403 
Q 1119 906 1312 657 
Q 1506 409 1894 409 
Q 2359 409 2629 706 
Q 2900 1003 2900 1516 
L 2900 3500 
L 3475 3500 
L 3475 0 
L 2900 0 
L 2900 538 
Q 2691 219 2414 64 
Q 2138 -91 1772 -91 
Q 1169 -91 856 284 
Q 544 659 544 1381 
z
M 1991 3584 
L 1991 3584 
z
" transform="scale(0.015625)"/>
       <path id="DejaVuSans-6e" d="M 3513 2113 
L 3513 0 
L 2938 0 
L 2938 2094 
Q 2938 2591 2744 2837 
Q 2550 3084 2163 3084 
Q 1697 3084 1428 2787 
Q 1159 2491 1159 1978 
L 1159 0 
L 581 0 
L 581 3500 
L 1159 3500 
L 1159 2956 
Q 1366 3272 1645 3428 
Q 1925 3584 2291 3584 
Q 2894 3584 3203 3211 
Q 3513 2838 3513 2113 
z
" transform="scale(0.015625)"/>
       <path id="DejaVuSans-79" d="M 2059 -325 
Q 1816 -950 1584 -1140 
Q 1353 -1331 966 -1331 
L 506 -1331 
L 506 -850 
L 844 -850 
Q 1081 -850 1212 -737 
Q 1344 -625 1503 -206 
L 1606 56 
L 191 3500 
L 800 3500 
L 1894 763 
L 2988 3500 
L 3597 3500 
L 2059 -325 
z
" transform="scale(0.015625)"/>
      </defs>
      <use xlink:href="#DejaVuSans-66"/>
      <use xlink:href="#DejaVuSans-72" x="35.205078"/>
      <use xlink:href="#DejaVuSans-65" x="74.068359"/>
      <use xlink:href="#DejaVuSans-71" x="135.591797"/>
      <use xlink:href="#DejaVuSans-75" x="199.068359"/>
      <use xlink:href="#DejaVuSans-65" x="262.447266"/>
      <use xlink:href="#DejaVuSans-6e" x="323.970703"/>
      <use xlink:href="#DejaVuSans-63" x="387.349609"/>
      <use xlink:href="#DejaVuSans-79" x="442.330078"/>
     </g>
    </g>
   </g>
   <g id="line2d_10">
    <defs>
     <path id="m7c7bd1843e" d="M -3 3 
L 3 -3 
M -3 -3 
L 3 3 
" style="stroke: #ff7f0e"/>
    </defs>
    <g clip-path="url(#p02cb23655c)">
     <use xlink:href="#m7c7bd1843e" x="64.761498" y="223.104026" style="fill: #ff7f0e; stroke: #ff7f0e"/>
     <use xlink:href="#m7c7bd1843e" x="69.53583" y="223.104026" style="fill: #ff7f0e; stroke: #ff7f0e"/>
     <use xlink:href="#m7c7bd1843e" x="74.310161" y="286.463994" style="fill: #ff7f0e; stroke: #ff7f0e"/>
     <use xlink:href="#m7c7bd1843e" x="79.084492" y="201.984032" style="fill: #ff7f0e; stroke: #ff7f0e"/>
     <use xlink:href="#m7c7bd1843e" x="83.858824" y="138.624052" style="fill: #ff7f0e; stroke: #ff7f0e"/>
     <use xlink:href="#m7c7bd1843e" x="88.633155" y="54.144" style="fill: #ff7f0e; stroke: #ff7f0e"/>
     <use xlink:href="#m7c7bd1843e" x="93.407486" y="180.864" style="fill: #ff7f0e; stroke: #ff7f0e"/>
     <use xlink:href="#m7c7bd1843e" x="98.181818" y="96.384065" style="fill: #ff7f0e; stroke: #ff7f0e"/>
     <use xlink:href="#m7c7bd1843e" x="102.95615" y="201.984016" style="fill: #ff7f0e; stroke: #ff7f0e"/>
     <use xlink:href="#m7c7bd1843e" x="107.730481" y="180.864019" style="fill: #ff7f0e; stroke: #ff7f0e"/>
     <use xlink:href="#m7c7bd1843e" x="112.504813" y="96.384032" style="fill: #ff7f0e; stroke: #ff7f0e"/>
     <use xlink:href="#m7c7bd1843e" x="117.279144" y="138.624026" style="fill: #ff7f0e; stroke: #ff7f0e"/>
     <use xlink:href="#m7c7bd1843e" x="122.053476" y="180.864039" style="fill: #ff7f0e; stroke: #ff7f0e"/>
     <use xlink:href="#m7c7bd1843e" x="126.827808" y="159.744" style="fill: #ff7f0e; stroke: #ff7f0e"/>
     <use xlink:href="#m7c7bd1843e" x="131.602139" y="201.984" style="fill: #ff7f0e; stroke: #ff7f0e"/>
     <use xlink:href="#m7c7bd1843e" x="136.37647" y="75.264071" style="fill: #ff7f0e; stroke: #ff7f0e"/>
     <use xlink:href="#m7c7bd1843e" x="141.150803" y="265.344013" style="fill: #ff7f0e; stroke: #ff7f0e"/>
     <use xlink:href="#m7c7bd1843e" x="145.925135" y="138.624052" style="fill: #ff7f0e; stroke: #ff7f0e"/>
     <use xlink:href="#m7c7bd1843e" x="150.699466" y="180.863961" style="fill: #ff7f0e; stroke: #ff7f0e"/>
     <use xlink:href="#m7c7bd1843e" x="155.473796" y="244.224019" style="fill: #ff7f0e; stroke: #ff7f0e"/>
    </g>
   </g>
   <g id="line2d_11">
    <path d="M 64.761498 239.794298 
L 69.53583 220.470158 
L 74.310161 203.203149 
L 79.084492 187.993284 
L 83.858824 174.840569 
L 88.633155 163.744988 
L 93.407486 154.706551 
L 98.181818 147.725259 
L 102.95615 142.801108 
L 107.730481 139.934101 
L 112.504813 139.124235 
L 117.279144 140.371513 
L 122.053476 143.675933 
L 126.827808 149.037495 
L 131.602139 156.456202 
L 136.37647 165.932045 
L 141.150803 177.465045 
L 145.925135 191.055172 
L 150.699466 206.702451 
L 155.473796 224.406873 
" clip-path="url(#p02cb23655c)" style="fill: none; stroke: #2ca02c; stroke-width: 1.5; stroke-linecap: square"/>
   </g>
   <g id="patch_23">
    <path d="M 57.6 307.584 
L 57.6 41.472 
" style="fill: none; stroke: #000000; stroke-width: 0.8; stroke-linejoin: miter; stroke-linecap: square"/>
   </g>
   <g id="patch_24">
    <path d="M 162.635294 307.584 
L 162.635294 41.472 
" style="fill: none; stroke: #000000; stroke-width: 0.8; stroke-linejoin: miter; stroke-linecap: square"/>
   </g>
   <g id="patch_25">
    <path d="M 57.6 307.584 
L 162.635294 307.584 
" style="fill: none; stroke: #000000; stroke-width: 0.8; stroke-linejoin: miter; stroke-linecap: square"/>
   </g>
   <g id="patch_26">
    <path d="M 57.6 41.472 
L 162.635294 41.472 
" style="fill: none; stroke: #000000; stroke-width: 0.8; stroke-linejoin: miter; stroke-linecap: square"/>
   </g>
   <g id="legend_1">
    <g id="patch_27">
     <path d="M 48.538419 78.82825 
L 155.635294 78.82825 
Q 157.635294 78.82825 157.635294 76.82825 
L 157.635294 48.472 
Q 157.635294 46.472 155.635294 46.472 
L 48.538419 46.472 
Q 46.538419 46.472 46.538419 48.472 
L 46.538419 76.82825 
Q 46.538419 78.82825 48.538419 78.82825 
z
" style="fill: #ffffff; opacity: 0.8; stroke: #cccccc; stroke-linejoin: miter"/>
    </g>
    <g id="line2d_12">
     <g>
      <use xlink:href="#m7c7bd1843e" x="60.538419" y="54.570437" style="fill: #ff7f0e; stroke: #ff7f0e"/>
     </g>
    </g>
    <g id="text_12">
     <!-- simulated data -->
     <g transform="translate(78.538419 58.070437) scale(0.1 -0.1)">
      <defs>
       <path id="DejaVuSans-69" d="M 603 3500 
L 1178 3500 
L 1178 0 
L 603 0 
L 603 3500 
z
M 603 4863 
L 1178 4863 
L 1178 4134 
L 603 4134 
L 603 4863 
z
" transform="scale(0.015625)"/>
       <path id="DejaVuSans-6d" d="M 3328 2828 
Q 3544 3216 3844 3400 
Q 4144 3584 4550 3584 
Q 5097 3584 5394 3201 
Q 5691 2819 5691 2113 
L 5691 0 
L 5113 0 
L 5113 2094 
Q 5113 2597 4934 2840 
Q 4756 3084 4391 3084 
Q 3944 3084 3684 2787 
Q 3425 2491 3425 1978 
L 3425 0 
L 2847 0 
L 2847 2094 
Q 2847 2600 2669 2842 
Q 2491 3084 2119 3084 
Q 1678 3084 1418 2786 
Q 1159 2488 1159 1978 
L 1159 0 
L 581 0 
L 581 3500 
L 1159 3500 
L 1159 2956 
Q 1356 3278 1631 3431 
Q 1906 3584 2284 3584 
Q 2666 3584 2933 3390 
Q 3200 3197 3328 2828 
z
" transform="scale(0.015625)"/>
       <path id="DejaVuSans-6c" d="M 603 4863 
L 1178 4863 
L 1178 0 
L 603 0 
L 603 4863 
z
" transform="scale(0.015625)"/>
       <path id="DejaVuSans-61" d="M 2194 1759 
Q 1497 1759 1228 1600 
Q 959 1441 959 1056 
Q 959 750 1161 570 
Q 1363 391 1709 391 
Q 2188 391 2477 730 
Q 2766 1069 2766 1631 
L 2766 1759 
L 2194 1759 
z
M 3341 1997 
L 3341 0 
L 2766 0 
L 2766 531 
Q 2569 213 2275 61 
Q 1981 -91 1556 -91 
Q 1019 -91 701 211 
Q 384 513 384 1019 
Q 384 1609 779 1909 
Q 1175 2209 1959 2209 
L 2766 2209 
L 2766 2266 
Q 2766 2663 2505 2880 
Q 2244 3097 1772 3097 
Q 1472 3097 1187 3025 
Q 903 2953 641 2809 
L 641 3341 
Q 956 3463 1253 3523 
Q 1550 3584 1831 3584 
Q 2591 3584 2966 3190 
Q 3341 2797 3341 1997 
z
" transform="scale(0.015625)"/>
       <path id="DejaVuSans-74" d="M 1172 4494 
L 1172 3500 
L 2356 3500 
L 2356 3053 
L 1172 3053 
L 1172 1153 
Q 1172 725 1289 603 
Q 1406 481 1766 481 
L 2356 481 
L 2356 0 
L 1766 0 
Q 1100 0 847 248 
Q 594 497 594 1153 
L 594 3053 
L 172 3053 
L 172 3500 
L 594 3500 
L 594 4494 
L 1172 4494 
z
" transform="scale(0.015625)"/>
       <path id="DejaVuSans-64" d="M 2906 2969 
L 2906 4863 
L 3481 4863 
L 3481 0 
L 2906 0 
L 2906 525 
Q 2725 213 2448 61 
Q 2172 -91 1784 -91 
Q 1150 -91 751 415 
Q 353 922 353 1747 
Q 353 2572 751 3078 
Q 1150 3584 1784 3584 
Q 2172 3584 2448 3432 
Q 2725 3281 2906 2969 
z
M 947 1747 
Q 947 1113 1208 752 
Q 1469 391 1925 391 
Q 2381 391 2643 752 
Q 2906 1113 2906 1747 
Q 2906 2381 2643 2742 
Q 2381 3103 1925 3103 
Q 1469 3103 1208 2742 
Q 947 2381 947 1747 
z
" transform="scale(0.015625)"/>
       <path id="DejaVuSans-20" transform="scale(0.015625)"/>
      </defs>
      <use xlink:href="#DejaVuSans-73"/>
      <use xlink:href="#DejaVuSans-69" x="52.099609"/>
      <use xlink:href="#DejaVuSans-6d" x="79.882812"/>
      <use xlink:href="#DejaVuSans-75" x="177.294922"/>
      <use xlink:href="#DejaVuSans-6c" x="240.673828"/>
      <use xlink:href="#DejaVuSans-61" x="268.457031"/>
      <use xlink:href="#DejaVuSans-74" x="329.736328"/>
      <use xlink:href="#DejaVuSans-65" x="368.945312"/>
      <use xlink:href="#DejaVuSans-64" x="430.46875"/>
      <use xlink:href="#DejaVuSans-20" x="493.945312"/>
      <use xlink:href="#DejaVuSans-64" x="525.732422"/>
      <use xlink:href="#DejaVuSans-61" x="589.208984"/>
      <use xlink:href="#DejaVuSans-74" x="650.488281"/>
      <use xlink:href="#DejaVuSans-61" x="689.697266"/>
     </g>
    </g>
    <g id="line2d_13">
     <path d="M 50.538419 69.248562 
L 60.538419 69.248562 
L 70.538419 69.248562 
" style="fill: none; stroke: #2ca02c; stroke-width: 1.5; stroke-linecap: square"/>
    </g>
    <g id="text_13">
     <!-- fit data -->
     <g transform="translate(78.538419 72.748562) scale(0.1 -0.1)">
      <use xlink:href="#DejaVuSans-66"/>
      <use xlink:href="#DejaVuSans-69" x="35.205078"/>
      <use xlink:href="#DejaVuSans-74" x="62.988281"/>
      <use xlink:href="#DejaVuSans-20" x="102.197266"/>
      <use xlink:href="#DejaVuSans-64" x="133.984375"/>
      <use xlink:href="#DejaVuSans-61" x="197.460938"/>
      <use xlink:href="#DejaVuSans-74" x="258.740234"/>
      <use xlink:href="#DejaVuSans-61" x="297.949219"/>
     </g>
    </g>
   </g>
  </g>
  <g id="axes_2">
   <g id="patch_28">
    <path d="M 183.642353 307.584 
L 288.677647 307.584 
L 288.677647 41.472 
L 183.642353 41.472 
z
" style="fill: #ffffff"/>
   </g>
   <g id="patch_29">
    <path d="M 188.416684 307.584 
L 193.191015 307.584 
L 193.191015 168.192 
L 188.416684 168.192 
z
" clip-path="url(#p347fa24b84)" style="fill: #1f77b4"/>
   </g>
   <g id="patch_30">
    <path d="M 193.191015 307.584 
L 197.965348 307.584 
L 197.965348 193.536068 
L 193.191015 193.536068 
z
" clip-path="url(#p347fa24b84)" style="fill: #1f77b4"/>
   </g>
   <g id="patch_31">
    <path d="M 197.965348 307.584 
L 202.739679 307.584 
L 202.739679 54.144 
L 197.965348 54.144 
z
" clip-path="url(#p347fa24b84)" style="fill: #1f77b4"/>
   </g>
   <g id="patch_32">
    <path d="M 202.739679 307.584 
L 207.514012 307.584 
L 207.514012 206.208061 
L 202.739679 206.208061 
z
" clip-path="url(#p347fa24b84)" style="fill: #1f77b4"/>
   </g>
   <g id="patch_33">
    <path d="M 207.514012 307.584 
L 212.288342 307.584 
L 212.288342 168.192 
L 207.514012 168.192 
z
" clip-path="url(#p347fa24b84)" style="fill: #1f77b4"/>
   </g>
   <g id="patch_34">
    <path d="M 212.288342 307.584 
L 217.062674 307.584 
L 217.062674 218.880027 
L 212.288342 218.880027 
z
" clip-path="url(#p347fa24b84)" style="fill: #1f77b4"/>
   </g>
   <g id="patch_35">
    <path d="M 217.062674 307.584 
L 221.837006 307.584 
L 221.837006 206.20803 
L 217.062674 206.20803 
z
" clip-path="url(#p347fa24b84)" style="fill: #1f77b4"/>
   </g>
   <g id="patch_36">
    <path d="M 221.837006 307.584 
L 226.611337 307.584 
L 226.611337 155.520023 
L 221.837006 155.520023 
z
" clip-path="url(#p347fa24b84)" style="fill: #1f77b4"/>
   </g>
   <g id="patch_37">
    <path d="M 226.611337 307.584 
L 231.385669 307.584 
L 231.385669 231.552017 
L 226.611337 231.552017 
z
" clip-path="url(#p347fa24b84)" style="fill: #1f77b4"/>
   </g>
   <g id="patch_38">
    <path d="M 231.385669 307.584 
L 236.16 307.584 
L 236.16 282.240006 
L 231.385669 282.240006 
z
" clip-path="url(#p347fa24b84)" style="fill: #1f77b4"/>
   </g>
   <g id="patch_39">
    <path d="M 236.16 307.584 
L 240.934331 307.584 
L 240.934331 244.224014 
L 236.16 244.224014 
z
" clip-path="url(#p347fa24b84)" style="fill: #1f77b4"/>
   </g>
   <g id="patch_40">
    <path d="M 240.934331 307.584 
L 245.708663 307.584 
L 245.708663 294.912003 
L 240.934331 294.912003 
z
" clip-path="url(#p347fa24b84)" style="fill: #1f77b4"/>
   </g>
   <g id="patch_41">
    <path d="M 245.708663 307.584 
L 250.482994 307.584 
L 250.482994 294.912002 
L 245.708663 294.912002 
z
" clip-path="url(#p347fa24b84)" style="fill: #1f77b4"/>
   </g>
   <g id="patch_42">
    <path d="M 250.482994 307.584 
L 255.257326 307.584 
L 255.257326 294.912004 
L 250.482994 294.912004 
z
" clip-path="url(#p347fa24b84)" style="fill: #1f77b4"/>
   </g>
   <g id="patch_43">
    <path d="M 255.257326 307.584 
L 260.031658 307.584 
L 260.031658 256.896015 
L 255.257326 256.896015 
z
" clip-path="url(#p347fa24b84)" style="fill: #1f77b4"/>
   </g>
   <g id="patch_44">
    <path d="M 260.031658 307.584 
L 264.805988 307.584 
L 264.805988 282.24 
L 260.031658 282.24 
z
" clip-path="url(#p347fa24b84)" style="fill: #1f77b4"/>
   </g>
   <g id="patch_45">
    <path d="M 264.805988 307.584 
L 269.580321 307.584 
L 269.580321 256.89603 
L 264.805988 256.89603 
z
" clip-path="url(#p347fa24b84)" style="fill: #1f77b4"/>
   </g>
   <g id="patch_46">
    <path d="M 269.580321 307.584 
L 274.354652 307.584 
L 274.354652 244.224 
L 269.580321 244.224 
z
" clip-path="url(#p347fa24b84)" style="fill: #1f77b4"/>
   </g>
   <g id="patch_47">
    <path d="M 274.354652 307.584 
L 279.128985 307.584 
L 279.128985 256.89603 
L 274.354652 256.89603 
z
" clip-path="url(#p347fa24b84)" style="fill: #1f77b4"/>
   </g>
   <g id="patch_48">
    <path d="M 279.128985 307.584 
L 283.903316 307.584 
L 283.903316 231.552 
L 279.128985 231.552 
z
" clip-path="url(#p347fa24b84)" style="fill: #1f77b4"/>
   </g>
   <g id="matplotlib.axis_3">
    <g id="xtick_4">
     <g id="line2d_14">
      <g>
       <use xlink:href="#m53a352d63b" x="188.12235" y="307.584" style="stroke: #000000; stroke-width: 0.8"/>
      </g>
     </g>
     <g id="text_14">
      <!-- −1 -->
      <g transform="translate(180.751256 322.182437) scale(0.1 -0.1)">
       <use xlink:href="#DejaVuSans-2212"/>
       <use xlink:href="#DejaVuSans-31" x="83.789062"/>
      </g>
     </g>
    </g>
    <g id="xtick_5">
     <g id="line2d_15">
      <g>
       <use xlink:href="#m53a352d63b" x="236.148638" y="307.584" style="stroke: #000000; stroke-width: 0.8"/>
      </g>
     </g>
     <g id="text_15">
      <!-- 0 -->
      <g transform="translate(232.967388 322.182437) scale(0.1 -0.1)">
       <use xlink:href="#DejaVuSans-30"/>
      </g>
     </g>
    </g>
    <g id="xtick_6">
     <g id="line2d_16">
      <g>
       <use xlink:href="#m53a352d63b" x="284.174927" y="307.584" style="stroke: #000000; stroke-width: 0.8"/>
      </g>
     </g>
     <g id="text_16">
      <!-- 1 -->
      <g transform="translate(280.993677 322.182437) scale(0.1 -0.1)">
       <use xlink:href="#DejaVuSans-31"/>
      </g>
     </g>
    </g>
    <g id="text_17">
     <!-- cos$\theta_k$ -->
     <g transform="translate(222.51 335.860562) scale(0.1 -0.1)">
      <defs>
       <path id="DejaVuSans-Oblique-6b" d="M 1172 4863 
L 1747 4863 
L 1197 2028 
L 3169 3500 
L 3916 3500 
L 1716 1825 
L 3322 0 
L 2625 0 
L 1131 1709 
L 800 0 
L 225 0 
L 1172 4863 
z
" transform="scale(0.015625)"/>
      </defs>
      <use xlink:href="#DejaVuSans-63" transform="translate(0 0.234375)"/>
      <use xlink:href="#DejaVuSans-6f" transform="translate(54.980469 0.234375)"/>
      <use xlink:href="#DejaVuSans-73" transform="translate(116.162109 0.234375)"/>
      <use xlink:href="#DejaVuSans-Oblique-3b8" transform="translate(168.261719 0.234375)"/>
      <use xlink:href="#DejaVuSans-Oblique-6b" transform="translate(229.443359 -16.171875) scale(0.7)"/>
     </g>
    </g>
   </g>
   <g id="matplotlib.axis_4">
    <g id="ytick_7">
     <g id="line2d_17">
      <g>
       <use xlink:href="#m302ef24f2f" x="183.642353" y="307.584" style="stroke: #000000; stroke-width: 0.8"/>
      </g>
     </g>
     <g id="text_18">
      <!-- 0.0 -->
      <g transform="translate(160.739228 311.383219) scale(0.1 -0.1)">
       <use xlink:href="#DejaVuSans-30"/>
       <use xlink:href="#DejaVuSans-2e" x="63.623047"/>
       <use xlink:href="#DejaVuSans-30" x="95.410156"/>
      </g>
     </g>
    </g>
    <g id="ytick_8">
     <g id="line2d_18">
      <g>
       <use xlink:href="#m302ef24f2f" x="183.642353" y="275.586774" style="stroke: #000000; stroke-width: 0.8"/>
      </g>
     </g>
     <g id="text_19">
      <!-- 0.2 -->
      <g transform="translate(160.739228 279.385993) scale(0.1 -0.1)">
       <use xlink:href="#DejaVuSans-30"/>
       <use xlink:href="#DejaVuSans-2e" x="63.623047"/>
       <use xlink:href="#DejaVuSans-32" x="95.410156"/>
      </g>
     </g>
    </g>
    <g id="ytick_9">
     <g id="line2d_19">
      <g>
       <use xlink:href="#m302ef24f2f" x="183.642353" y="243.589548" style="stroke: #000000; stroke-width: 0.8"/>
      </g>
     </g>
     <g id="text_20">
      <!-- 0.4 -->
      <g transform="translate(160.739228 247.388767) scale(0.1 -0.1)">
       <use xlink:href="#DejaVuSans-30"/>
       <use xlink:href="#DejaVuSans-2e" x="63.623047"/>
       <use xlink:href="#DejaVuSans-34" x="95.410156"/>
      </g>
     </g>
    </g>
    <g id="ytick_10">
     <g id="line2d_20">
      <g>
       <use xlink:href="#m302ef24f2f" x="183.642353" y="211.592322" style="stroke: #000000; stroke-width: 0.8"/>
      </g>
     </g>
     <g id="text_21">
      <!-- 0.6 -->
      <g transform="translate(160.739228 215.391541) scale(0.1 -0.1)">
       <use xlink:href="#DejaVuSans-30"/>
       <use xlink:href="#DejaVuSans-2e" x="63.623047"/>
       <use xlink:href="#DejaVuSans-36" x="95.410156"/>
      </g>
     </g>
    </g>
    <g id="ytick_11">
     <g id="line2d_21">
      <g>
       <use xlink:href="#m302ef24f2f" x="183.642353" y="179.595096" style="stroke: #000000; stroke-width: 0.8"/>
      </g>
     </g>
     <g id="text_22">
      <!-- 0.8 -->
      <g transform="translate(160.739228 183.394315) scale(0.1 -0.1)">
       <use xlink:href="#DejaVuSans-30"/>
       <use xlink:href="#DejaVuSans-2e" x="63.623047"/>
       <use xlink:href="#DejaVuSans-38" x="95.410156"/>
      </g>
     </g>
    </g>
    <g id="ytick_12">
     <g id="line2d_22">
      <g>
       <use xlink:href="#m302ef24f2f" x="183.642353" y="147.59787" style="stroke: #000000; stroke-width: 0.8"/>
      </g>
     </g>
     <g id="text_23">
      <!-- 1.0 -->
      <g transform="translate(160.739228 151.397089) scale(0.1 -0.1)">
       <use xlink:href="#DejaVuSans-31"/>
       <use xlink:href="#DejaVuSans-2e" x="63.623047"/>
       <use xlink:href="#DejaVuSans-30" x="95.410156"/>
      </g>
     </g>
    </g>
    <g id="ytick_13">
     <g id="line2d_23">
      <g>
       <use xlink:href="#m302ef24f2f" x="183.642353" y="115.600644" style="stroke: #000000; stroke-width: 0.8"/>
      </g>
     </g>
     <g id="text_24">
      <!-- 1.2 -->
      <g transform="translate(160.739228 119.399863) scale(0.1 -0.1)">
       <use xlink:href="#DejaVuSans-31"/>
       <use xlink:href="#DejaVuSans-2e" x="63.623047"/>
       <use xlink:href="#DejaVuSans-32" x="95.410156"/>
      </g>
     </g>
    </g>
    <g id="ytick_14">
     <g id="line2d_24">
      <g>
       <use xlink:href="#m302ef24f2f" x="183.642353" y="83.603418" style="stroke: #000000; stroke-width: 0.8"/>
      </g>
     </g>
     <g id="text_25">
      <!-- 1.4 -->
      <g transform="translate(160.739228 87.402637) scale(0.1 -0.1)">
       <use xlink:href="#DejaVuSans-31"/>
       <use xlink:href="#DejaVuSans-2e" x="63.623047"/>
       <use xlink:href="#DejaVuSans-34" x="95.410156"/>
      </g>
     </g>
    </g>
    <g id="ytick_15">
     <g id="line2d_25">
      <g>
       <use xlink:href="#m302ef24f2f" x="183.642353" y="51.606192" style="stroke: #000000; stroke-width: 0.8"/>
      </g>
     </g>
     <g id="text_26">
      <!-- 1.6 -->
      <g transform="translate(160.739228 55.405411) scale(0.1 -0.1)">
       <use xlink:href="#DejaVuSans-31"/>
       <use xlink:href="#DejaVuSans-2e" x="63.623047"/>
       <use xlink:href="#DejaVuSans-36" x="95.410156"/>
      </g>
     </g>
    </g>
    <g id="text_27">
     <!-- frequency -->
     <g transform="translate(154.65954 199.604562) rotate(-90) scale(0.1 -0.1)">
      <use xlink:href="#DejaVuSans-66"/>
      <use xlink:href="#DejaVuSans-72" x="35.205078"/>
      <use xlink:href="#DejaVuSans-65" x="74.068359"/>
      <use xlink:href="#DejaVuSans-71" x="135.591797"/>
      <use xlink:href="#DejaVuSans-75" x="199.068359"/>
      <use xlink:href="#DejaVuSans-65" x="262.447266"/>
      <use xlink:href="#DejaVuSans-6e" x="323.970703"/>
      <use xlink:href="#DejaVuSans-63" x="387.349609"/>
      <use xlink:href="#DejaVuSans-79" x="442.330078"/>
     </g>
    </g>
   </g>
   <g id="line2d_26">
    <g clip-path="url(#p347fa24b84)">
     <use xlink:href="#m7c7bd1843e" x="190.80385" y="168.192" style="fill: #ff7f0e; stroke: #ff7f0e"/>
     <use xlink:href="#m7c7bd1843e" x="195.578182" y="193.536068" style="fill: #ff7f0e; stroke: #ff7f0e"/>
     <use xlink:href="#m7c7bd1843e" x="200.352513" y="54.144" style="fill: #ff7f0e; stroke: #ff7f0e"/>
     <use xlink:href="#m7c7bd1843e" x="205.126845" y="206.208061" style="fill: #ff7f0e; stroke: #ff7f0e"/>
     <use xlink:href="#m7c7bd1843e" x="209.901177" y="168.192" style="fill: #ff7f0e; stroke: #ff7f0e"/>
     <use xlink:href="#m7c7bd1843e" x="214.675508" y="218.880027" style="fill: #ff7f0e; stroke: #ff7f0e"/>
     <use xlink:href="#m7c7bd1843e" x="219.44984" y="206.20803" style="fill: #ff7f0e; stroke: #ff7f0e"/>
     <use xlink:href="#m7c7bd1843e" x="224.224171" y="155.520023" style="fill: #ff7f0e; stroke: #ff7f0e"/>
     <use xlink:href="#m7c7bd1843e" x="228.998503" y="231.552017" style="fill: #ff7f0e; stroke: #ff7f0e"/>
     <use xlink:href="#m7c7bd1843e" x="233.772834" y="282.240006" style="fill: #ff7f0e; stroke: #ff7f0e"/>
     <use xlink:href="#m7c7bd1843e" x="238.547166" y="244.224014" style="fill: #ff7f0e; stroke: #ff7f0e"/>
     <use xlink:href="#m7c7bd1843e" x="243.321497" y="294.912003" style="fill: #ff7f0e; stroke: #ff7f0e"/>
     <use xlink:href="#m7c7bd1843e" x="248.095829" y="294.912002" style="fill: #ff7f0e; stroke: #ff7f0e"/>
     <use xlink:href="#m7c7bd1843e" x="252.87016" y="294.912004" style="fill: #ff7f0e; stroke: #ff7f0e"/>
     <use xlink:href="#m7c7bd1843e" x="257.644492" y="256.896015" style="fill: #ff7f0e; stroke: #ff7f0e"/>
     <use xlink:href="#m7c7bd1843e" x="262.418823" y="282.24" style="fill: #ff7f0e; stroke: #ff7f0e"/>
     <use xlink:href="#m7c7bd1843e" x="267.193155" y="256.89603" style="fill: #ff7f0e; stroke: #ff7f0e"/>
     <use xlink:href="#m7c7bd1843e" x="271.967487" y="244.224" style="fill: #ff7f0e; stroke: #ff7f0e"/>
     <use xlink:href="#m7c7bd1843e" x="276.741818" y="256.89603" style="fill: #ff7f0e; stroke: #ff7f0e"/>
     <use xlink:href="#m7c7bd1843e" x="281.51615" y="231.552" style="fill: #ff7f0e; stroke: #ff7f0e"/>
    </g>
   </g>
   <g id="line2d_27">
    <path d="M 190.80385 123.157058 
L 195.578182 142.666572 
L 200.352513 160.748346 
L 205.126845 177.402391 
L 209.901177 192.628716 
L 214.675508 206.427303 
L 219.44984 218.798169 
L 224.224171 229.741298 
L 228.998503 239.256702 
L 233.772834 247.344375 
L 238.547166 254.00432 
L 243.321497 259.236535 
L 248.095829 263.041022 
L 252.87016 265.417779 
L 257.644492 266.366807 
L 262.418823 265.888106 
L 267.193155 263.981676 
L 271.967487 260.647517 
L 276.741818 255.88563 
L 281.51615 249.69601 
" clip-path="url(#p347fa24b84)" style="fill: none; stroke: #2ca02c; stroke-width: 1.5; stroke-linecap: square"/>
   </g>
   <g id="patch_49">
    <path d="M 183.642353 307.584 
L 183.642353 41.472 
" style="fill: none; stroke: #000000; stroke-width: 0.8; stroke-linejoin: miter; stroke-linecap: square"/>
   </g>
   <g id="patch_50">
    <path d="M 288.677647 307.584 
L 288.677647 41.472 
" style="fill: none; stroke: #000000; stroke-width: 0.8; stroke-linejoin: miter; stroke-linecap: square"/>
   </g>
   <g id="patch_51">
    <path d="M 183.642353 307.584 
L 288.677647 307.584 
" style="fill: none; stroke: #000000; stroke-width: 0.8; stroke-linejoin: miter; stroke-linecap: square"/>
   </g>
   <g id="patch_52">
    <path d="M 183.642353 41.472 
L 288.677647 41.472 
" style="fill: none; stroke: #000000; stroke-width: 0.8; stroke-linejoin: miter; stroke-linecap: square"/>
   </g>
   <g id="legend_2">
    <g id="patch_53">
     <path d="M 174.580772 78.82825 
L 281.677647 78.82825 
Q 283.677647 78.82825 283.677647 76.82825 
L 283.677647 48.472 
Q 283.677647 46.472 281.677647 46.472 
L 174.580772 46.472 
Q 172.580772 46.472 172.580772 48.472 
L 172.580772 76.82825 
Q 172.580772 78.82825 174.580772 78.82825 
z
" style="fill: #ffffff; opacity: 0.8; stroke: #cccccc; stroke-linejoin: miter"/>
    </g>
    <g id="line2d_28">
     <g>
      <use xlink:href="#m7c7bd1843e" x="186.580772" y="54.570437" style="fill: #ff7f0e; stroke: #ff7f0e"/>
     </g>
    </g>
    <g id="text_28">
     <!-- simulated data -->
     <g transform="translate(204.580772 58.070437) scale(0.1 -0.1)">
      <use xlink:href="#DejaVuSans-73"/>
      <use xlink:href="#DejaVuSans-69" x="52.099609"/>
      <use xlink:href="#DejaVuSans-6d" x="79.882812"/>
      <use xlink:href="#DejaVuSans-75" x="177.294922"/>
      <use xlink:href="#DejaVuSans-6c" x="240.673828"/>
      <use xlink:href="#DejaVuSans-61" x="268.457031"/>
      <use xlink:href="#DejaVuSans-74" x="329.736328"/>
      <use xlink:href="#DejaVuSans-65" x="368.945312"/>
      <use xlink:href="#DejaVuSans-64" x="430.46875"/>
      <use xlink:href="#DejaVuSans-20" x="493.945312"/>
      <use xlink:href="#DejaVuSans-64" x="525.732422"/>
      <use xlink:href="#DejaVuSans-61" x="589.208984"/>
      <use xlink:href="#DejaVuSans-74" x="650.488281"/>
      <use xlink:href="#DejaVuSans-61" x="689.697266"/>
     </g>
    </g>
    <g id="line2d_29">
     <path d="M 176.580772 69.248562 
L 186.580772 69.248562 
L 196.580772 69.248562 
" style="fill: none; stroke: #2ca02c; stroke-width: 1.5; stroke-linecap: square"/>
    </g>
    <g id="text_29">
     <!-- fit data -->
     <g transform="translate(204.580772 72.748562) scale(0.1 -0.1)">
      <use xlink:href="#DejaVuSans-66"/>
      <use xlink:href="#DejaVuSans-69" x="35.205078"/>
      <use xlink:href="#DejaVuSans-74" x="62.988281"/>
      <use xlink:href="#DejaVuSans-20" x="102.197266"/>
      <use xlink:href="#DejaVuSans-64" x="133.984375"/>
      <use xlink:href="#DejaVuSans-61" x="197.460938"/>
      <use xlink:href="#DejaVuSans-74" x="258.740234"/>
      <use xlink:href="#DejaVuSans-61" x="297.949219"/>
     </g>
    </g>
   </g>
  </g>
  <g id="axes_3">
   <g id="patch_54">
    <path d="M 309.684706 307.584 
L 414.72 307.584 
L 414.72 41.472 
L 309.684706 41.472 
z
" style="fill: #ffffff"/>
   </g>
   <g id="patch_55">
    <path d="M 314.459037 307.584 
L 319.233368 307.584 
L 319.233368 206.208 
L 314.459037 206.208 
z
" clip-path="url(#p459ddf9bac)" style="fill: #1f77b4"/>
   </g>
   <g id="patch_56">
    <path d="M 319.233368 307.584 
L 324.007699 307.584 
L 324.007699 206.208 
L 319.233368 206.208 
z
" clip-path="url(#p459ddf9bac)" style="fill: #1f77b4"/>
   </g>
   <g id="patch_57">
    <path d="M 324.007699 307.584 
L 328.78203 307.584 
L 328.78203 79.488 
L 324.007699 79.488 
z
" clip-path="url(#p459ddf9bac)" style="fill: #1f77b4"/>
   </g>
   <g id="patch_58">
    <path d="M 328.78203 307.584 
L 333.556363 307.584 
L 333.556363 130.176069 
L 328.78203 130.176069 
z
" clip-path="url(#p459ddf9bac)" style="fill: #1f77b4"/>
   </g>
   <g id="patch_59">
    <path d="M 333.556363 307.584 
L 338.330696 307.584 
L 338.330696 155.520059 
L 333.556363 155.520059 
z
" clip-path="url(#p459ddf9bac)" style="fill: #1f77b4"/>
   </g>
   <g id="patch_60">
    <path d="M 338.330696 307.584 
L 343.105027 307.584 
L 343.105027 54.144 
L 338.330696 54.144 
z
" clip-path="url(#p459ddf9bac)" style="fill: #1f77b4"/>
   </g>
   <g id="patch_61">
    <path d="M 343.105027 307.584 
L 347.879358 307.584 
L 347.879358 231.552 
L 343.105027 231.552 
z
" clip-path="url(#p459ddf9bac)" style="fill: #1f77b4"/>
   </g>
   <g id="patch_62">
    <path d="M 347.879358 307.584 
L 352.65369 307.584 
L 352.65369 104.832039 
L 347.879358 104.832039 
z
" clip-path="url(#p459ddf9bac)" style="fill: #1f77b4"/>
   </g>
   <g id="patch_63">
    <path d="M 352.65369 307.584 
L 357.428021 307.584 
L 357.428021 79.488022 
L 352.65369 79.488022 
z
" clip-path="url(#p459ddf9bac)" style="fill: #1f77b4"/>
   </g>
   <g id="patch_64">
    <path d="M 357.428021 307.584 
L 362.202353 307.584 
L 362.202353 79.488022 
L 357.428021 79.488022 
z
" clip-path="url(#p459ddf9bac)" style="fill: #1f77b4"/>
   </g>
   <g id="patch_65">
    <path d="M 362.202353 307.584 
L 366.976684 307.584 
L 366.976684 206.20801 
L 362.202353 206.20801 
z
" clip-path="url(#p459ddf9bac)" style="fill: #1f77b4"/>
   </g>
   <g id="patch_66">
    <path d="M 366.976684 307.584 
L 371.751016 307.584 
L 371.751016 180.864012 
L 366.976684 180.864012 
z
" clip-path="url(#p459ddf9bac)" style="fill: #1f77b4"/>
   </g>
   <g id="patch_67">
    <path d="M 371.751016 307.584 
L 376.525348 307.584 
L 376.525348 104.832039 
L 371.751016 104.832039 
z
" clip-path="url(#p459ddf9bac)" style="fill: #1f77b4"/>
   </g>
   <g id="patch_68">
    <path d="M 376.525348 307.584 
L 381.299679 307.584 
L 381.299679 231.552 
L 376.525348 231.552 
z
" clip-path="url(#p459ddf9bac)" style="fill: #1f77b4"/>
   </g>
   <g id="patch_69">
    <path d="M 381.299679 307.584 
L 386.07401 307.584 
L 386.07401 130.176 
L 381.299679 130.176 
z
" clip-path="url(#p459ddf9bac)" style="fill: #1f77b4"/>
   </g>
   <g id="patch_70">
    <path d="M 386.07401 307.584 
L 390.848343 307.584 
L 390.848343 130.176069 
L 386.07401 130.176069 
z
" clip-path="url(#p459ddf9bac)" style="fill: #1f77b4"/>
   </g>
   <g id="patch_71">
    <path d="M 390.848343 307.584 
L 395.622675 307.584 
L 395.622675 54.144098 
L 390.848343 54.144098 
z
" clip-path="url(#p459ddf9bac)" style="fill: #1f77b4"/>
   </g>
   <g id="patch_72">
    <path d="M 395.622675 307.584 
L 400.397006 307.584 
L 400.397006 256.896 
L 395.622675 256.896 
z
" clip-path="url(#p459ddf9bac)" style="fill: #1f77b4"/>
   </g>
   <g id="patch_73">
    <path d="M 400.397006 307.584 
L 405.171337 307.584 
L 405.171337 54.144 
L 400.397006 54.144 
z
" clip-path="url(#p459ddf9bac)" style="fill: #1f77b4"/>
   </g>
   <g id="patch_74">
    <path d="M 405.171337 307.584 
L 409.945668 307.584 
L 409.945668 256.896 
L 405.171337 256.896 
z
" clip-path="url(#p459ddf9bac)" style="fill: #1f77b4"/>
   </g>
   <g id="matplotlib.axis_5">
    <g id="xtick_7">
     <g id="line2d_30">
      <g>
       <use xlink:href="#m53a352d63b" x="323.019547" y="307.584" style="stroke: #000000; stroke-width: 0.8"/>
      </g>
     </g>
     <g id="text_30">
      <!-- −2.5 -->
      <g transform="translate(310.87814 322.182437) scale(0.1 -0.1)">
       <defs>
        <path id="DejaVuSans-35" d="M 691 4666 
L 3169 4666 
L 3169 4134 
L 1269 4134 
L 1269 2991 
Q 1406 3038 1543 3061 
Q 1681 3084 1819 3084 
Q 2600 3084 3056 2656 
Q 3513 2228 3513 1497 
Q 3513 744 3044 326 
Q 2575 -91 1722 -91 
Q 1428 -91 1123 -41 
Q 819 9 494 109 
L 494 744 
Q 775 591 1075 516 
Q 1375 441 1709 441 
Q 2250 441 2565 725 
Q 2881 1009 2881 1497 
Q 2881 1984 2565 2268 
Q 2250 2553 1709 2553 
Q 1456 2553 1204 2497 
Q 953 2441 691 2322 
L 691 4666 
z
" transform="scale(0.015625)"/>
       </defs>
       <use xlink:href="#DejaVuSans-2212"/>
       <use xlink:href="#DejaVuSans-32" x="83.789062"/>
       <use xlink:href="#DejaVuSans-2e" x="147.412109"/>
       <use xlink:href="#DejaVuSans-35" x="179.199219"/>
      </g>
     </g>
    </g>
    <g id="xtick_8">
     <g id="line2d_31">
      <g>
       <use xlink:href="#m53a352d63b" x="361.794403" y="307.584" style="stroke: #000000; stroke-width: 0.8"/>
      </g>
     </g>
     <g id="text_31">
      <!-- 0.0 -->
      <g transform="translate(353.842841 322.182437) scale(0.1 -0.1)">
       <use xlink:href="#DejaVuSans-30"/>
       <use xlink:href="#DejaVuSans-2e" x="63.623047"/>
       <use xlink:href="#DejaVuSans-30" x="95.410156"/>
      </g>
     </g>
    </g>
    <g id="xtick_9">
     <g id="line2d_32">
      <g>
       <use xlink:href="#m53a352d63b" x="400.56926" y="307.584" style="stroke: #000000; stroke-width: 0.8"/>
      </g>
     </g>
     <g id="text_32">
      <!-- 2.5 -->
      <g transform="translate(392.617698 322.182437) scale(0.1 -0.1)">
       <use xlink:href="#DejaVuSans-32"/>
       <use xlink:href="#DejaVuSans-2e" x="63.623047"/>
       <use xlink:href="#DejaVuSans-35" x="95.410156"/>
      </g>
     </g>
    </g>
    <g id="text_33">
     <!-- $\Phi$ -->
     <g transform="translate(358.252353 335.860562) scale(0.1 -0.1)">
      <defs>
       <path id="DejaVuSans-3a6" d="M 2206 3644 
Q 1738 3578 1431 3306 
Q 1025 2947 1025 2328 
Q 1025 1713 1431 1353 
Q 1738 1081 2206 1016 
L 2206 3644 
z
M 2838 1016 
Q 3306 1081 3613 1353 
Q 4013 1713 4013 2328 
Q 4013 2947 3613 3306 
Q 3306 3578 2838 3644 
L 2838 1016 
z
M 2206 494 
Q 1444 563 950 981 
Q 359 1481 359 2328 
Q 359 3175 950 3678 
Q 1441 4100 2206 4169 
L 2206 4666 
L 2838 4666 
L 2838 4169 
Q 3600 4097 4091 3678 
Q 4678 3175 4678 2328 
Q 4678 1484 4091 981 
Q 3600 563 2838 491 
L 2838 0 
L 2206 0 
L 2206 494 
z
" transform="scale(0.015625)"/>
      </defs>
      <use xlink:href="#DejaVuSans-3a6" transform="translate(0 0.09375)"/>
     </g>
    </g>
   </g>
   <g id="matplotlib.axis_6">
    <g id="ytick_16">
     <g id="line2d_33">
      <g>
       <use xlink:href="#m302ef24f2f" x="309.684706" y="307.584" style="stroke: #000000; stroke-width: 0.8"/>
      </g>
     </g>
     <g id="text_34">
      <!-- 0.00 -->
      <g transform="translate(280.419081 311.383219) scale(0.1 -0.1)">
       <use xlink:href="#DejaVuSans-30"/>
       <use xlink:href="#DejaVuSans-2e" x="63.623047"/>
       <use xlink:href="#DejaVuSans-30" x="95.410156"/>
       <use xlink:href="#DejaVuSans-30" x="159.033203"/>
      </g>
     </g>
    </g>
    <g id="ytick_17">
     <g id="line2d_34">
      <g>
       <use xlink:href="#m302ef24f2f" x="309.684706" y="258.044546" style="stroke: #000000; stroke-width: 0.8"/>
      </g>
     </g>
     <g id="text_35">
      <!-- 0.05 -->
      <g transform="translate(280.419081 261.843765) scale(0.1 -0.1)">
       <use xlink:href="#DejaVuSans-30"/>
       <use xlink:href="#DejaVuSans-2e" x="63.623047"/>
       <use xlink:href="#DejaVuSans-30" x="95.410156"/>
       <use xlink:href="#DejaVuSans-35" x="159.033203"/>
      </g>
     </g>
    </g>
    <g id="ytick_18">
     <g id="line2d_35">
      <g>
       <use xlink:href="#m302ef24f2f" x="309.684706" y="208.505092" style="stroke: #000000; stroke-width: 0.8"/>
      </g>
     </g>
     <g id="text_36">
      <!-- 0.10 -->
      <g transform="translate(280.419081 212.304311) scale(0.1 -0.1)">
       <use xlink:href="#DejaVuSans-30"/>
       <use xlink:href="#DejaVuSans-2e" x="63.623047"/>
       <use xlink:href="#DejaVuSans-31" x="95.410156"/>
       <use xlink:href="#DejaVuSans-30" x="159.033203"/>
      </g>
     </g>
    </g>
    <g id="ytick_19">
     <g id="line2d_36">
      <g>
       <use xlink:href="#m302ef24f2f" x="309.684706" y="158.965638" style="stroke: #000000; stroke-width: 0.8"/>
      </g>
     </g>
     <g id="text_37">
      <!-- 0.15 -->
      <g transform="translate(280.419081 162.764857) scale(0.1 -0.1)">
       <use xlink:href="#DejaVuSans-30"/>
       <use xlink:href="#DejaVuSans-2e" x="63.623047"/>
       <use xlink:href="#DejaVuSans-31" x="95.410156"/>
       <use xlink:href="#DejaVuSans-35" x="159.033203"/>
      </g>
     </g>
    </g>
    <g id="ytick_20">
     <g id="line2d_37">
      <g>
       <use xlink:href="#m302ef24f2f" x="309.684706" y="109.426184" style="stroke: #000000; stroke-width: 0.8"/>
      </g>
     </g>
     <g id="text_38">
      <!-- 0.20 -->
      <g transform="translate(280.419081 113.225402) scale(0.1 -0.1)">
       <use xlink:href="#DejaVuSans-30"/>
       <use xlink:href="#DejaVuSans-2e" x="63.623047"/>
       <use xlink:href="#DejaVuSans-32" x="95.410156"/>
       <use xlink:href="#DejaVuSans-30" x="159.033203"/>
      </g>
     </g>
    </g>
    <g id="ytick_21">
     <g id="line2d_38">
      <g>
       <use xlink:href="#m302ef24f2f" x="309.684706" y="59.88673" style="stroke: #000000; stroke-width: 0.8"/>
      </g>
     </g>
     <g id="text_39">
      <!-- 0.25 -->
      <g transform="translate(280.419081 63.685948) scale(0.1 -0.1)">
       <use xlink:href="#DejaVuSans-30"/>
       <use xlink:href="#DejaVuSans-2e" x="63.623047"/>
       <use xlink:href="#DejaVuSans-32" x="95.410156"/>
       <use xlink:href="#DejaVuSans-35" x="159.033203"/>
      </g>
     </g>
    </g>
    <g id="text_40">
     <!-- frequency -->
     <g transform="translate(274.339393 199.604562) rotate(-90) scale(0.1 -0.1)">
      <use xlink:href="#DejaVuSans-66"/>
      <use xlink:href="#DejaVuSans-72" x="35.205078"/>
      <use xlink:href="#DejaVuSans-65" x="74.068359"/>
      <use xlink:href="#DejaVuSans-71" x="135.591797"/>
      <use xlink:href="#DejaVuSans-75" x="199.068359"/>
      <use xlink:href="#DejaVuSans-65" x="262.447266"/>
      <use xlink:href="#DejaVuSans-6e" x="323.970703"/>
      <use xlink:href="#DejaVuSans-63" x="387.349609"/>
      <use xlink:href="#DejaVuSans-79" x="442.330078"/>
     </g>
    </g>
   </g>
   <g id="line2d_39">
    <g clip-path="url(#p459ddf9bac)">
     <use xlink:href="#m7c7bd1843e" x="316.846203" y="206.208" style="fill: #ff7f0e; stroke: #ff7f0e"/>
     <use xlink:href="#m7c7bd1843e" x="321.620534" y="206.208" style="fill: #ff7f0e; stroke: #ff7f0e"/>
     <use xlink:href="#m7c7bd1843e" x="326.394865" y="79.488" style="fill: #ff7f0e; stroke: #ff7f0e"/>
     <use xlink:href="#m7c7bd1843e" x="331.169197" y="130.176069" style="fill: #ff7f0e; stroke: #ff7f0e"/>
     <use xlink:href="#m7c7bd1843e" x="335.94353" y="155.520059" style="fill: #ff7f0e; stroke: #ff7f0e"/>
     <use xlink:href="#m7c7bd1843e" x="340.717862" y="54.144" style="fill: #ff7f0e; stroke: #ff7f0e"/>
     <use xlink:href="#m7c7bd1843e" x="345.492193" y="231.552" style="fill: #ff7f0e; stroke: #ff7f0e"/>
     <use xlink:href="#m7c7bd1843e" x="350.266524" y="104.832039" style="fill: #ff7f0e; stroke: #ff7f0e"/>
     <use xlink:href="#m7c7bd1843e" x="355.040856" y="79.488022" style="fill: #ff7f0e; stroke: #ff7f0e"/>
     <use xlink:href="#m7c7bd1843e" x="359.815187" y="79.488022" style="fill: #ff7f0e; stroke: #ff7f0e"/>
     <use xlink:href="#m7c7bd1843e" x="364.589519" y="206.20801" style="fill: #ff7f0e; stroke: #ff7f0e"/>
     <use xlink:href="#m7c7bd1843e" x="369.36385" y="180.864012" style="fill: #ff7f0e; stroke: #ff7f0e"/>
     <use xlink:href="#m7c7bd1843e" x="374.138182" y="104.832039" style="fill: #ff7f0e; stroke: #ff7f0e"/>
     <use xlink:href="#m7c7bd1843e" x="378.912513" y="231.552" style="fill: #ff7f0e; stroke: #ff7f0e"/>
     <use xlink:href="#m7c7bd1843e" x="383.686844" y="130.176" style="fill: #ff7f0e; stroke: #ff7f0e"/>
     <use xlink:href="#m7c7bd1843e" x="388.461176" y="130.176069" style="fill: #ff7f0e; stroke: #ff7f0e"/>
     <use xlink:href="#m7c7bd1843e" x="393.235509" y="54.144098" style="fill: #ff7f0e; stroke: #ff7f0e"/>
     <use xlink:href="#m7c7bd1843e" x="398.009841" y="256.896" style="fill: #ff7f0e; stroke: #ff7f0e"/>
     <use xlink:href="#m7c7bd1843e" x="402.784172" y="54.144" style="fill: #ff7f0e; stroke: #ff7f0e"/>
     <use xlink:href="#m7c7bd1843e" x="407.558503" y="256.896" style="fill: #ff7f0e; stroke: #ff7f0e"/>
    </g>
   </g>
   <g id="line2d_40">
    <path d="M 316.846203 172.158167 
L 321.620534 162.768935 
L 326.394865 154.497069 
L 331.169197 147.342544 
L 335.94353 141.305376 
L 340.717862 136.38556 
L 345.492193 132.583098 
L 350.266524 129.897989 
L 355.040856 128.330232 
L 359.815187 127.879828 
L 364.589519 128.546776 
L 369.36385 130.331077 
L 374.138182 133.232732 
L 378.912513 137.251738 
L 383.686844 142.388096 
L 388.461176 148.64181 
L 393.235509 156.012874 
L 398.009841 164.50129 
L 402.784172 174.107067 
L 407.558503 184.83018 
" clip-path="url(#p459ddf9bac)" style="fill: none; stroke: #2ca02c; stroke-width: 1.5; stroke-linecap: square"/>
   </g>
   <g id="patch_75">
    <path d="M 309.684706 307.584 
L 309.684706 41.472 
" style="fill: none; stroke: #000000; stroke-width: 0.8; stroke-linejoin: miter; stroke-linecap: square"/>
   </g>
   <g id="patch_76">
    <path d="M 414.72 307.584 
L 414.72 41.472 
" style="fill: none; stroke: #000000; stroke-width: 0.8; stroke-linejoin: miter; stroke-linecap: square"/>
   </g>
   <g id="patch_77">
    <path d="M 309.684706 307.584 
L 414.72 307.584 
" style="fill: none; stroke: #000000; stroke-width: 0.8; stroke-linejoin: miter; stroke-linecap: square"/>
   </g>
   <g id="patch_78">
    <path d="M 309.684706 41.472 
L 414.72 41.472 
" style="fill: none; stroke: #000000; stroke-width: 0.8; stroke-linejoin: miter; stroke-linecap: square"/>
   </g>
   <g id="legend_3">
    <g id="patch_79">
     <path d="M 300.623125 78.82825 
L 407.72 78.82825 
Q 409.72 78.82825 409.72 76.82825 
L 409.72 48.472 
Q 409.72 46.472 407.72 46.472 
L 300.623125 46.472 
Q 298.623125 46.472 298.623125 48.472 
L 298.623125 76.82825 
Q 298.623125 78.82825 300.623125 78.82825 
z
" style="fill: #ffffff; opacity: 0.8; stroke: #cccccc; stroke-linejoin: miter"/>
    </g>
    <g id="line2d_41">
     <g>
      <use xlink:href="#m7c7bd1843e" x="312.623125" y="54.570437" style="fill: #ff7f0e; stroke: #ff7f0e"/>
     </g>
    </g>
    <g id="text_41">
     <!-- simulated data -->
     <g transform="translate(330.623125 58.070437) scale(0.1 -0.1)">
      <use xlink:href="#DejaVuSans-73"/>
      <use xlink:href="#DejaVuSans-69" x="52.099609"/>
      <use xlink:href="#DejaVuSans-6d" x="79.882812"/>
      <use xlink:href="#DejaVuSans-75" x="177.294922"/>
      <use xlink:href="#DejaVuSans-6c" x="240.673828"/>
      <use xlink:href="#DejaVuSans-61" x="268.457031"/>
      <use xlink:href="#DejaVuSans-74" x="329.736328"/>
      <use xlink:href="#DejaVuSans-65" x="368.945312"/>
      <use xlink:href="#DejaVuSans-64" x="430.46875"/>
      <use xlink:href="#DejaVuSans-20" x="493.945312"/>
      <use xlink:href="#DejaVuSans-64" x="525.732422"/>
      <use xlink:href="#DejaVuSans-61" x="589.208984"/>
      <use xlink:href="#DejaVuSans-74" x="650.488281"/>
      <use xlink:href="#DejaVuSans-61" x="689.697266"/>
     </g>
    </g>
    <g id="line2d_42">
     <path d="M 302.623125 69.248562 
L 312.623125 69.248562 
L 322.623125 69.248562 
" style="fill: none; stroke: #2ca02c; stroke-width: 1.5; stroke-linecap: square"/>
    </g>
    <g id="text_42">
     <!-- fit data -->
     <g transform="translate(330.623125 72.748562) scale(0.1 -0.1)">
      <use xlink:href="#DejaVuSans-66"/>
      <use xlink:href="#DejaVuSans-69" x="35.205078"/>
      <use xlink:href="#DejaVuSans-74" x="62.988281"/>
      <use xlink:href="#DejaVuSans-20" x="102.197266"/>
      <use xlink:href="#DejaVuSans-64" x="133.984375"/>
      <use xlink:href="#DejaVuSans-61" x="197.460938"/>
      <use xlink:href="#DejaVuSans-74" x="258.740234"/>
      <use xlink:href="#DejaVuSans-61" x="297.949219"/>
     </g>
    </g>
   </g>
  </g>
  <g id="text_43">
   <!-- background fit for bin 0 -->
   <g transform="translate(149.918438 16.030125) scale(0.12 -0.12)">
    <defs>
     <path id="DejaVuSans-Bold-62" d="M 2400 722 
Q 2759 722 2948 984 
Q 3138 1247 3138 1747 
Q 3138 2247 2948 2509 
Q 2759 2772 2400 2772 
Q 2041 2772 1848 2508 
Q 1656 2244 1656 1747 
Q 1656 1250 1848 986 
Q 2041 722 2400 722 
z
M 1656 2988 
Q 1888 3294 2169 3439 
Q 2450 3584 2816 3584 
Q 3463 3584 3878 3070 
Q 4294 2556 4294 1747 
Q 4294 938 3878 423 
Q 3463 -91 2816 -91 
Q 2450 -91 2169 54 
Q 1888 200 1656 506 
L 1656 0 
L 538 0 
L 538 4863 
L 1656 4863 
L 1656 2988 
z
" transform="scale(0.015625)"/>
     <path id="DejaVuSans-Bold-61" d="M 2106 1575 
Q 1756 1575 1579 1456 
Q 1403 1338 1403 1106 
Q 1403 894 1545 773 
Q 1688 653 1941 653 
Q 2256 653 2472 879 
Q 2688 1106 2688 1447 
L 2688 1575 
L 2106 1575 
z
M 3816 1997 
L 3816 0 
L 2688 0 
L 2688 519 
Q 2463 200 2181 54 
Q 1900 -91 1497 -91 
Q 953 -91 614 226 
Q 275 544 275 1050 
Q 275 1666 698 1953 
Q 1122 2241 2028 2241 
L 2688 2241 
L 2688 2328 
Q 2688 2594 2478 2717 
Q 2269 2841 1825 2841 
Q 1466 2841 1156 2769 
Q 847 2697 581 2553 
L 581 3406 
Q 941 3494 1303 3539 
Q 1666 3584 2028 3584 
Q 2975 3584 3395 3211 
Q 3816 2838 3816 1997 
z
" transform="scale(0.015625)"/>
     <path id="DejaVuSans-Bold-63" d="M 3366 3391 
L 3366 2478 
Q 3138 2634 2908 2709 
Q 2678 2784 2431 2784 
Q 1963 2784 1702 2511 
Q 1441 2238 1441 1747 
Q 1441 1256 1702 982 
Q 1963 709 2431 709 
Q 2694 709 2930 787 
Q 3166 866 3366 1019 
L 3366 103 
Q 3103 6 2833 -42 
Q 2563 -91 2291 -91 
Q 1344 -91 809 395 
Q 275 881 275 1747 
Q 275 2613 809 3098 
Q 1344 3584 2291 3584 
Q 2566 3584 2833 3536 
Q 3100 3488 3366 3391 
z
" transform="scale(0.015625)"/>
     <path id="DejaVuSans-Bold-6b" d="M 538 4863 
L 1656 4863 
L 1656 2216 
L 2944 3500 
L 4244 3500 
L 2534 1894 
L 4378 0 
L 3022 0 
L 1656 1459 
L 1656 0 
L 538 0 
L 538 4863 
z
" transform="scale(0.015625)"/>
     <path id="DejaVuSans-Bold-67" d="M 2919 594 
Q 2688 288 2409 144 
Q 2131 0 1766 0 
Q 1125 0 706 504 
Q 288 1009 288 1791 
Q 288 2575 706 3076 
Q 1125 3578 1766 3578 
Q 2131 3578 2409 3434 
Q 2688 3291 2919 2981 
L 2919 3500 
L 4044 3500 
L 4044 353 
Q 4044 -491 3511 -936 
Q 2978 -1381 1966 -1381 
Q 1638 -1381 1331 -1331 
Q 1025 -1281 716 -1178 
L 716 -306 
Q 1009 -475 1290 -558 
Q 1572 -641 1856 -641 
Q 2406 -641 2662 -400 
Q 2919 -159 2919 353 
L 2919 594 
z
M 2181 2772 
Q 1834 2772 1640 2515 
Q 1447 2259 1447 1791 
Q 1447 1309 1634 1061 
Q 1822 813 2181 813 
Q 2531 813 2725 1069 
Q 2919 1325 2919 1791 
Q 2919 2259 2725 2515 
Q 2531 2772 2181 2772 
z
" transform="scale(0.015625)"/>
     <path id="DejaVuSans-Bold-72" d="M 3138 2547 
Q 2991 2616 2845 2648 
Q 2700 2681 2553 2681 
Q 2122 2681 1889 2404 
Q 1656 2128 1656 1613 
L 1656 0 
L 538 0 
L 538 3500 
L 1656 3500 
L 1656 2925 
Q 1872 3269 2151 3426 
Q 2431 3584 2822 3584 
Q 2878 3584 2943 3579 
Q 3009 3575 3134 3559 
L 3138 2547 
z
" transform="scale(0.015625)"/>
     <path id="DejaVuSans-Bold-6f" d="M 2203 2784 
Q 1831 2784 1636 2517 
Q 1441 2250 1441 1747 
Q 1441 1244 1636 976 
Q 1831 709 2203 709 
Q 2569 709 2762 976 
Q 2956 1244 2956 1747 
Q 2956 2250 2762 2517 
Q 2569 2784 2203 2784 
z
M 2203 3584 
Q 3106 3584 3614 3096 
Q 4122 2609 4122 1747 
Q 4122 884 3614 396 
Q 3106 -91 2203 -91 
Q 1297 -91 786 396 
Q 275 884 275 1747 
Q 275 2609 786 3096 
Q 1297 3584 2203 3584 
z
" transform="scale(0.015625)"/>
     <path id="DejaVuSans-Bold-75" d="M 500 1363 
L 500 3500 
L 1625 3500 
L 1625 3150 
Q 1625 2866 1622 2436 
Q 1619 2006 1619 1863 
Q 1619 1441 1641 1255 
Q 1663 1069 1716 984 
Q 1784 875 1895 815 
Q 2006 756 2150 756 
Q 2500 756 2700 1025 
Q 2900 1294 2900 1772 
L 2900 3500 
L 4019 3500 
L 4019 0 
L 2900 0 
L 2900 506 
Q 2647 200 2364 54 
Q 2081 -91 1741 -91 
Q 1134 -91 817 281 
Q 500 653 500 1363 
z
" transform="scale(0.015625)"/>
     <path id="DejaVuSans-Bold-6e" d="M 4056 2131 
L 4056 0 
L 2931 0 
L 2931 347 
L 2931 1631 
Q 2931 2084 2911 2256 
Q 2891 2428 2841 2509 
Q 2775 2619 2662 2680 
Q 2550 2741 2406 2741 
Q 2056 2741 1856 2470 
Q 1656 2200 1656 1722 
L 1656 0 
L 538 0 
L 538 3500 
L 1656 3500 
L 1656 2988 
Q 1909 3294 2193 3439 
Q 2478 3584 2822 3584 
Q 3428 3584 3742 3212 
Q 4056 2841 4056 2131 
z
" transform="scale(0.015625)"/>
     <path id="DejaVuSans-Bold-64" d="M 2919 2988 
L 2919 4863 
L 4044 4863 
L 4044 0 
L 2919 0 
L 2919 506 
Q 2688 197 2409 53 
Q 2131 -91 1766 -91 
Q 1119 -91 703 423 
Q 288 938 288 1747 
Q 288 2556 703 3070 
Q 1119 3584 1766 3584 
Q 2128 3584 2408 3439 
Q 2688 3294 2919 2988 
z
M 2181 722 
Q 2541 722 2730 984 
Q 2919 1247 2919 1747 
Q 2919 2247 2730 2509 
Q 2541 2772 2181 2772 
Q 1825 2772 1636 2509 
Q 1447 2247 1447 1747 
Q 1447 1247 1636 984 
Q 1825 722 2181 722 
z
" transform="scale(0.015625)"/>
     <path id="DejaVuSans-Bold-20" transform="scale(0.015625)"/>
     <path id="DejaVuSans-Bold-66" d="M 2841 4863 
L 2841 4128 
L 2222 4128 
Q 1984 4128 1890 4042 
Q 1797 3956 1797 3744 
L 1797 3500 
L 2753 3500 
L 2753 2700 
L 1797 2700 
L 1797 0 
L 678 0 
L 678 2700 
L 122 2700 
L 122 3500 
L 678 3500 
L 678 3744 
Q 678 4316 997 4589 
Q 1316 4863 1984 4863 
L 2841 4863 
z
" transform="scale(0.015625)"/>
     <path id="DejaVuSans-Bold-69" d="M 538 3500 
L 1656 3500 
L 1656 0 
L 538 0 
L 538 3500 
z
M 538 4863 
L 1656 4863 
L 1656 3950 
L 538 3950 
L 538 4863 
z
" transform="scale(0.015625)"/>
     <path id="DejaVuSans-Bold-74" d="M 1759 4494 
L 1759 3500 
L 2913 3500 
L 2913 2700 
L 1759 2700 
L 1759 1216 
Q 1759 972 1856 886 
Q 1953 800 2241 800 
L 2816 800 
L 2816 0 
L 1856 0 
Q 1194 0 917 276 
Q 641 553 641 1216 
L 641 2700 
L 84 2700 
L 84 3500 
L 641 3500 
L 641 4494 
L 1759 4494 
z
" transform="scale(0.015625)"/>
     <path id="DejaVuSans-Bold-30" d="M 2944 2338 
Q 2944 3213 2780 3570 
Q 2616 3928 2228 3928 
Q 1841 3928 1675 3570 
Q 1509 3213 1509 2338 
Q 1509 1453 1675 1090 
Q 1841 728 2228 728 
Q 2613 728 2778 1090 
Q 2944 1453 2944 2338 
z
M 4147 2328 
Q 4147 1169 3647 539 
Q 3147 -91 2228 -91 
Q 1306 -91 806 539 
Q 306 1169 306 2328 
Q 306 3491 806 4120 
Q 1306 4750 2228 4750 
Q 3147 4750 3647 4120 
Q 4147 3491 4147 2328 
z
" transform="scale(0.015625)"/>
    </defs>
    <use xlink:href="#DejaVuSans-Bold-62"/>
    <use xlink:href="#DejaVuSans-Bold-61" x="71.582031"/>
    <use xlink:href="#DejaVuSans-Bold-63" x="139.0625"/>
    <use xlink:href="#DejaVuSans-Bold-6b" x="198.339844"/>
    <use xlink:href="#DejaVuSans-Bold-67" x="264.84375"/>
    <use xlink:href="#DejaVuSans-Bold-72" x="336.425781"/>
    <use xlink:href="#DejaVuSans-Bold-6f" x="385.742188"/>
    <use xlink:href="#DejaVuSans-Bold-75" x="454.443359"/>
    <use xlink:href="#DejaVuSans-Bold-6e" x="525.634766"/>
    <use xlink:href="#DejaVuSans-Bold-64" x="596.826172"/>
    <use xlink:href="#DejaVuSans-Bold-20" x="668.408203"/>
    <use xlink:href="#DejaVuSans-Bold-66" x="703.222656"/>
    <use xlink:href="#DejaVuSans-Bold-69" x="746.728516"/>
    <use xlink:href="#DejaVuSans-Bold-74" x="781.005859"/>
    <use xlink:href="#DejaVuSans-Bold-20" x="828.808594"/>
    <use xlink:href="#DejaVuSans-Bold-66" x="863.623047"/>
    <use xlink:href="#DejaVuSans-Bold-6f" x="907.128906"/>
    <use xlink:href="#DejaVuSans-Bold-72" x="975.830078"/>
    <use xlink:href="#DejaVuSans-Bold-20" x="1025.146484"/>
    <use xlink:href="#DejaVuSans-Bold-62" x="1059.960938"/>
    <use xlink:href="#DejaVuSans-Bold-69" x="1131.542969"/>
    <use xlink:href="#DejaVuSans-Bold-6e" x="1165.820312"/>
    <use xlink:href="#DejaVuSans-Bold-20" x="1237.011719"/>
    <use xlink:href="#DejaVuSans-Bold-30" x="1271.826172"/>
   </g>
  </g>
 </g>
 <defs>
  <clipPath id="p02cb23655c">
   <rect x="57.6" y="41.472" width="105.035294" height="266.112"/>
  </clipPath>
  <clipPath id="p347fa24b84">
   <rect x="183.642353" y="41.472" width="105.035294" height="266.112"/>
  </clipPath>
  <clipPath id="p459ddf9bac">
   <rect x="309.684706" y="41.472" width="105.035294" height="266.112"/>
  </clipPath>
 </defs>
</svg>
