<?xml version="1.0" encoding="utf-8" standalone="no"?>
<!DOCTYPE svg PUBLIC "-//W3C//DTD SVG 1.1//EN"
  "http://www.w3.org/Graphics/SVG/1.1/DTD/svg11.dtd">
<svg xmlns:xlink="http://www.w3.org/1999/xlink" width="576pt" height="360pt" viewBox="0 0 576 360" xmlns="http://www.w3.org/2000/svg" version="1.1">
 <metadata>
  <rdf:RDF xmlns:dc="http://purl.org/dc/elements/1.1/" xmlns:cc="http://creativecommons.org/ns#" xmlns:rdf="http://www.w3.org/1999/02/22-rdf-syntax-ns#">
   <cc:Work>
    <dc:type rdf:resource="http://purl.org/dc/dcmitype/StillImage"/>
    <dc:date>2023-03-17T15:04:36.127867</dc:date>
    <dc:format>image/svg+xml</dc:format>
    <dc:creator>
     <cc:Agent>
      <dc:title>Matplotlib v3.5.2, https://matplotlib.org/</dc:title>
     </cc:Agent>
    </dc:creator>
   </cc:Work>
  </rdf:RDF>
 </metadata>
 <defs>
  <style type="text/css">*{stroke-linejoin: round; stroke-linecap: butt}</style>
 </defs>
 <g id="figure_1">
  <g id="patch_1">
   <path d="M 0 360 
L 576 360 
L 576 0 
L 0 0 
z
" style="fill: #ffffff"/>
  </g>
  <g id="axes_1">
   <g id="patch_2">
    <path d="M 61.3749 300.052687 
L 565.2 300.052687 
L 565.2 10.8 
L 61.3749 10.8 
z
" style="fill: #eeeeee"/>
   </g>
   <g id="patch_3">
    <path d="M 84.276041 59840.171428 
L 96.020216 59840.171428 
L 96.020216 113.334661 
L 84.276041 113.334661 
z
" clip-path="url(#pf01d7fda4b)" style="fill: #348abd; opacity: 0.7"/>
   </g>
   <g id="patch_4">
    <path d="M 96.020216 59840.171428 
L 107.764391 59840.171428 
L 107.764391 109.957317 
L 96.020216 109.957317 
z
" clip-path="url(#pf01d7fda4b)" style="fill: #348abd; opacity: 0.7"/>
   </g>
   <g id="patch_5">
    <path d="M 107.764391 59840.171428 
L 119.508565 59840.171428 
L 119.508565 106.364643 
L 107.764391 106.364643 
z
" clip-path="url(#pf01d7fda4b)" style="fill: #348abd; opacity: 0.7"/>
   </g>
   <g id="patch_6">
    <path d="M 119.508565 59840.171428 
L 131.25274 59840.171428 
L 131.25274 99.053771 
L 119.508565 99.053771 
z
" clip-path="url(#pf01d7fda4b)" style="fill: #348abd; opacity: 0.7"/>
   </g>
   <g id="patch_7">
    <path d="M 131.25274 59840.171428 
L 142.996915 59840.171428 
L 142.996915 89.56798 
L 131.25274 89.56798 
z
" clip-path="url(#pf01d7fda4b)" style="fill: #348abd; opacity: 0.7"/>
   </g>
   <g id="patch_8">
    <path d="M 142.996915 59840.171428 
L 154.74109 59840.171428 
L 154.74109 71.620034 
L 142.996915 71.620034 
z
" clip-path="url(#pf01d7fda4b)" style="fill: #348abd; opacity: 0.7"/>
   </g>
   <g id="patch_9">
    <path d="M 154.74109 59840.171428 
L 166.485265 59840.171428 
L 166.485265 47.229228 
L 154.74109 47.229228 
z
" clip-path="url(#pf01d7fda4b)" style="fill: #348abd; opacity: 0.7"/>
   </g>
   <g id="patch_10">
    <path d="M 166.485265 59840.171428 
L 178.22944 59840.171428 
L 178.22944 27.796222 
L 166.485265 27.796222 
z
" clip-path="url(#pf01d7fda4b)" style="fill: #348abd; opacity: 0.7"/>
   </g>
   <g id="patch_11">
    <path d="M 178.22944 59840.171428 
L 189.973614 59840.171428 
L 189.973614 23.947849 
L 178.22944 23.947849 
z
" clip-path="url(#pf01d7fda4b)" style="fill: #348abd; opacity: 0.7"/>
   </g>
   <g id="patch_12">
    <path d="M 189.973614 59840.171428 
L 201.717789 59840.171428 
L 201.717789 39.365706 
L 189.973614 39.365706 
z
" clip-path="url(#pf01d7fda4b)" style="fill: #348abd; opacity: 0.7"/>
   </g>
   <g id="patch_13">
    <path d="M 201.717789 59840.171428 
L 213.461964 59840.171428 
L 213.461964 68.202981 
L 201.717789 68.202981 
z
" clip-path="url(#pf01d7fda4b)" style="fill: #348abd; opacity: 0.7"/>
   </g>
   <g id="patch_14">
    <path d="M 213.461964 59840.171428 
L 225.206139 59840.171428 
L 225.206139 96.061811 
L 213.461964 96.061811 
z
" clip-path="url(#pf01d7fda4b)" style="fill: #348abd; opacity: 0.7"/>
   </g>
   <g id="patch_15">
    <path d="M 225.206139 59840.171428 
L 236.950314 59840.171428 
L 236.950314 114.500441 
L 225.206139 114.500441 
z
" clip-path="url(#pf01d7fda4b)" style="fill: #348abd; opacity: 0.7"/>
   </g>
   <g id="patch_16">
    <path d="M 236.950314 59840.171428 
L 248.694488 59840.171428 
L 248.694488 124.807799 
L 236.950314 124.807799 
z
" clip-path="url(#pf01d7fda4b)" style="fill: #348abd; opacity: 0.7"/>
   </g>
   <g id="patch_17">
    <path d="M 248.694488 59840.171428 
L 260.438663 59840.171428 
L 260.438663 130.94159 
L 248.694488 130.94159 
z
" clip-path="url(#pf01d7fda4b)" style="fill: #348abd; opacity: 0.7"/>
   </g>
   <g id="patch_18">
    <path d="M 260.438663 59840.171428 
L 272.182838 59840.171428 
L 272.182838 133.663003 
L 260.438663 133.663003 
z
" clip-path="url(#pf01d7fda4b)" style="fill: #348abd; opacity: 0.7"/>
   </g>
   <g id="patch_19">
    <path d="M 272.182838 59840.171428 
L 283.927013 59840.171428 
L 283.927013 135.346719 
L 272.182838 135.346719 
z
" clip-path="url(#pf01d7fda4b)" style="fill: #348abd; opacity: 0.7"/>
   </g>
   <g id="patch_20">
    <path d="M 283.927013 59840.171428 
L 295.671188 59840.171428 
L 295.671188 135.966685 
L 283.927013 135.966685 
z
" clip-path="url(#pf01d7fda4b)" style="fill: #348abd; opacity: 0.7"/>
   </g>
   <g id="patch_21">
    <path d="M 295.671188 59840.171428 
L 307.415363 59840.171428 
L 307.415363 132.694169 
L 295.671188 132.694169 
z
" clip-path="url(#pf01d7fda4b)" style="fill: #348abd; opacity: 0.7"/>
   </g>
   <g id="patch_22">
    <path d="M 307.415363 59840.171428 
L 319.159537 59840.171428 
L 319.159537 129.107111 
L 307.415363 129.107111 
z
" clip-path="url(#pf01d7fda4b)" style="fill: #348abd; opacity: 0.7"/>
   </g>
   <g id="patch_23">
    <path d="M 319.159537 59840.171428 
L 330.903712 59840.171428 
L 330.903712 127.757062 
L 319.159537 127.757062 
z
" clip-path="url(#pf01d7fda4b)" style="fill: #348abd; opacity: 0.7"/>
   </g>
   <g id="patch_24">
    <path d="M 330.903712 59840.171428 
L 342.647887 59840.171428 
L 342.647887 126.162982 
L 330.903712 126.162982 
z
" clip-path="url(#pf01d7fda4b)" style="fill: #348abd; opacity: 0.7"/>
   </g>
   <g id="patch_25">
    <path d="M 342.647887 59840.171428 
L 354.392062 59840.171428 
L 354.392062 127.430285 
L 342.647887 127.430285 
z
" clip-path="url(#pf01d7fda4b)" style="fill: #348abd; opacity: 0.7"/>
   </g>
   <g id="patch_26">
    <path d="M 354.392062 59840.171428 
L 366.136237 59840.171428 
L 366.136237 129.126367 
L 354.392062 129.126367 
z
" clip-path="url(#pf01d7fda4b)" style="fill: #348abd; opacity: 0.7"/>
   </g>
   <g id="patch_27">
    <path d="M 366.136237 59840.171428 
L 377.880412 59840.171428 
L 377.880412 129.416944 
L 366.136237 129.416944 
z
" clip-path="url(#pf01d7fda4b)" style="fill: #348abd; opacity: 0.7"/>
   </g>
   <g id="patch_28">
    <path d="M 377.880412 59840.171428 
L 389.624586 59840.171428 
L 389.624586 130.308799 
L 377.880412 130.308799 
z
" clip-path="url(#pf01d7fda4b)" style="fill: #348abd; opacity: 0.7"/>
   </g>
   <g id="patch_29">
    <path d="M 389.624586 59840.171428 
L 401.368761 59840.171428 
L 401.368761 132.060687 
L 389.624586 132.060687 
z
" clip-path="url(#pf01d7fda4b)" style="fill: #348abd; opacity: 0.7"/>
   </g>
   <g id="patch_30">
    <path d="M 401.368761 59840.171428 
L 413.112936 59840.171428 
L 413.112936 133.731971 
L 401.368761 133.731971 
z
" clip-path="url(#pf01d7fda4b)" style="fill: #348abd; opacity: 0.7"/>
   </g>
   <g id="patch_31">
    <path d="M 413.112936 59840.171428 
L 424.857111 59840.171428 
L 424.857111 134.717349 
L 413.112936 134.717349 
z
" clip-path="url(#pf01d7fda4b)" style="fill: #348abd; opacity: 0.7"/>
   </g>
   <g id="patch_32">
    <path d="M 424.857111 59840.171428 
L 436.601286 59840.171428 
L 436.601286 135.692066 
L 424.857111 135.692066 
z
" clip-path="url(#pf01d7fda4b)" style="fill: #348abd; opacity: 0.7"/>
   </g>
   <g id="patch_33">
    <path d="M 436.601286 59840.171428 
L 448.34546 59840.171428 
L 448.34546 137.4384 
L 436.601286 137.4384 
z
" clip-path="url(#pf01d7fda4b)" style="fill: #348abd; opacity: 0.7"/>
   </g>
   <g id="patch_34">
    <path d="M 448.34546 59840.171428 
L 460.089635 59840.171428 
L 460.089635 138.193237 
L 448.34546 138.193237 
z
" clip-path="url(#pf01d7fda4b)" style="fill: #348abd; opacity: 0.7"/>
   </g>
   <g id="patch_35">
    <path d="M 460.089635 59840.171428 
L 471.83381 59840.171428 
L 471.83381 140.182782 
L 460.089635 140.182782 
z
" clip-path="url(#pf01d7fda4b)" style="fill: #348abd; opacity: 0.7"/>
   </g>
   <g id="patch_36">
    <path d="M 471.83381 59840.171428 
L 483.577985 59840.171428 
L 483.577985 141.516557 
L 471.83381 141.516557 
z
" clip-path="url(#pf01d7fda4b)" style="fill: #348abd; opacity: 0.7"/>
   </g>
   <g id="patch_37">
    <path d="M 483.577985 59840.171428 
L 495.32216 59840.171428 
L 495.32216 142.46708 
L 483.577985 142.46708 
z
" clip-path="url(#pf01d7fda4b)" style="fill: #348abd; opacity: 0.7"/>
   </g>
   <g id="patch_38">
    <path d="M 495.32216 59840.171428 
L 507.066335 59840.171428 
L 507.066335 144.133335 
L 495.32216 144.133335 
z
" clip-path="url(#pf01d7fda4b)" style="fill: #348abd; opacity: 0.7"/>
   </g>
   <g id="patch_39">
    <path d="M 507.066335 59840.171428 
L 518.810509 59840.171428 
L 518.810509 144.584746 
L 507.066335 144.584746 
z
" clip-path="url(#pf01d7fda4b)" style="fill: #348abd; opacity: 0.7"/>
   </g>
   <g id="patch_40">
    <path d="M 518.810509 59840.171428 
L 530.554684 59840.171428 
L 530.554684 147.550898 
L 518.810509 147.550898 
z
" clip-path="url(#pf01d7fda4b)" style="fill: #348abd; opacity: 0.7"/>
   </g>
   <g id="patch_41">
    <path d="M 530.554684 59840.171428 
L 542.298859 59840.171428 
L 542.298859 146.891489 
L 530.554684 146.891489 
z
" clip-path="url(#pf01d7fda4b)" style="fill: #348abd; opacity: 0.7"/>
   </g>
   <g id="patch_42">
    <path d="M 84.276041 59840.171428 
L 96.020216 59840.171428 
L 96.020216 195.998456 
L 84.276041 195.998456 
z
" clip-path="url(#pf01d7fda4b)" style="fill: #a60628; opacity: 0.7"/>
   </g>
   <g id="patch_43">
    <path d="M 96.020216 59840.171428 
L 107.764391 59840.171428 
L 107.764391 191.115127 
L 96.020216 191.115127 
z
" clip-path="url(#pf01d7fda4b)" style="fill: #a60628; opacity: 0.7"/>
   </g>
   <g id="patch_44">
    <path d="M 107.764391 59840.171428 
L 119.508565 59840.171428 
L 119.508565 191.758762 
L 107.764391 191.758762 
z
" clip-path="url(#pf01d7fda4b)" style="fill: #a60628; opacity: 0.7"/>
   </g>
   <g id="patch_45">
    <path d="M 119.508565 59840.171428 
L 131.25274 59840.171428 
L 131.25274 186.829179 
L 119.508565 186.829179 
z
" clip-path="url(#pf01d7fda4b)" style="fill: #a60628; opacity: 0.7"/>
   </g>
   <g id="patch_46">
    <path d="M 131.25274 59840.171428 
L 142.996915 59840.171428 
L 142.996915 182.998517 
L 131.25274 182.998517 
z
" clip-path="url(#pf01d7fda4b)" style="fill: #a60628; opacity: 0.7"/>
   </g>
   <g id="patch_47">
    <path d="M 142.996915 59840.171428 
L 154.74109 59840.171428 
L 154.74109 169.823978 
L 142.996915 169.823978 
z
" clip-path="url(#pf01d7fda4b)" style="fill: #a60628; opacity: 0.7"/>
   </g>
   <g id="patch_48">
    <path d="M 154.74109 59840.171428 
L 166.485265 59840.171428 
L 166.485265 154.961681 
L 154.74109 154.961681 
z
" clip-path="url(#pf01d7fda4b)" style="fill: #a60628; opacity: 0.7"/>
   </g>
   <g id="patch_49">
    <path d="M 166.485265 59840.171428 
L 178.22944 59840.171428 
L 178.22944 138.302893 
L 166.485265 138.302893 
z
" clip-path="url(#pf01d7fda4b)" style="fill: #a60628; opacity: 0.7"/>
   </g>
   <g id="patch_50">
    <path d="M 178.22944 59840.171428 
L 189.973614 59840.171428 
L 189.973614 133.457198 
L 178.22944 133.457198 
z
" clip-path="url(#pf01d7fda4b)" style="fill: #a60628; opacity: 0.7"/>
   </g>
   <g id="patch_51">
    <path d="M 189.973614 59840.171428 
L 201.717789 59840.171428 
L 201.717789 147.355202 
L 189.973614 147.355202 
z
" clip-path="url(#pf01d7fda4b)" style="fill: #a60628; opacity: 0.7"/>
   </g>
   <g id="patch_52">
    <path d="M 201.717789 59840.171428 
L 213.461964 59840.171428 
L 213.461964 162.8562 
L 201.717789 162.8562 
z
" clip-path="url(#pf01d7fda4b)" style="fill: #a60628; opacity: 0.7"/>
   </g>
   <g id="patch_53">
    <path d="M 213.461964 59840.171428 
L 225.206139 59840.171428 
L 225.206139 178.20798 
L 213.461964 178.20798 
z
" clip-path="url(#pf01d7fda4b)" style="fill: #a60628; opacity: 0.7"/>
   </g>
   <g id="patch_54">
    <path d="M 225.206139 59840.171428 
L 236.950314 59840.171428 
L 236.950314 185.261952 
L 225.206139 185.261952 
z
" clip-path="url(#pf01d7fda4b)" style="fill: #a60628; opacity: 0.7"/>
   </g>
   <g id="patch_55">
    <path d="M 236.950314 59840.171428 
L 248.694488 59840.171428 
L 248.694488 190.694772 
L 236.950314 190.694772 
z
" clip-path="url(#pf01d7fda4b)" style="fill: #a60628; opacity: 0.7"/>
   </g>
   <g id="patch_56">
    <path d="M 248.694488 59840.171428 
L 260.438663 59840.171428 
L 260.438663 194.749357 
L 248.694488 194.749357 
z
" clip-path="url(#pf01d7fda4b)" style="fill: #a60628; opacity: 0.7"/>
   </g>
   <g id="patch_57">
    <path d="M 260.438663 59840.171428 
L 272.182838 59840.171428 
L 272.182838 197.043096 
L 260.438663 197.043096 
z
" clip-path="url(#pf01d7fda4b)" style="fill: #a60628; opacity: 0.7"/>
   </g>
   <g id="patch_58">
    <path d="M 272.182838 59840.171428 
L 283.927013 59840.171428 
L 283.927013 194.027878 
L 272.182838 194.027878 
z
" clip-path="url(#pf01d7fda4b)" style="fill: #a60628; opacity: 0.7"/>
   </g>
   <g id="patch_59">
    <path d="M 283.927013 59840.171428 
L 295.671188 59840.171428 
L 295.671188 190.487129 
L 283.927013 190.487129 
z
" clip-path="url(#pf01d7fda4b)" style="fill: #a60628; opacity: 0.7"/>
   </g>
   <g id="patch_60">
    <path d="M 295.671188 59840.171428 
L 307.415363 59840.171428 
L 307.415363 191.115127 
L 295.671188 191.115127 
z
" clip-path="url(#pf01d7fda4b)" style="fill: #a60628; opacity: 0.7"/>
   </g>
   <g id="patch_61">
    <path d="M 307.415363 59840.171428 
L 319.159537 59840.171428 
L 319.159537 204.391373 
L 307.415363 204.391373 
z
" clip-path="url(#pf01d7fda4b)" style="fill: #a60628; opacity: 0.7"/>
   </g>
   <g id="patch_62">
    <path d="M 319.159537 59840.171428 
L 330.903712 59840.171428 
L 330.903712 286.904838 
L 319.159537 286.904838 
z
" clip-path="url(#pf01d7fda4b)" style="fill: #a60628; opacity: 0.7"/>
   </g>
   <g id="patch_63">
    <path d="M 330.903712 59840.171428 
L 342.647887 59840.171428 
L 342.647887 59840.171428 
L 330.903712 59840.171428 
z
" clip-path="url(#pf01d7fda4b)" style="fill: #a60628; opacity: 0.7"/>
   </g>
   <g id="patch_64">
    <path d="M 342.647887 59840.171428 
L 354.392062 59840.171428 
L 354.392062 59840.171428 
L 342.647887 59840.171428 
z
" clip-path="url(#pf01d7fda4b)" style="fill: #a60628; opacity: 0.7"/>
   </g>
   <g id="patch_65">
    <path d="M 354.392062 59840.171428 
L 366.136237 59840.171428 
L 366.136237 59840.171428 
L 354.392062 59840.171428 
z
" clip-path="url(#pf01d7fda4b)" style="fill: #a60628; opacity: 0.7"/>
   </g>
   <g id="patch_66">
    <path d="M 366.136237 59840.171428 
L 377.880412 59840.171428 
L 377.880412 59840.171428 
L 366.136237 59840.171428 
z
" clip-path="url(#pf01d7fda4b)" style="fill: #a60628; opacity: 0.7"/>
   </g>
   <g id="patch_67">
    <path d="M 377.880412 59840.171428 
L 389.624586 59840.171428 
L 389.624586 59840.171428 
L 377.880412 59840.171428 
z
" clip-path="url(#pf01d7fda4b)" style="fill: #a60628; opacity: 0.7"/>
   </g>
   <g id="patch_68">
    <path d="M 389.624586 59840.171428 
L 401.368761 59840.171428 
L 401.368761 59840.171428 
L 389.624586 59840.171428 
z
" clip-path="url(#pf01d7fda4b)" style="fill: #a60628; opacity: 0.7"/>
   </g>
   <g id="patch_69">
    <path d="M 401.368761 59840.171428 
L 413.112936 59840.171428 
L 413.112936 59840.171428 
L 401.368761 59840.171428 
z
" clip-path="url(#pf01d7fda4b)" style="fill: #a60628; opacity: 0.7"/>
   </g>
   <g id="patch_70">
    <path d="M 413.112936 59840.171428 
L 424.857111 59840.171428 
L 424.857111 59840.171428 
L 413.112936 59840.171428 
z
" clip-path="url(#pf01d7fda4b)" style="fill: #a60628; opacity: 0.7"/>
   </g>
   <g id="patch_71">
    <path d="M 424.857111 59840.171428 
L 436.601286 59840.171428 
L 436.601286 59840.171428 
L 424.857111 59840.171428 
z
" clip-path="url(#pf01d7fda4b)" style="fill: #a60628; opacity: 0.7"/>
   </g>
   <g id="patch_72">
    <path d="M 436.601286 59840.171428 
L 448.34546 59840.171428 
L 448.34546 59840.171428 
L 436.601286 59840.171428 
z
" clip-path="url(#pf01d7fda4b)" style="fill: #a60628; opacity: 0.7"/>
   </g>
   <g id="patch_73">
    <path d="M 448.34546 59840.171428 
L 460.089635 59840.171428 
L 460.089635 59840.171428 
L 448.34546 59840.171428 
z
" clip-path="url(#pf01d7fda4b)" style="fill: #a60628; opacity: 0.7"/>
   </g>
   <g id="patch_74">
    <path d="M 460.089635 59840.171428 
L 471.83381 59840.171428 
L 471.83381 59840.171428 
L 460.089635 59840.171428 
z
" clip-path="url(#pf01d7fda4b)" style="fill: #a60628; opacity: 0.7"/>
   </g>
   <g id="patch_75">
    <path d="M 471.83381 59840.171428 
L 483.577985 59840.171428 
L 483.577985 59840.171428 
L 471.83381 59840.171428 
z
" clip-path="url(#pf01d7fda4b)" style="fill: #a60628; opacity: 0.7"/>
   </g>
   <g id="patch_76">
    <path d="M 483.577985 59840.171428 
L 495.32216 59840.171428 
L 495.32216 59840.171428 
L 483.577985 59840.171428 
z
" clip-path="url(#pf01d7fda4b)" style="fill: #a60628; opacity: 0.7"/>
   </g>
   <g id="patch_77">
    <path d="M 495.32216 59840.171428 
L 507.066335 59840.171428 
L 507.066335 59840.171428 
L 495.32216 59840.171428 
z
" clip-path="url(#pf01d7fda4b)" style="fill: #a60628; opacity: 0.7"/>
   </g>
   <g id="patch_78">
    <path d="M 507.066335 59840.171428 
L 518.810509 59840.171428 
L 518.810509 59840.171428 
L 507.066335 59840.171428 
z
" clip-path="url(#pf01d7fda4b)" style="fill: #a60628; opacity: 0.7"/>
   </g>
   <g id="patch_79">
    <path d="M 518.810509 59840.171428 
L 530.554684 59840.171428 
L 530.554684 59840.171428 
L 518.810509 59840.171428 
z
" clip-path="url(#pf01d7fda4b)" style="fill: #a60628; opacity: 0.7"/>
   </g>
   <g id="patch_80">
    <path d="M 530.554684 59840.171428 
L 542.298859 59840.171428 
L 542.298859 59840.171428 
L 530.554684 59840.171428 
z
" clip-path="url(#pf01d7fda4b)" style="fill: #a60628; opacity: 0.7"/>
   </g>
   <g id="patch_81">
    <path d="M 84.276041 59840.171428 
L 96.020216 59840.171428 
L 96.020216 245.298742 
L 84.276041 245.298742 
z
" clip-path="url(#pf01d7fda4b)" style="fill: #7a68a6; opacity: 0.7"/>
   </g>
   <g id="patch_82">
    <path d="M 96.020216 59840.171428 
L 107.764391 59840.171428 
L 107.764391 234.24875 
L 96.020216 234.24875 
z
" clip-path="url(#pf01d7fda4b)" style="fill: #7a68a6; opacity: 0.7"/>
   </g>
   <g id="patch_83">
    <path d="M 107.764391 59840.171428 
L 119.508565 59840.171428 
L 119.508565 228.256372 
L 107.764391 228.256372 
z
" clip-path="url(#pf01d7fda4b)" style="fill: #7a68a6; opacity: 0.7"/>
   </g>
   <g id="patch_84">
    <path d="M 119.508565 59840.171428 
L 131.25274 59840.171428 
L 131.25274 218.073426 
L 119.508565 218.073426 
z
" clip-path="url(#pf01d7fda4b)" style="fill: #7a68a6; opacity: 0.7"/>
   </g>
   <g id="patch_85">
    <path d="M 131.25274 59840.171428 
L 142.996915 59840.171428 
L 142.996915 205.476203 
L 131.25274 205.476203 
z
" clip-path="url(#pf01d7fda4b)" style="fill: #7a68a6; opacity: 0.7"/>
   </g>
   <g id="patch_86">
    <path d="M 142.996915 59840.171428 
L 154.74109 59840.171428 
L 154.74109 183.467134 
L 142.996915 183.467134 
z
" clip-path="url(#pf01d7fda4b)" style="fill: #7a68a6; opacity: 0.7"/>
   </g>
   <g id="patch_87">
    <path d="M 154.74109 59840.171428 
L 166.485265 59840.171428 
L 166.485265 162.785277 
L 154.74109 162.785277 
z
" clip-path="url(#pf01d7fda4b)" style="fill: #7a68a6; opacity: 0.7"/>
   </g>
   <g id="patch_88">
    <path d="M 166.485265 59840.171428 
L 178.22944 59840.171428 
L 178.22944 142.759189 
L 166.485265 142.759189 
z
" clip-path="url(#pf01d7fda4b)" style="fill: #7a68a6; opacity: 0.7"/>
   </g>
   <g id="patch_89">
    <path d="M 178.22944 59840.171428 
L 189.973614 59840.171428 
L 189.973614 137.678631 
L 178.22944 137.678631 
z
" clip-path="url(#pf01d7fda4b)" style="fill: #7a68a6; opacity: 0.7"/>
   </g>
   <g id="patch_90">
    <path d="M 189.973614 59840.171428 
L 201.717789 59840.171428 
L 201.717789 153.785256 
L 189.973614 153.785256 
z
" clip-path="url(#pf01d7fda4b)" style="fill: #7a68a6; opacity: 0.7"/>
   </g>
   <g id="patch_91">
    <path d="M 201.717789 59840.171428 
L 213.461964 59840.171428 
L 213.461964 175.990794 
L 201.717789 175.990794 
z
" clip-path="url(#pf01d7fda4b)" style="fill: #7a68a6; opacity: 0.7"/>
   </g>
   <g id="patch_92">
    <path d="M 213.461964 59840.171428 
L 225.206139 59840.171428 
L 225.206139 206.225569 
L 213.461964 206.225569 
z
" clip-path="url(#pf01d7fda4b)" style="fill: #7a68a6; opacity: 0.7"/>
   </g>
   <g id="patch_93">
    <path d="M 225.206139 59840.171428 
L 236.950314 59840.171428 
L 236.950314 232.093225 
L 225.206139 232.093225 
z
" clip-path="url(#pf01d7fda4b)" style="fill: #7a68a6; opacity: 0.7"/>
   </g>
   <g id="patch_94">
    <path d="M 236.950314 59840.171428 
L 248.694488 59840.171428 
L 248.694488 232.093225 
L 236.950314 232.093225 
z
" clip-path="url(#pf01d7fda4b)" style="fill: #7a68a6; opacity: 0.7"/>
   </g>
   <g id="patch_95">
    <path d="M 248.694488 59840.171428 
L 260.438663 59840.171428 
L 260.438663 236.60049 
L 248.694488 236.60049 
z
" clip-path="url(#pf01d7fda4b)" style="fill: #7a68a6; opacity: 0.7"/>
   </g>
   <g id="patch_96">
    <path d="M 260.438663 59840.171428 
L 272.182838 59840.171428 
L 272.182838 265.001069 
L 260.438663 265.001069 
z
" clip-path="url(#pf01d7fda4b)" style="fill: #7a68a6; opacity: 0.7"/>
   </g>
   <g id="patch_97">
    <path d="M 272.182838 59840.171428 
L 283.927013 59840.171428 
L 283.927013 245.298742 
L 272.182838 245.298742 
z
" clip-path="url(#pf01d7fda4b)" style="fill: #7a68a6; opacity: 0.7"/>
   </g>
   <g id="patch_98">
    <path d="M 283.927013 59840.171428 
L 295.671188 59840.171428 
L 295.671188 273.699321 
L 283.927013 273.699321 
z
" clip-path="url(#pf01d7fda4b)" style="fill: #7a68a6; opacity: 0.7"/>
   </g>
   <g id="patch_99">
    <path d="M 295.671188 59840.171428 
L 307.415363 59840.171428 
L 307.415363 279.467877 
L 295.671188 279.467877 
z
" clip-path="url(#pf01d7fda4b)" style="fill: #7a68a6; opacity: 0.7"/>
   </g>
   <g id="patch_100">
    <path d="M 307.415363 59840.171428 
L 319.159537 59840.171428 
L 319.159537 265.001069 
L 307.415363 265.001069 
z
" clip-path="url(#pf01d7fda4b)" style="fill: #7a68a6; opacity: 0.7"/>
   </g>
   <g id="patch_101">
    <path d="M 319.159537 59840.171428 
L 330.903712 59840.171428 
L 330.903712 59840.171428 
L 319.159537 59840.171428 
z
" clip-path="url(#pf01d7fda4b)" style="fill: #7a68a6; opacity: 0.7"/>
   </g>
   <g id="patch_102">
    <path d="M 330.903712 59840.171428 
L 342.647887 59840.171428 
L 342.647887 59840.171428 
L 330.903712 59840.171428 
z
" clip-path="url(#pf01d7fda4b)" style="fill: #7a68a6; opacity: 0.7"/>
   </g>
   <g id="patch_103">
    <path d="M 342.647887 59840.171428 
L 354.392062 59840.171428 
L 354.392062 59840.171428 
L 342.647887 59840.171428 
z
" clip-path="url(#pf01d7fda4b)" style="fill: #7a68a6; opacity: 0.7"/>
   </g>
   <g id="patch_104">
    <path d="M 354.392062 59840.171428 
L 366.136237 59840.171428 
L 366.136237 59840.171428 
L 354.392062 59840.171428 
z
" clip-path="url(#pf01d7fda4b)" style="fill: #7a68a6; opacity: 0.7"/>
   </g>
   <g id="patch_105">
    <path d="M 366.136237 59840.171428 
L 377.880412 59840.171428 
L 377.880412 59840.171428 
L 366.136237 59840.171428 
z
" clip-path="url(#pf01d7fda4b)" style="fill: #7a68a6; opacity: 0.7"/>
   </g>
   <g id="patch_106">
    <path d="M 377.880412 59840.171428 
L 389.624586 59840.171428 
L 389.624586 59840.171428 
L 377.880412 59840.171428 
z
" clip-path="url(#pf01d7fda4b)" style="fill: #7a68a6; opacity: 0.7"/>
   </g>
   <g id="patch_107">
    <path d="M 389.624586 59840.171428 
L 401.368761 59840.171428 
L 401.368761 59840.171428 
L 389.624586 59840.171428 
z
" clip-path="url(#pf01d7fda4b)" style="fill: #7a68a6; opacity: 0.7"/>
   </g>
   <g id="patch_108">
    <path d="M 401.368761 59840.171428 
L 413.112936 59840.171428 
L 413.112936 59840.171428 
L 401.368761 59840.171428 
z
" clip-path="url(#pf01d7fda4b)" style="fill: #7a68a6; opacity: 0.7"/>
   </g>
   <g id="patch_109">
    <path d="M 413.112936 59840.171428 
L 424.857111 59840.171428 
L 424.857111 59840.171428 
L 413.112936 59840.171428 
z
" clip-path="url(#pf01d7fda4b)" style="fill: #7a68a6; opacity: 0.7"/>
   </g>
   <g id="patch_110">
    <path d="M 424.857111 59840.171428 
L 436.601286 59840.171428 
L 436.601286 59840.171428 
L 424.857111 59840.171428 
z
" clip-path="url(#pf01d7fda4b)" style="fill: #7a68a6; opacity: 0.7"/>
   </g>
   <g id="patch_111">
    <path d="M 436.601286 59840.171428 
L 448.34546 59840.171428 
L 448.34546 59840.171428 
L 436.601286 59840.171428 
z
" clip-path="url(#pf01d7fda4b)" style="fill: #7a68a6; opacity: 0.7"/>
   </g>
   <g id="patch_112">
    <path d="M 448.34546 59840.171428 
L 460.089635 59840.171428 
L 460.089635 59840.171428 
L 448.34546 59840.171428 
z
" clip-path="url(#pf01d7fda4b)" style="fill: #7a68a6; opacity: 0.7"/>
   </g>
   <g id="patch_113">
    <path d="M 460.089635 59840.171428 
L 471.83381 59840.171428 
L 471.83381 59840.171428 
L 460.089635 59840.171428 
z
" clip-path="url(#pf01d7fda4b)" style="fill: #7a68a6; opacity: 0.7"/>
   </g>
   <g id="patch_114">
    <path d="M 471.83381 59840.171428 
L 483.577985 59840.171428 
L 483.577985 59840.171428 
L 471.83381 59840.171428 
z
" clip-path="url(#pf01d7fda4b)" style="fill: #7a68a6; opacity: 0.7"/>
   </g>
   <g id="patch_115">
    <path d="M 483.577985 59840.171428 
L 495.32216 59840.171428 
L 495.32216 59840.171428 
L 483.577985 59840.171428 
z
" clip-path="url(#pf01d7fda4b)" style="fill: #7a68a6; opacity: 0.7"/>
   </g>
   <g id="patch_116">
    <path d="M 495.32216 59840.171428 
L 507.066335 59840.171428 
L 507.066335 59840.171428 
L 495.32216 59840.171428 
z
" clip-path="url(#pf01d7fda4b)" style="fill: #7a68a6; opacity: 0.7"/>
   </g>
   <g id="patch_117">
    <path d="M 507.066335 59840.171428 
L 518.810509 59840.171428 
L 518.810509 59840.171428 
L 507.066335 59840.171428 
z
" clip-path="url(#pf01d7fda4b)" style="fill: #7a68a6; opacity: 0.7"/>
   </g>
   <g id="patch_118">
    <path d="M 518.810509 59840.171428 
L 530.554684 59840.171428 
L 530.554684 59840.171428 
L 518.810509 59840.171428 
z
" clip-path="url(#pf01d7fda4b)" style="fill: #7a68a6; opacity: 0.7"/>
   </g>
   <g id="patch_119">
    <path d="M 530.554684 59840.171428 
L 542.298859 59840.171428 
L 542.298859 59840.171428 
L 530.554684 59840.171428 
z
" clip-path="url(#pf01d7fda4b)" style="fill: #7a68a6; opacity: 0.7"/>
   </g>
   <g id="matplotlib.axis_1">
    <g id="xtick_1">
     <g id="line2d_1">
      <path d="M 110.201861 300.052687 
L 110.201861 10.8 
" clip-path="url(#pf01d7fda4b)" style="fill: none; stroke-dasharray: 1.85,0.8; stroke-dashoffset: 0; stroke: #b2b2b2; stroke-width: 0.5"/>
     </g>
     <g id="line2d_2">
      <defs>
       <path id="me417db4d2f" d="M 0 0 
L 0 -3.5 
" style="stroke: #000000; stroke-width: 0.8"/>
      </defs>
      <g>
       <use xlink:href="#me417db4d2f" x="110.201861" y="300.052687" style="stroke: #000000; stroke-width: 0.8"/>
      </g>
     </g>
     <g id="text_1">
      <!-- 5200 -->
      <g transform="translate(92.201861 315.893937)scale(0.18 -0.18)">
       <defs>
        <path id="Times-Roman-35" d="M 478 572 
Q 656 572 945 370 
Q 1234 169 1391 169 
Q 1750 169 2019 486 
Q 2288 803 2288 1266 
Q 2288 2075 1425 2431 
Q 947 2628 534 2628 
Q 466 2628 448 2633 
Q 431 2638 406 2666 
Q 413 2691 417 2708 
Q 422 2725 428 2741 
L 1109 4234 
L 2450 4234 
Q 2550 4234 2604 4268 
Q 2659 4303 2747 4397 
L 2797 4353 
L 2553 3775 
Q 2541 3747 2484 3739 
Q 2428 3731 2363 3731 
L 1153 3731 
L 888 3184 
Q 1400 3097 1638 3019 
Q 2028 2888 2291 2631 
Q 2516 2409 2631 2132 
Q 2747 1856 2747 1547 
Q 2747 856 2255 393 
Q 1763 -69 1009 -69 
Q 703 -69 516 -9 
Q 203 88 203 338 
Q 203 431 270 501 
Q 338 572 478 572 
z
" transform="scale(0.015625)"/>
        <path id="Times-Roman-32" d="M 191 72 
Q 1334 1259 1743 1815 
Q 2153 2372 2153 2900 
Q 2153 3363 1903 3605 
Q 1653 3847 1306 3847 
Q 878 3847 613 3534 
Q 466 3363 331 3006 
L 197 3034 
Q 353 3753 726 4033 
Q 1100 4313 1528 4313 
Q 2056 4313 2382 3980 
Q 2709 3647 2709 3166 
Q 2709 2653 2356 2178 
Q 2003 1703 822 488 
L 2256 488 
Q 2556 488 2678 559 
Q 2800 631 2953 909 
L 3034 872 
L 2688 0 
L 191 0 
L 191 72 
z
" transform="scale(0.015625)"/>
        <path id="Times-Roman-30" d="M 1531 116 
Q 1991 116 2162 619 
Q 2334 1122 2334 2075 
Q 2334 2834 2231 3288 
Q 2038 4131 1506 4131 
Q 975 4131 778 3263 
Q 675 2800 675 2044 
Q 675 1334 781 909 
Q 981 116 1531 116 
z
M 1522 4300 
Q 2241 4300 2638 3547 
Q 2953 2938 2953 2147 
Q 2953 1525 2759 975 
Q 2394 -59 1494 -59 
Q 878 -59 481 500 
Q 56 1097 56 2122 
Q 56 2928 341 3509 
Q 725 4300 1522 4300 
z
" transform="scale(0.015625)"/>
       </defs>
       <use xlink:href="#Times-Roman-35"/>
       <use xlink:href="#Times-Roman-32" x="50"/>
       <use xlink:href="#Times-Roman-30" x="100"/>
       <use xlink:href="#Times-Roman-30" x="150"/>
      </g>
     </g>
    </g>
    <g id="xtick_2">
     <g id="line2d_3">
      <path d="M 196.62126 300.052687 
L 196.62126 10.8 
" clip-path="url(#pf01d7fda4b)" style="fill: none; stroke-dasharray: 1.85,0.8; stroke-dashoffset: 0; stroke: #b2b2b2; stroke-width: 0.5"/>
     </g>
     <g id="line2d_4">
      <g>
       <use xlink:href="#me417db4d2f" x="196.62126" y="300.052687" style="stroke: #000000; stroke-width: 0.8"/>
      </g>
     </g>
     <g id="text_2">
      <!-- 5300 -->
      <g transform="translate(178.62126 315.893937)scale(0.18 -0.18)">
       <defs>
        <path id="Times-Roman-33" d="M 497 544 
Q 669 544 951 366 
Q 1234 188 1431 188 
Q 1869 188 2081 483 
Q 2294 778 2294 1125 
Q 2294 1459 2122 1713 
Q 1831 2141 1141 2141 
Q 1100 2141 1062 2139 
Q 1025 2138 975 2131 
L 969 2213 
Q 1469 2394 1756 2628 
Q 2044 2863 2044 3247 
Q 2044 3588 1817 3766 
Q 1591 3944 1300 3944 
Q 956 3944 694 3691 
Q 550 3553 384 3266 
L 288 3288 
Q 413 3763 753 4047 
Q 1094 4331 1541 4331 
Q 2019 4331 2280 4068 
Q 2541 3806 2541 3463 
Q 2541 3159 2325 2906 
Q 2203 2763 1947 2584 
Q 2247 2456 2428 2284 
Q 2769 1956 2769 1453 
Q 2769 859 2301 406 
Q 1834 -47 972 -47 
Q 588 -47 433 67 
Q 278 181 278 313 
Q 278 394 329 469 
Q 381 544 497 544 
z
" transform="scale(0.015625)"/>
       </defs>
       <use xlink:href="#Times-Roman-35"/>
       <use xlink:href="#Times-Roman-33" x="50"/>
       <use xlink:href="#Times-Roman-30" x="100"/>
       <use xlink:href="#Times-Roman-30" x="150"/>
      </g>
     </g>
    </g>
    <g id="xtick_3">
     <g id="line2d_5">
      <path d="M 283.04066 300.052687 
L 283.04066 10.8 
" clip-path="url(#pf01d7fda4b)" style="fill: none; stroke-dasharray: 1.85,0.8; stroke-dashoffset: 0; stroke: #b2b2b2; stroke-width: 0.5"/>
     </g>
     <g id="line2d_6">
      <g>
       <use xlink:href="#me417db4d2f" x="283.04066" y="300.052687" style="stroke: #000000; stroke-width: 0.8"/>
      </g>
     </g>
     <g id="text_3">
      <!-- 5400 -->
      <g transform="translate(265.04066 315.893937)scale(0.18 -0.18)">
       <defs>
        <path id="Times-Roman-34" d="M 1866 3650 
L 331 1481 
L 1866 1481 
L 1866 3650 
z
M 2072 4294 
L 2369 4294 
L 2369 1481 
L 3022 1481 
L 3022 1066 
L 2369 1066 
L 2369 0 
L 1872 0 
L 1872 1066 
L 72 1066 
L 72 1481 
L 2072 4294 
z
" transform="scale(0.015625)"/>
       </defs>
       <use xlink:href="#Times-Roman-35"/>
       <use xlink:href="#Times-Roman-34" x="50"/>
       <use xlink:href="#Times-Roman-30" x="100"/>
       <use xlink:href="#Times-Roman-30" x="150"/>
      </g>
     </g>
    </g>
    <g id="xtick_4">
     <g id="line2d_7">
      <path d="M 369.46006 300.052687 
L 369.46006 10.8 
" clip-path="url(#pf01d7fda4b)" style="fill: none; stroke-dasharray: 1.85,0.8; stroke-dashoffset: 0; stroke: #b2b2b2; stroke-width: 0.5"/>
     </g>
     <g id="line2d_8">
      <g>
       <use xlink:href="#me417db4d2f" x="369.46006" y="300.052687" style="stroke: #000000; stroke-width: 0.8"/>
      </g>
     </g>
     <g id="text_4">
      <!-- 5500 -->
      <g transform="translate(351.46006 315.893937)scale(0.18 -0.18)">
       <use xlink:href="#Times-Roman-35"/>
       <use xlink:href="#Times-Roman-35" x="50"/>
       <use xlink:href="#Times-Roman-30" x="100"/>
       <use xlink:href="#Times-Roman-30" x="150"/>
      </g>
     </g>
    </g>
    <g id="xtick_5">
     <g id="line2d_9">
      <path d="M 455.879459 300.052687 
L 455.879459 10.8 
" clip-path="url(#pf01d7fda4b)" style="fill: none; stroke-dasharray: 1.85,0.8; stroke-dashoffset: 0; stroke: #b2b2b2; stroke-width: 0.5"/>
     </g>
     <g id="line2d_10">
      <g>
       <use xlink:href="#me417db4d2f" x="455.879459" y="300.052687" style="stroke: #000000; stroke-width: 0.8"/>
      </g>
     </g>
     <g id="text_5">
      <!-- 5600 -->
      <g transform="translate(437.879459 315.893937)scale(0.18 -0.18)">
       <defs>
        <path id="Times-Roman-36" d="M 2994 1422 
Q 2994 850 2626 390 
Q 2259 -69 1672 -69 
Q 1122 -69 670 447 
Q 219 963 219 1819 
Q 219 2922 1094 3713 
Q 1875 4375 2850 4375 
L 2866 4272 
Q 2475 4200 2192 4076 
Q 1909 3953 1688 3731 
Q 1459 3506 1259 3159 
Q 1059 2813 984 2472 
Q 1178 2591 1319 2647 
Q 1569 2747 1822 2747 
Q 2319 2747 2656 2403 
Q 2994 2059 2994 1422 
z
M 2422 1181 
Q 2422 1597 2291 1919 
Q 2072 2456 1547 2456 
Q 1063 2456 903 2169 
Q 809 2000 809 1606 
Q 809 1097 1026 609 
Q 1244 122 1713 122 
Q 2084 122 2253 439 
Q 2422 756 2422 1181 
z
" transform="scale(0.015625)"/>
       </defs>
       <use xlink:href="#Times-Roman-35"/>
       <use xlink:href="#Times-Roman-36" x="50"/>
       <use xlink:href="#Times-Roman-30" x="100"/>
       <use xlink:href="#Times-Roman-30" x="150"/>
      </g>
     </g>
    </g>
    <g id="xtick_6">
     <g id="line2d_11">
      <path d="M 542.298859 300.052687 
L 542.298859 10.8 
" clip-path="url(#pf01d7fda4b)" style="fill: none; stroke-dasharray: 1.85,0.8; stroke-dashoffset: 0; stroke: #b2b2b2; stroke-width: 0.5"/>
     </g>
     <g id="line2d_12">
      <g>
       <use xlink:href="#me417db4d2f" x="542.298859" y="300.052687" style="stroke: #000000; stroke-width: 0.8"/>
      </g>
     </g>
     <g id="text_6">
      <!-- 5700 -->
      <g transform="translate(524.298859 315.893937)scale(0.18 -0.18)">
       <defs>
        <path id="Times-Roman-37" d="M 2872 4234 
L 2872 4131 
L 1516 -59 
L 1103 -59 
L 2369 3763 
L 1006 3763 
Q 703 3763 570 3663 
Q 438 3563 234 3244 
L 125 3294 
Q 328 3794 376 3911 
Q 425 4028 503 4234 
L 2872 4234 
z
" transform="scale(0.015625)"/>
       </defs>
       <use xlink:href="#Times-Roman-35"/>
       <use xlink:href="#Times-Roman-37" x="50"/>
       <use xlink:href="#Times-Roman-30" x="100"/>
       <use xlink:href="#Times-Roman-30" x="150"/>
      </g>
     </g>
    </g>
    <g id="text_7">
     <!-- $m_{K^+ \pi^- \mu^+ \mu^-}$ [MeV/$c^2$] -->
     <g transform="translate(217.88745 340.814563)scale(0.2 -0.2)">
      <defs>
       <path id="Cmmi10-6d" d="M 494 109 
Q 494 147 500 166 
L 978 2075 
Q 1025 2253 1025 2388 
Q 1025 2663 838 2663 
Q 638 2663 541 2423 
Q 444 2184 353 1819 
Q 353 1800 334 1789 
Q 316 1778 300 1778 
L 225 1778 
Q 203 1778 187 1801 
Q 172 1825 172 1844 
Q 241 2122 305 2315 
Q 369 2509 505 2668 
Q 641 2828 844 2828 
Q 1084 2828 1268 2676 
Q 1453 2525 1453 2291 
Q 1644 2541 1900 2684 
Q 2156 2828 2444 2828 
Q 2747 2828 2967 2673 
Q 3188 2519 3188 2234 
Q 3384 2513 3648 2670 
Q 3913 2828 4225 2828 
Q 4556 2828 4757 2648 
Q 4959 2469 4959 2138 
Q 4959 1875 4842 1503 
Q 4725 1131 4550 672 
Q 4459 450 4459 288 
Q 4459 97 4609 97 
Q 4859 97 5025 365 
Q 5191 634 5259 941 
Q 5278 978 5313 978 
L 5388 978 
Q 5413 978 5430 961 
Q 5447 944 5447 922 
Q 5447 916 5441 903 
Q 5353 541 5136 234 
Q 4919 -72 4594 -72 
Q 4369 -72 4209 83 
Q 4050 238 4050 459 
Q 4050 572 4103 709 
Q 4284 1191 4404 1569 
Q 4525 1947 4525 2234 
Q 4525 2413 4453 2538 
Q 4381 2663 4213 2663 
Q 3863 2663 3606 2448 
Q 3350 2234 3163 1881 
Q 3150 1819 3144 1784 
L 2731 141 
Q 2709 53 2632 -9 
Q 2556 -72 2463 -72 
Q 2388 -72 2330 -22 
Q 2272 28 2272 109 
Q 2272 147 2278 166 
L 2688 1797 
Q 2753 2059 2753 2234 
Q 2753 2413 2679 2538 
Q 2606 2663 2431 2663 
Q 2197 2663 2000 2559 
Q 1803 2456 1656 2286 
Q 1509 2116 1388 1881 
L 953 141 
Q 931 53 854 -9 
Q 778 -72 684 -72 
Q 606 -72 550 -22 
Q 494 28 494 109 
z
" transform="scale(0.015625)"/>
       <path id="Cmmi10-4b" d="M 300 0 
Q 238 0 238 84 
Q 241 100 250 139 
Q 259 178 276 201 
Q 294 225 319 225 
Q 709 225 863 269 
Q 947 297 984 441 
L 1863 3956 
Q 1875 4019 1875 4044 
Q 1875 4113 1797 4122 
Q 1678 4147 1338 4147 
Q 1275 4147 1275 4231 
Q 1297 4313 1309 4342 
Q 1322 4372 1381 4372 
L 3103 4372 
Q 3169 4372 3169 4288 
Q 3166 4272 3156 4234 
Q 3147 4197 3131 4172 
Q 3116 4147 3084 4147 
Q 2694 4147 2541 4103 
Q 2456 4072 2419 3928 
L 1900 1856 
L 4409 3794 
Q 4416 3806 4489 3879 
Q 4563 3953 4563 4025 
Q 4563 4147 4347 4147 
Q 4281 4147 4281 4231 
Q 4294 4281 4301 4309 
Q 4309 4338 4329 4355 
Q 4350 4372 4391 4372 
L 5631 4372 
Q 5666 4372 5681 4347 
Q 5697 4322 5697 4288 
Q 5694 4272 5683 4231 
Q 5672 4191 5655 4169 
Q 5638 4147 5606 4147 
Q 5138 4147 4581 3713 
Q 4578 3709 4572 3707 
Q 4566 3706 4559 3704 
Q 4553 3703 4550 3700 
L 3231 2675 
L 4191 428 
Q 4278 288 4378 256 
Q 4478 225 4684 225 
Q 4750 225 4750 141 
Q 4731 66 4712 33 
Q 4694 0 4641 0 
L 3156 0 
Q 3097 0 3097 84 
Q 3106 150 3118 187 
Q 3131 225 3181 225 
Q 3344 225 3458 258 
Q 3572 291 3572 409 
Q 3572 453 3566 475 
L 2772 2322 
L 1838 1600 
L 1544 416 
Q 1528 338 1528 325 
Q 1528 259 1606 250 
Q 1728 225 2069 225 
Q 2131 225 2131 141 
Q 2109 50 2096 25 
Q 2084 0 2022 0 
L 300 0 
z
" transform="scale(0.015625)"/>
       <path id="Cmr10-2b" d="M 481 1472 
Q 428 1472 393 1512 
Q 359 1553 359 1600 
Q 359 1647 393 1687 
Q 428 1728 481 1728 
L 2363 1728 
L 2363 3616 
Q 2363 3666 2400 3698 
Q 2438 3731 2491 3731 
Q 2538 3731 2578 3698 
Q 2619 3666 2619 3616 
L 2619 1728 
L 4500 1728 
Q 4547 1728 4581 1687 
Q 4616 1647 4616 1600 
Q 4616 1553 4581 1512 
Q 4547 1472 4500 1472 
L 2619 1472 
L 2619 -416 
Q 2619 -466 2578 -498 
Q 2538 -531 2491 -531 
Q 2438 -531 2400 -498 
Q 2363 -466 2363 -416 
L 2363 1472 
L 481 1472 
z
" transform="scale(0.015625)"/>
       <path id="Cmmi10-bc" d="M 647 109 
Q 647 144 672 213 
Q 850 584 1004 942 
Q 1159 1300 1282 1639 
Q 1406 1978 1509 2363 
L 1100 2363 
Q 866 2363 662 2216 
Q 459 2069 325 1844 
Q 313 1819 288 1819 
L 213 1819 
Q 153 1819 153 1881 
Q 153 1894 166 1919 
Q 375 2275 614 2517 
Q 853 2759 1153 2759 
L 3475 2759 
Q 3541 2759 3587 2715 
Q 3634 2672 3634 2597 
Q 3634 2503 3567 2433 
Q 3500 2363 3406 2363 
L 2591 2363 
Q 2488 1859 2478 1381 
Q 2478 766 2694 269 
Q 2713 231 2713 191 
Q 2713 122 2672 62 
Q 2631 3 2567 -34 
Q 2503 -72 2431 -72 
Q 2263 -72 2200 203 
Q 2138 478 2138 738 
Q 2138 1103 2200 1442 
Q 2263 1781 2400 2363 
L 1703 2363 
Q 1197 313 1094 103 
Q 1003 -72 844 -72 
Q 766 -72 706 -20 
Q 647 31 647 109 
z
" transform="scale(0.015625)"/>
       <path id="Cmsy10-a1" d="M 653 1472 
Q 600 1472 565 1512 
Q 531 1553 531 1600 
Q 531 1647 565 1687 
Q 600 1728 653 1728 
L 4325 1728 
Q 4375 1728 4408 1687 
Q 4441 1647 4441 1600 
Q 4441 1553 4408 1512 
Q 4375 1472 4325 1472 
L 653 1472 
z
" transform="scale(0.015625)"/>
       <path id="Cmmi10-b9" d="M 178 -1203 
Q 178 -1166 184 -1153 
L 1125 2625 
Q 1153 2716 1226 2772 
Q 1300 2828 1394 2828 
Q 1475 2828 1531 2779 
Q 1588 2731 1588 2650 
Q 1588 2631 1586 2620 
Q 1584 2609 1581 2597 
L 1203 1100 
Q 1141 834 1141 641 
Q 1141 403 1253 250 
Q 1366 97 1594 97 
Q 2059 97 2413 678 
Q 2416 684 2417 687 
Q 2419 691 2419 697 
L 2881 2553 
Q 2903 2638 2981 2698 
Q 3059 2759 3150 2759 
Q 3225 2759 3283 2709 
Q 3341 2659 3341 2578 
Q 3341 2541 3334 2528 
L 2875 684 
Q 2828 503 2828 372 
Q 2828 97 3016 97 
Q 3216 97 3317 344 
Q 3419 591 3494 941 
Q 3506 978 3547 978 
L 3622 978 
Q 3647 978 3664 958 
Q 3681 938 3681 916 
Q 3569 469 3436 198 
Q 3303 -72 3003 -72 
Q 2791 -72 2627 50 
Q 2463 172 2413 378 
Q 2253 178 2039 53 
Q 1825 -72 1588 -72 
Q 1188 -72 959 116 
L 634 -1178 
Q 616 -1269 541 -1325 
Q 466 -1381 372 -1381 
Q 294 -1381 236 -1332 
Q 178 -1284 178 -1203 
z
" transform="scale(0.015625)"/>
       <path id="Times-Roman-20" transform="scale(0.015625)"/>
       <path id="Times-Roman-5b" d="M 563 4234 
L 1909 4234 
L 1909 4081 
L 1341 4081 
Q 1153 4081 1088 3963 
Q 1050 3900 1050 3791 
L 1050 -513 
Q 1050 -656 1091 -725 
Q 1159 -847 1363 -847 
L 1909 -847 
L 1909 -1009 
L 563 -1009 
L 563 4234 
z
" transform="scale(0.015625)"/>
       <path id="Times-Roman-4d" d="M 72 116 
Q 469 156 581 295 
Q 694 434 694 941 
L 694 3541 
Q 694 3888 584 3992 
Q 475 4097 88 4116 
L 88 4234 
L 1353 4234 
L 2834 1006 
L 4250 4234 
L 5525 4234 
L 5525 4116 
Q 5169 4091 5066 3986 
Q 4963 3881 4963 3541 
L 4963 694 
Q 4963 344 5066 245 
Q 5169 147 5525 116 
L 5525 0 
L 3731 0 
L 3731 116 
Q 4119 147 4214 255 
Q 4309 363 4309 769 
L 4309 3644 
L 2672 0 
L 2584 0 
L 975 3494 
L 975 941 
Q 975 416 1128 256 
Q 1228 153 1575 116 
L 1575 0 
L 72 0 
L 72 116 
z
" transform="scale(0.015625)"/>
       <path id="Times-Roman-65" d="M 1466 2931 
Q 1906 2931 2237 2626 
Q 2569 2322 2569 1763 
L 584 1763 
Q 616 1038 912 706 
Q 1209 375 1616 375 
Q 1944 375 2169 547 
Q 2394 719 2584 1034 
L 2694 997 
Q 2566 600 2214 262 
Q 1863 -75 1353 -75 
Q 766 -75 445 369 
Q 125 813 125 1391 
Q 125 2019 497 2475 
Q 869 2931 1466 2931 
z
M 1284 2703 
Q 928 2703 741 2388 
Q 641 2219 597 1963 
L 1916 1963 
Q 1881 2275 1797 2428 
Q 1644 2703 1284 2703 
z
M 1425 2931 
L 1425 2931 
z
" transform="scale(0.015625)"/>
       <path id="Times-Roman-56" d="M 1806 4234 
L 1806 4116 
Q 1566 4113 1478 4084 
Q 1325 4034 1325 3881 
Q 1325 3803 1379 3662 
Q 1434 3522 1584 3191 
L 2584 963 
L 3494 3375 
Q 3553 3534 3584 3643 
Q 3616 3753 3616 3822 
Q 3616 4006 3456 4072 
Q 3363 4109 3147 4116 
L 3147 4234 
L 4456 4234 
L 4456 4125 
Q 4253 4097 4156 4016 
Q 4009 3894 3866 3525 
L 2450 -75 
L 2353 -75 
L 775 3444 
Q 575 3891 454 4000 
Q 334 4109 103 4125 
L 103 4234 
L 1806 4234 
z
" transform="scale(0.015625)"/>
       <path id="Times-Roman-2f" d="M 1434 4325 
L 1747 4325 
L 331 -106 
L 13 -106 
L 1434 4325 
z
" transform="scale(0.015625)"/>
       <path id="Cmmi10-63" d="M 750 763 
Q 750 484 892 290 
Q 1034 97 1300 97 
Q 1681 97 2032 272 
Q 2384 447 2606 756 
Q 2625 775 2656 775 
Q 2688 775 2720 739 
Q 2753 703 2753 672 
Q 2753 647 2741 634 
Q 2506 306 2109 117 
Q 1713 -72 1288 -72 
Q 981 -72 747 73 
Q 513 219 384 462 
Q 256 706 256 1013 
Q 256 1444 497 1869 
Q 738 2294 1138 2561 
Q 1538 2828 1978 2828 
Q 2266 2828 2495 2689 
Q 2725 2550 2725 2278 
Q 2725 2103 2623 1979 
Q 2522 1856 2350 1856 
Q 2247 1856 2176 1920 
Q 2106 1984 2106 2088 
Q 2106 2238 2215 2344 
Q 2325 2450 2472 2450 
L 2484 2450 
Q 2409 2559 2267 2611 
Q 2125 2663 1972 2663 
Q 1597 2663 1315 2342 
Q 1034 2022 892 1576 
Q 750 1131 750 763 
z
" transform="scale(0.015625)"/>
       <path id="Cmr10-32" d="M 319 0 
L 319 172 
Q 319 188 331 206 
L 1325 1306 
Q 1550 1550 1690 1715 
Q 1831 1881 1968 2097 
Q 2106 2313 2186 2536 
Q 2266 2759 2266 3009 
Q 2266 3272 2169 3511 
Q 2072 3750 1880 3894 
Q 1688 4038 1416 4038 
Q 1138 4038 916 3870 
Q 694 3703 603 3438 
Q 628 3444 672 3444 
Q 816 3444 917 3347 
Q 1019 3250 1019 3097 
Q 1019 2950 917 2848 
Q 816 2747 672 2747 
Q 522 2747 420 2851 
Q 319 2956 319 3097 
Q 319 3338 409 3548 
Q 500 3759 670 3923 
Q 841 4088 1055 4175 
Q 1269 4263 1509 4263 
Q 1875 4263 2190 4108 
Q 2506 3953 2690 3670 
Q 2875 3388 2875 3009 
Q 2875 2731 2753 2481 
Q 2631 2231 2440 2026 
Q 2250 1822 1953 1562 
Q 1656 1303 1563 1216 
L 838 519 
L 1453 519 
Q 1906 519 2211 526 
Q 2516 534 2534 550 
Q 2609 631 2688 1141 
L 2875 1141 
L 2694 0 
L 319 0 
z
" transform="scale(0.015625)"/>
       <path id="Times-Roman-5d" d="M 1563 -1009 
L 213 -1009 
L 213 -853 
L 784 -853 
Q 969 -853 1038 -738 
Q 1072 -675 1072 -566 
L 1072 3741 
Q 1072 3894 1011 3983 
Q 950 4072 763 4072 
L 213 4072 
L 213 4234 
L 1563 4234 
L 1563 -1009 
z
" transform="scale(0.015625)"/>
      </defs>
      <use xlink:href="#Cmmi10-6d" transform="translate(0 0.109375)"/>
      <use xlink:href="#Cmmi10-4b" transform="translate(87.792969 -16.896875)scale(0.7)"/>
      <use xlink:href="#Cmr10-2b" transform="translate(163.793828 9.887969)scale(0.49)"/>
      <use xlink:href="#Cmmi10-bc" transform="translate(214.927598 -16.896875)scale(0.7)"/>
      <use xlink:href="#Cmsy10-a1" transform="translate(267.672816 9.887969)scale(0.49)"/>
      <use xlink:href="#Cmmi10-b9" transform="translate(318.806586 -16.896875)scale(0.7)"/>
      <use xlink:href="#Cmr10-2b" transform="translate(373.966148 9.887969)scale(0.49)"/>
      <use xlink:href="#Cmmi10-b9" transform="translate(425.099918 -16.896875)scale(0.7)"/>
      <use xlink:href="#Cmsy10-a1" transform="translate(480.25948 9.887969)scale(0.49)"/>
      <use xlink:href="#Times-Roman-20" transform="translate(537.770594 0.109375)"/>
      <use xlink:href="#Times-Roman-5b" transform="translate(562.770594 0.109375)"/>
      <use xlink:href="#Times-Roman-4d" transform="translate(596.071375 0.109375)"/>
      <use xlink:href="#Times-Roman-65" transform="translate(684.987391 0.109375)"/>
      <use xlink:href="#Times-Roman-56" transform="translate(729.372156 0.109375)"/>
      <use xlink:href="#Times-Roman-2f" transform="translate(801.588953 0.109375)"/>
      <use xlink:href="#Cmmi10-63" transform="translate(829.372156 0.109375)"/>
      <use xlink:href="#Cmr10-32" transform="translate(878.888328 38.373438)scale(0.7)"/>
      <use xlink:href="#Times-Roman-5d" transform="translate(920.265672 0.109375)"/>
     </g>
    </g>
   </g>
   <g id="matplotlib.axis_2">
    <g id="ytick_1">
     <g id="line2d_13">
      <path d="M 61.3749 255.780551 
L 565.2 255.780551 
" clip-path="url(#pf01d7fda4b)" style="fill: none; stroke-dasharray: 1.85,0.8; stroke-dashoffset: 0; stroke: #b2b2b2; stroke-width: 0.5"/>
     </g>
     <g id="line2d_14">
      <defs>
       <path id="m3347b4d9eb" d="M 0 0 
L 3.5 0 
" style="stroke: #000000; stroke-width: 0.8"/>
      </defs>
      <g>
       <use xlink:href="#m3347b4d9eb" x="61.3749" y="255.780551" style="stroke: #000000; stroke-width: 0.8"/>
      </g>
     </g>
     <g id="text_8">
      <!-- $\mathdefault{10^{1}}$ -->
      <g transform="translate(32.8549 261.951176)scale(0.18 -0.18)">
       <defs>
        <path id="Times-Roman-31" d="M 1894 4294 
Q 1906 4278 1907 4270 
Q 1909 4263 1909 4234 
L 1909 472 
Q 1909 231 2037 165 
Q 2166 100 2516 88 
L 2516 0 
L 753 0 
L 753 94 
Q 1131 113 1247 197 
Q 1363 281 1363 563 
L 1363 3456 
Q 1363 3606 1325 3684 
Q 1288 3763 1163 3763 
Q 1081 3763 951 3717 
Q 822 3672 709 3622 
L 709 3709 
L 1856 4294 
L 1894 4294 
z
" transform="scale(0.015625)"/>
       </defs>
       <use xlink:href="#Times-Roman-31" transform="translate(0 0.621875)"/>
       <use xlink:href="#Times-Roman-30" transform="translate(50 0.621875)"/>
       <use xlink:href="#Times-Roman-31" transform="translate(100.785313 32.034375)scale(0.7)"/>
      </g>
     </g>
    </g>
    <g id="ytick_2">
     <g id="line2d_15">
      <path d="M 61.3749 196.255685 
L 565.2 196.255685 
" clip-path="url(#pf01d7fda4b)" style="fill: none; stroke-dasharray: 1.85,0.8; stroke-dashoffset: 0; stroke: #b2b2b2; stroke-width: 0.5"/>
     </g>
     <g id="line2d_16">
      <g>
       <use xlink:href="#m3347b4d9eb" x="61.3749" y="196.255685" style="stroke: #000000; stroke-width: 0.8"/>
      </g>
     </g>
     <g id="text_9">
      <!-- $\mathdefault{10^{2}}$ -->
      <g transform="translate(32.8549 202.42631)scale(0.18 -0.18)">
       <use xlink:href="#Times-Roman-31" transform="translate(0 0.414062)"/>
       <use xlink:href="#Times-Roman-30" transform="translate(50 0.414062)"/>
       <use xlink:href="#Times-Roman-32" transform="translate(100.785313 31.826562)scale(0.7)"/>
      </g>
     </g>
    </g>
    <g id="ytick_3">
     <g id="line2d_17">
      <path d="M 61.3749 136.730819 
L 565.2 136.730819 
" clip-path="url(#pf01d7fda4b)" style="fill: none; stroke-dasharray: 1.85,0.8; stroke-dashoffset: 0; stroke: #b2b2b2; stroke-width: 0.5"/>
     </g>
     <g id="line2d_18">
      <g>
       <use xlink:href="#m3347b4d9eb" x="61.3749" y="136.730819" style="stroke: #000000; stroke-width: 0.8"/>
      </g>
     </g>
     <g id="text_10">
      <!-- $\mathdefault{10^{3}}$ -->
      <g transform="translate(32.8549 142.901444)scale(0.18 -0.18)">
       <use xlink:href="#Times-Roman-31" transform="translate(0 0.217188)"/>
       <use xlink:href="#Times-Roman-30" transform="translate(50 0.217188)"/>
       <use xlink:href="#Times-Roman-33" transform="translate(100.785313 31.629688)scale(0.7)"/>
      </g>
     </g>
    </g>
    <g id="ytick_4">
     <g id="line2d_19">
      <path d="M 61.3749 77.205953 
L 565.2 77.205953 
" clip-path="url(#pf01d7fda4b)" style="fill: none; stroke-dasharray: 1.85,0.8; stroke-dashoffset: 0; stroke: #b2b2b2; stroke-width: 0.5"/>
     </g>
     <g id="line2d_20">
      <g>
       <use xlink:href="#m3347b4d9eb" x="61.3749" y="77.205953" style="stroke: #000000; stroke-width: 0.8"/>
      </g>
     </g>
     <g id="text_11">
      <!-- $\mathdefault{10^{4}}$ -->
      <g transform="translate(32.8549 83.376578)scale(0.18 -0.18)">
       <use xlink:href="#Times-Roman-31" transform="translate(0 0.621875)"/>
       <use xlink:href="#Times-Roman-30" transform="translate(50 0.621875)"/>
       <use xlink:href="#Times-Roman-34" transform="translate(100.785313 32.034375)scale(0.7)"/>
      </g>
     </g>
    </g>
    <g id="ytick_5">
     <g id="line2d_21">
      <path d="M 61.3749 17.681087 
L 565.2 17.681087 
" clip-path="url(#pf01d7fda4b)" style="fill: none; stroke-dasharray: 1.85,0.8; stroke-dashoffset: 0; stroke: #b2b2b2; stroke-width: 0.5"/>
     </g>
     <g id="line2d_22">
      <g>
       <use xlink:href="#m3347b4d9eb" x="61.3749" y="17.681087" style="stroke: #000000; stroke-width: 0.8"/>
      </g>
     </g>
     <g id="text_12">
      <!-- $\mathdefault{10^{5}}$ -->
      <g transform="translate(32.8549 23.851712)scale(0.18 -0.18)">
       <use xlink:href="#Times-Roman-31" transform="translate(0 0.495313)"/>
       <use xlink:href="#Times-Roman-30" transform="translate(50 0.495313)"/>
       <use xlink:href="#Times-Roman-35" transform="translate(100.785313 31.907813)scale(0.7)"/>
      </g>
     </g>
    </g>
    <g id="ytick_6">
     <g id="line2d_23">
      <defs>
       <path id="m38c23625e8" d="M 0 0 
L 2 0 
" style="stroke: #000000; stroke-width: 0.6"/>
      </defs>
      <g>
       <use xlink:href="#m38c23625e8" x="61.3749" y="297.386647" style="stroke: #000000; stroke-width: 0.6"/>
      </g>
     </g>
    </g>
    <g id="ytick_7">
     <g id="line2d_24">
      <g>
       <use xlink:href="#m38c23625e8" x="61.3749" y="286.904838" style="stroke: #000000; stroke-width: 0.6"/>
      </g>
     </g>
    </g>
    <g id="ytick_8">
     <g id="line2d_25">
      <g>
       <use xlink:href="#m38c23625e8" x="61.3749" y="279.467877" style="stroke: #000000; stroke-width: 0.6"/>
      </g>
     </g>
    </g>
    <g id="ytick_9">
     <g id="line2d_26">
      <g>
       <use xlink:href="#m38c23625e8" x="61.3749" y="273.699321" style="stroke: #000000; stroke-width: 0.6"/>
      </g>
     </g>
    </g>
    <g id="ytick_10">
     <g id="line2d_27">
      <g>
       <use xlink:href="#m38c23625e8" x="61.3749" y="268.986068" style="stroke: #000000; stroke-width: 0.6"/>
      </g>
     </g>
    </g>
    <g id="ytick_11">
     <g id="line2d_28">
      <g>
       <use xlink:href="#m38c23625e8" x="61.3749" y="265.001069" style="stroke: #000000; stroke-width: 0.6"/>
      </g>
     </g>
    </g>
    <g id="ytick_12">
     <g id="line2d_29">
      <g>
       <use xlink:href="#m38c23625e8" x="61.3749" y="261.549106" style="stroke: #000000; stroke-width: 0.6"/>
      </g>
     </g>
    </g>
    <g id="ytick_13">
     <g id="line2d_30">
      <g>
       <use xlink:href="#m38c23625e8" x="61.3749" y="258.504259" style="stroke: #000000; stroke-width: 0.6"/>
      </g>
     </g>
    </g>
    <g id="ytick_14">
     <g id="line2d_31">
      <g>
       <use xlink:href="#m38c23625e8" x="61.3749" y="237.861781" style="stroke: #000000; stroke-width: 0.6"/>
      </g>
     </g>
    </g>
    <g id="ytick_15">
     <g id="line2d_32">
      <g>
       <use xlink:href="#m38c23625e8" x="61.3749" y="227.379972" style="stroke: #000000; stroke-width: 0.6"/>
      </g>
     </g>
    </g>
    <g id="ytick_16">
     <g id="line2d_33">
      <g>
       <use xlink:href="#m38c23625e8" x="61.3749" y="219.943011" style="stroke: #000000; stroke-width: 0.6"/>
      </g>
     </g>
    </g>
    <g id="ytick_17">
     <g id="line2d_34">
      <g>
       <use xlink:href="#m38c23625e8" x="61.3749" y="214.174455" style="stroke: #000000; stroke-width: 0.6"/>
      </g>
     </g>
    </g>
    <g id="ytick_18">
     <g id="line2d_35">
      <g>
       <use xlink:href="#m38c23625e8" x="61.3749" y="209.461202" style="stroke: #000000; stroke-width: 0.6"/>
      </g>
     </g>
    </g>
    <g id="ytick_19">
     <g id="line2d_36">
      <g>
       <use xlink:href="#m38c23625e8" x="61.3749" y="205.476203" style="stroke: #000000; stroke-width: 0.6"/>
      </g>
     </g>
    </g>
    <g id="ytick_20">
     <g id="line2d_37">
      <g>
       <use xlink:href="#m38c23625e8" x="61.3749" y="202.02424" style="stroke: #000000; stroke-width: 0.6"/>
      </g>
     </g>
    </g>
    <g id="ytick_21">
     <g id="line2d_38">
      <g>
       <use xlink:href="#m38c23625e8" x="61.3749" y="198.979393" style="stroke: #000000; stroke-width: 0.6"/>
      </g>
     </g>
    </g>
    <g id="ytick_22">
     <g id="line2d_39">
      <g>
       <use xlink:href="#m38c23625e8" x="61.3749" y="178.336915" style="stroke: #000000; stroke-width: 0.6"/>
      </g>
     </g>
    </g>
    <g id="ytick_23">
     <g id="line2d_40">
      <g>
       <use xlink:href="#m38c23625e8" x="61.3749" y="167.855106" style="stroke: #000000; stroke-width: 0.6"/>
      </g>
     </g>
    </g>
    <g id="ytick_24">
     <g id="line2d_41">
      <g>
       <use xlink:href="#m38c23625e8" x="61.3749" y="160.418144" style="stroke: #000000; stroke-width: 0.6"/>
      </g>
     </g>
    </g>
    <g id="ytick_25">
     <g id="line2d_42">
      <g>
       <use xlink:href="#m38c23625e8" x="61.3749" y="154.649589" style="stroke: #000000; stroke-width: 0.6"/>
      </g>
     </g>
    </g>
    <g id="ytick_26">
     <g id="line2d_43">
      <g>
       <use xlink:href="#m38c23625e8" x="61.3749" y="149.936336" style="stroke: #000000; stroke-width: 0.6"/>
      </g>
     </g>
    </g>
    <g id="ytick_27">
     <g id="line2d_44">
      <g>
       <use xlink:href="#m38c23625e8" x="61.3749" y="145.951337" style="stroke: #000000; stroke-width: 0.6"/>
      </g>
     </g>
    </g>
    <g id="ytick_28">
     <g id="line2d_45">
      <g>
       <use xlink:href="#m38c23625e8" x="61.3749" y="142.499374" style="stroke: #000000; stroke-width: 0.6"/>
      </g>
     </g>
    </g>
    <g id="ytick_29">
     <g id="line2d_46">
      <g>
       <use xlink:href="#m38c23625e8" x="61.3749" y="139.454527" style="stroke: #000000; stroke-width: 0.6"/>
      </g>
     </g>
    </g>
    <g id="ytick_30">
     <g id="line2d_47">
      <g>
       <use xlink:href="#m38c23625e8" x="61.3749" y="118.812049" style="stroke: #000000; stroke-width: 0.6"/>
      </g>
     </g>
    </g>
    <g id="ytick_31">
     <g id="line2d_48">
      <g>
       <use xlink:href="#m38c23625e8" x="61.3749" y="108.33024" style="stroke: #000000; stroke-width: 0.6"/>
      </g>
     </g>
    </g>
    <g id="ytick_32">
     <g id="line2d_49">
      <g>
       <use xlink:href="#m38c23625e8" x="61.3749" y="100.893278" style="stroke: #000000; stroke-width: 0.6"/>
      </g>
     </g>
    </g>
    <g id="ytick_33">
     <g id="line2d_50">
      <g>
       <use xlink:href="#m38c23625e8" x="61.3749" y="95.124723" style="stroke: #000000; stroke-width: 0.6"/>
      </g>
     </g>
    </g>
    <g id="ytick_34">
     <g id="line2d_51">
      <g>
       <use xlink:href="#m38c23625e8" x="61.3749" y="90.41147" style="stroke: #000000; stroke-width: 0.6"/>
      </g>
     </g>
    </g>
    <g id="ytick_35">
     <g id="line2d_52">
      <g>
       <use xlink:href="#m38c23625e8" x="61.3749" y="86.426471" style="stroke: #000000; stroke-width: 0.6"/>
      </g>
     </g>
    </g>
    <g id="ytick_36">
     <g id="line2d_53">
      <g>
       <use xlink:href="#m38c23625e8" x="61.3749" y="82.974508" style="stroke: #000000; stroke-width: 0.6"/>
      </g>
     </g>
    </g>
    <g id="ytick_37">
     <g id="line2d_54">
      <g>
       <use xlink:href="#m38c23625e8" x="61.3749" y="79.929661" style="stroke: #000000; stroke-width: 0.6"/>
      </g>
     </g>
    </g>
    <g id="ytick_38">
     <g id="line2d_55">
      <g>
       <use xlink:href="#m38c23625e8" x="61.3749" y="59.287183" style="stroke: #000000; stroke-width: 0.6"/>
      </g>
     </g>
    </g>
    <g id="ytick_39">
     <g id="line2d_56">
      <g>
       <use xlink:href="#m38c23625e8" x="61.3749" y="48.805374" style="stroke: #000000; stroke-width: 0.6"/>
      </g>
     </g>
    </g>
    <g id="ytick_40">
     <g id="line2d_57">
      <g>
       <use xlink:href="#m38c23625e8" x="61.3749" y="41.368412" style="stroke: #000000; stroke-width: 0.6"/>
      </g>
     </g>
    </g>
    <g id="ytick_41">
     <g id="line2d_58">
      <g>
       <use xlink:href="#m38c23625e8" x="61.3749" y="35.599857" style="stroke: #000000; stroke-width: 0.6"/>
      </g>
     </g>
    </g>
    <g id="ytick_42">
     <g id="line2d_59">
      <g>
       <use xlink:href="#m38c23625e8" x="61.3749" y="30.886604" style="stroke: #000000; stroke-width: 0.6"/>
      </g>
     </g>
    </g>
    <g id="ytick_43">
     <g id="line2d_60">
      <g>
       <use xlink:href="#m38c23625e8" x="61.3749" y="26.901605" style="stroke: #000000; stroke-width: 0.6"/>
      </g>
     </g>
    </g>
    <g id="ytick_44">
     <g id="line2d_61">
      <g>
       <use xlink:href="#m38c23625e8" x="61.3749" y="23.449642" style="stroke: #000000; stroke-width: 0.6"/>
      </g>
     </g>
    </g>
    <g id="ytick_45">
     <g id="line2d_62">
      <g>
       <use xlink:href="#m38c23625e8" x="61.3749" y="20.404795" style="stroke: #000000; stroke-width: 0.6"/>
      </g>
     </g>
    </g>
    <g id="text_13">
     <!-- Events -->
     <g transform="translate(24.49865 182.643531)rotate(-90)scale(0.2 -0.2)">
      <defs>
       <path id="Times-Roman-45" d="M 72 116 
Q 425 153 529 242 
Q 634 331 634 694 
L 634 3541 
Q 634 3881 531 3986 
Q 428 4091 72 4116 
L 72 4234 
L 3472 4234 
L 3494 3316 
L 3331 3316 
Q 3250 3741 3087 3866 
Q 2925 3991 2363 3991 
L 1494 3991 
Q 1353 3991 1320 3945 
Q 1288 3900 1288 3775 
L 1288 2347 
L 2272 2347 
Q 2681 2347 2793 2469 
Q 2906 2591 2975 2963 
L 3125 2963 
L 3125 1481 
L 2975 1481 
Q 2903 1853 2790 1973 
Q 2678 2094 2272 2094 
L 1288 2094 
L 1288 509 
Q 1288 319 1408 284 
Q 1528 250 2128 250 
Q 2778 250 3087 392 
Q 3397 534 3644 1081 
L 3822 1081 
L 3531 0 
L 72 0 
L 72 116 
z
M 1959 4234 
L 1959 4234 
z
" transform="scale(0.015625)"/>
       <path id="Times-Roman-76" d="M 1375 2903 
L 1375 2806 
Q 1213 2788 1145 2756 
Q 1078 2725 1078 2619 
Q 1078 2569 1092 2523 
Q 1106 2478 1141 2391 
L 1791 775 
L 2353 2206 
Q 2394 2309 2430 2421 
Q 2466 2534 2466 2594 
Q 2466 2716 2350 2769 
Q 2281 2797 2163 2806 
L 2163 2903 
L 3050 2903 
L 3050 2806 
Q 2897 2794 2830 2705 
Q 2763 2616 2634 2294 
L 1731 44 
Q 1706 -16 1690 -37 
Q 1675 -59 1647 -59 
Q 1616 -59 1594 -23 
Q 1572 13 1547 66 
L 591 2353 
Q 475 2631 344 2731 
Q 266 2788 116 2806 
L 116 2903 
L 1375 2903 
z
" transform="scale(0.015625)"/>
       <path id="Times-Roman-6e" d="M 116 88 
Q 338 116 427 198 
Q 516 281 516 569 
L 516 2153 
Q 516 2353 478 2434 
Q 419 2553 234 2553 
Q 206 2553 176 2550 
Q 147 2547 103 2541 
L 103 2650 
Q 231 2688 709 2844 
L 1003 2941 
Q 1025 2941 1029 2925 
Q 1034 2909 1034 2881 
L 1034 2422 
Q 1322 2691 1484 2791 
Q 1728 2944 1991 2944 
Q 2203 2944 2378 2822 
Q 2716 2584 2716 1975 
L 2716 516 
Q 2716 291 2806 191 
Q 2897 91 3109 88 
L 3109 0 
L 1775 0 
L 1775 88 
Q 2003 119 2093 214 
Q 2184 309 2184 628 
L 2184 1963 
Q 2184 2231 2084 2407 
Q 1984 2584 1716 2584 
Q 1531 2584 1341 2459 
Q 1234 2388 1066 2222 
L 1066 472 
Q 1066 247 1166 170 
Q 1266 94 1481 88 
L 1481 0 
L 116 0 
L 116 88 
z
M 1603 2944 
L 1603 2944 
z
" transform="scale(0.015625)"/>
       <path id="Times-Roman-74" d="M 1628 2881 
L 1628 2656 
L 991 2656 
L 984 856 
Q 984 619 1025 497 
Q 1100 281 1319 281 
Q 1431 281 1514 334 
Q 1597 388 1703 503 
L 1784 434 
L 1716 341 
Q 1553 122 1372 31 
Q 1191 -59 1022 -59 
Q 653 -59 522 269 
Q 450 447 450 763 
L 450 2656 
L 109 2656 
Q 94 2666 86 2675 
Q 78 2684 78 2700 
Q 78 2731 92 2748 
Q 106 2766 181 2828 
Q 397 3006 492 3117 
Q 588 3228 941 3703 
Q 981 3703 989 3697 
Q 997 3691 997 3650 
L 997 2881 
L 1628 2881 
z
" transform="scale(0.015625)"/>
       <path id="Times-Roman-73" d="M 331 984 
L 434 984 
Q 506 628 628 438 
Q 847 88 1269 88 
Q 1503 88 1639 217 
Q 1775 347 1775 553 
Q 1775 684 1697 806 
Q 1619 928 1422 1044 
L 1072 1244 
Q 688 1450 506 1659 
Q 325 1869 325 2153 
Q 325 2503 575 2728 
Q 825 2953 1203 2953 
Q 1369 2953 1567 2890 
Q 1766 2828 1791 2828 
Q 1847 2828 1872 2843 
Q 1897 2859 1916 2894 
L 1991 2894 
L 2013 2022 
L 1916 2022 
Q 1853 2325 1747 2494 
Q 1553 2806 1188 2806 
Q 969 2806 844 2672 
Q 719 2538 719 2356 
Q 719 2069 1150 1844 
L 1563 1622 
Q 2228 1259 2228 778 
Q 2228 409 1951 175 
Q 1675 -59 1228 -59 
Q 1041 -59 803 3 
Q 566 66 522 66 
Q 484 66 456 39 
Q 428 13 413 -25 
L 331 -25 
L 331 984 
z
M 1247 2953 
L 1247 2953 
z
" transform="scale(0.015625)"/>
      </defs>
      <use xlink:href="#Times-Roman-45"/>
      <use xlink:href="#Times-Roman-76" x="61.083984"/>
      <use xlink:href="#Times-Roman-65" x="111.083984"/>
      <use xlink:href="#Times-Roman-6e" x="155.46875"/>
      <use xlink:href="#Times-Roman-74" x="205.46875"/>
      <use xlink:href="#Times-Roman-73" x="233.251953"/>
     </g>
    </g>
   </g>
   <g id="patch_120">
    <path d="M 61.3749 300.052687 
L 61.3749 10.8 
" style="fill: none; stroke: #bcbcbc; stroke-width: 0.8; stroke-linejoin: miter; stroke-linecap: square"/>
   </g>
   <g id="patch_121">
    <path d="M 565.2 300.052687 
L 565.2 10.8 
" style="fill: none; stroke: #bcbcbc; stroke-width: 0.8; stroke-linejoin: miter; stroke-linecap: square"/>
   </g>
   <g id="patch_122">
    <path d="M 61.3749 300.052687 
L 565.2 300.052687 
" style="fill: none; stroke: #bcbcbc; stroke-width: 0.8; stroke-linejoin: miter; stroke-linecap: square"/>
   </g>
   <g id="patch_123">
    <path d="M 61.3749 10.8 
L 565.2 10.8 
" style="fill: none; stroke: #bcbcbc; stroke-width: 0.8; stroke-linejoin: miter; stroke-linecap: square"/>
   </g>
   <g id="legend_1">
    <g id="patch_124">
     <path d="M 318.425625 101.761875 
L 552.6 101.761875 
Q 556.2 101.761875 556.2 98.161875 
L 556.2 23.4 
Q 556.2 19.8 552.6 19.8 
L 318.425625 19.8 
Q 314.825625 19.8 314.825625 23.4 
L 314.825625 98.161875 
Q 314.825625 101.761875 318.425625 101.761875 
z
" style="fill: #eeeeee; opacity: 0.8; stroke: #cccccc; stroke-width: 0.5; stroke-linejoin: miter"/>
    </g>
    <g id="patch_125">
     <path d="M 322.025625 39.6 
L 358.025625 39.6 
L 358.025625 27 
L 322.025625 27 
z
" style="fill: #348abd; opacity: 0.7"/>
    </g>
    <g id="text_14">
     <!-- Total dataset -->
     <g transform="translate(372.425625 39.6)scale(0.18 -0.18)">
      <defs>
       <path id="Times-Roman-54" d="M 125 4234 
L 3741 4234 
L 3775 3147 
L 3622 3147 
Q 3509 3659 3336 3814 
Q 3163 3969 2606 3969 
L 2250 3969 
L 2250 694 
Q 2250 322 2365 233 
Q 2481 144 2872 116 
L 2872 0 
L 1006 0 
L 1006 116 
Q 1413 147 1513 250 
Q 1613 353 1613 769 
L 1613 3969 
L 1256 3969 
Q 725 3969 533 3816 
Q 341 3663 244 3147 
L 88 3147 
L 125 4234 
z
" transform="scale(0.015625)"/>
       <path id="Times-Roman-6f" d="M 163 1450 
Q 163 2072 558 2501 
Q 953 2931 1575 2931 
Q 2194 2931 2600 2525 
Q 3006 2119 3006 1444 
Q 3006 822 2612 362 
Q 2219 -97 1594 -97 
Q 994 -97 578 343 
Q 163 784 163 1450 
z
M 1488 2744 
Q 1241 2744 1059 2581 
Q 747 2297 747 1600 
Q 747 1044 998 562 
Q 1250 81 1697 81 
Q 2047 81 2236 403 
Q 2425 725 2425 1247 
Q 2425 1788 2184 2266 
Q 1944 2744 1488 2744 
z
M 1603 2931 
L 1603 2931 
z
" transform="scale(0.015625)"/>
       <path id="Times-Roman-61" d="M 1834 1731 
Q 1475 1613 1241 1469 
Q 791 1191 791 838 
Q 791 553 978 419 
Q 1100 331 1250 331 
Q 1456 331 1645 447 
Q 1834 563 1834 741 
L 1834 1731 
z
M 234 622 
Q 234 1075 688 1378 
Q 975 1566 1834 1888 
L 1834 2153 
Q 1834 2472 1772 2597 
Q 1666 2806 1331 2806 
Q 1172 2806 1028 2725 
Q 884 2641 884 2494 
Q 884 2456 900 2367 
Q 916 2278 916 2253 
Q 916 2078 800 2009 
Q 734 1969 644 1969 
Q 503 1969 428 2061 
Q 353 2153 353 2266 
Q 353 2484 623 2723 
Q 894 2963 1416 2963 
Q 2022 2963 2238 2569 
Q 2353 2353 2353 1941 
L 2353 688 
Q 2353 506 2378 438 
Q 2419 316 2547 316 
Q 2619 316 2666 337 
Q 2713 359 2828 444 
L 2828 281 
Q 2728 159 2613 81 
Q 2438 -38 2256 -38 
Q 2044 -38 1948 100 
Q 1853 238 1844 428 
Q 1606 222 1438 122 
Q 1153 -47 897 -47 
Q 628 -47 431 142 
Q 234 331 234 622 
z
M 1425 2963 
L 1425 2963 
z
" transform="scale(0.015625)"/>
       <path id="Times-Roman-6c" d="M 131 88 
Q 422 116 525 205 
Q 628 294 628 553 
L 628 3606 
Q 628 3813 594 3891 
Q 531 4022 341 4022 
Q 297 4022 245 4012 
Q 194 4003 116 3984 
L 116 4088 
Q 538 4200 1131 4388 
Q 1153 4388 1158 4369 
Q 1163 4350 1163 4288 
L 1163 541 
Q 1163 269 1256 189 
Q 1350 109 1644 88 
L 1644 0 
L 131 0 
L 131 88 
z
" transform="scale(0.015625)"/>
       <path id="Times-Roman-64" d="M 1516 2953 
Q 1744 2953 1934 2853 
Q 2059 2788 2175 2672 
L 2175 3666 
Q 2175 3856 2133 3928 
Q 2091 4000 1931 4000 
Q 1894 4000 1866 3997 
Q 1838 3994 1741 3984 
L 1741 4088 
L 1997 4153 
Q 2138 4191 2278 4231 
Q 2419 4272 2525 4309 
Q 2575 4325 2691 4369 
L 2709 4363 
L 2703 4034 
Q 2700 3856 2697 3667 
Q 2694 3478 2694 3294 
L 2688 741 
Q 2688 538 2738 456 
Q 2788 375 3003 375 
Q 3038 375 3072 376 
Q 3106 378 3141 384 
L 3141 281 
Q 3122 275 2688 125 
L 2197 -59 
L 2175 -31 
L 2175 353 
Q 2000 163 1872 81 
Q 1644 -59 1344 -59 
Q 813 -59 483 352 
Q 153 763 153 1303 
Q 153 1981 548 2467 
Q 944 2953 1516 2953 
z
M 1631 278 
Q 1875 278 2025 422 
Q 2175 566 2175 694 
L 2175 2034 
Q 2175 2441 1958 2608 
Q 1741 2775 1534 2775 
Q 1141 2775 922 2426 
Q 703 2078 703 1569 
Q 703 1066 936 672 
Q 1169 278 1631 278 
z
" transform="scale(0.015625)"/>
      </defs>
      <use xlink:href="#Times-Roman-54"/>
      <use xlink:href="#Times-Roman-6f" x="61.083984"/>
      <use xlink:href="#Times-Roman-74" x="111.083984"/>
      <use xlink:href="#Times-Roman-61" x="138.867188"/>
      <use xlink:href="#Times-Roman-6c" x="183.251953"/>
      <use xlink:href="#Times-Roman-20" x="211.035156"/>
      <use xlink:href="#Times-Roman-64" x="236.035156"/>
      <use xlink:href="#Times-Roman-61" x="286.035156"/>
      <use xlink:href="#Times-Roman-74" x="330.419922"/>
      <use xlink:href="#Times-Roman-61" x="358.203125"/>
      <use xlink:href="#Times-Roman-73" x="402.587891"/>
      <use xlink:href="#Times-Roman-65" x="441.503906"/>
      <use xlink:href="#Times-Roman-74" x="485.888672"/>
     </g>
    </g>
    <g id="patch_126">
     <path d="M 322.025625 65.120625 
L 358.025625 65.120625 
L 358.025625 52.520625 
L 322.025625 52.520625 
z
" style="fill: #a60628; opacity: 0.7"/>
    </g>
    <g id="text_15">
     <!-- after pre-selection -->
     <g transform="translate(372.425625 65.120625)scale(0.18 -0.18)">
      <defs>
       <path id="Times-Roman-66" d="M 125 88 
Q 456 103 561 211 
Q 666 319 666 666 
L 666 2672 
L 131 2672 
L 131 2881 
L 666 2881 
Q 666 3375 800 3716 
Q 1056 4369 1741 4369 
Q 2016 4369 2233 4259 
Q 2450 4150 2450 3966 
Q 2450 3863 2375 3781 
Q 2300 3700 2194 3700 
Q 2103 3700 2037 3754 
Q 1972 3809 1881 3947 
L 1828 4028 
Q 1784 4094 1725 4139 
Q 1666 4184 1559 4184 
Q 1322 4184 1238 3950 
Q 1191 3825 1191 3622 
L 1191 2881 
L 1975 2881 
L 1975 2672 
L 1197 2672 
L 1197 666 
Q 1197 313 1292 214 
Q 1388 116 1791 88 
L 1791 0 
L 125 0 
L 125 88 
z
" transform="scale(0.015625)"/>
       <path id="Times-Roman-72" d="M 28 103 
Q 316 128 409 204 
Q 503 281 503 531 
L 503 1941 
Q 503 2250 445 2383 
Q 388 2516 234 2516 
Q 203 2516 151 2508 
Q 100 2500 44 2488 
L 44 2591 
Q 222 2653 409 2718 
Q 597 2784 669 2813 
Q 825 2872 991 2947 
Q 1013 2947 1017 2931 
Q 1022 2916 1022 2866 
L 1022 2353 
Q 1222 2631 1408 2787 
Q 1594 2944 1794 2944 
Q 1953 2944 2053 2848 
Q 2153 2753 2153 2609 
Q 2153 2481 2076 2393 
Q 2000 2306 1884 2306 
Q 1766 2306 1645 2415 
Q 1525 2525 1456 2525 
Q 1347 2525 1187 2348 
Q 1028 2172 1028 1984 
L 1028 575 
Q 1028 306 1153 201 
Q 1278 97 1569 103 
L 1569 0 
L 28 0 
L 28 103 
z
" transform="scale(0.015625)"/>
       <path id="Times-Roman-70" d="M 1022 575 
Q 1103 363 1264 258 
Q 1425 153 1644 153 
Q 1981 153 2220 489 
Q 2459 825 2459 1425 
Q 2459 2000 2211 2284 
Q 1963 2569 1634 2569 
Q 1403 2569 1212 2426 
Q 1022 2284 1022 2147 
L 1022 575 
z
M 28 -1291 
Q 322 -1272 401 -1165 
Q 481 -1059 481 -831 
L 481 2169 
Q 481 2406 423 2473 
Q 366 2541 206 2541 
Q 172 2541 142 2537 
Q 113 2534 56 2525 
L 56 2628 
L 353 2725 
Q 369 2728 981 2941 
Q 997 2941 1005 2927 
Q 1013 2913 1013 2894 
L 1013 2472 
Q 1219 2678 1375 2778 
Q 1656 2953 1953 2953 
Q 2384 2953 2695 2586 
Q 3006 2219 3006 1581 
Q 3006 956 2632 446 
Q 2259 -63 1694 -63 
Q 1519 -63 1391 -19 
Q 1191 47 1022 222 
L 1022 -800 
Q 1022 -1116 1125 -1187 
Q 1228 -1259 1575 -1284 
L 1575 -1394 
L 28 -1394 
L 28 -1291 
z
" transform="scale(0.015625)"/>
       <path id="Times-Roman-2d" d="M 250 1644 
L 1822 1644 
L 1822 1244 
L 250 1244 
L 250 1644 
z
" transform="scale(0.015625)"/>
       <path id="Times-Roman-63" d="M 1591 2947 
Q 1981 2947 2264 2745 
Q 2547 2544 2547 2303 
Q 2547 2200 2475 2111 
Q 2403 2022 2253 2022 
Q 2144 2022 2061 2097 
Q 1978 2172 1941 2316 
L 1903 2466 
Q 1863 2631 1763 2700 
Q 1659 2766 1491 2766 
Q 1134 2766 889 2455 
Q 644 2144 644 1628 
Q 644 1156 914 781 
Q 1184 406 1644 406 
Q 1969 406 2222 619 
Q 2366 741 2547 1006 
L 2634 953 
Q 2456 578 2259 359 
Q 1881 -59 1384 -59 
Q 897 -59 522 325 
Q 147 709 147 1369 
Q 147 2016 556 2481 
Q 966 2947 1591 2947 
z
M 1453 2947 
L 1453 2947 
z
" transform="scale(0.015625)"/>
       <path id="Times-Roman-69" d="M 525 4034 
Q 525 4169 619 4266 
Q 713 4363 850 4363 
Q 984 4363 1079 4267 
Q 1175 4172 1175 4034 
Q 1175 3900 1079 3804 
Q 984 3709 850 3709 
Q 713 3709 619 3804 
Q 525 3900 525 4034 
z
M 125 88 
Q 459 119 546 201 
Q 634 284 634 650 
L 634 2141 
Q 634 2344 606 2422 
Q 559 2550 409 2550 
Q 375 2550 342 2544 
Q 309 2538 153 2494 
L 153 2591 
L 288 2634 
Q 834 2813 1050 2903 
Q 1138 2941 1163 2941 
Q 1169 2919 1169 2894 
L 1169 650 
Q 1169 294 1255 203 
Q 1341 113 1644 88 
L 1644 0 
L 125 0 
L 125 88 
z
" transform="scale(0.015625)"/>
      </defs>
      <use xlink:href="#Times-Roman-61"/>
      <use xlink:href="#Times-Roman-66" x="44.384766"/>
      <use xlink:href="#Times-Roman-74" x="77.685547"/>
      <use xlink:href="#Times-Roman-65" x="105.46875"/>
      <use xlink:href="#Times-Roman-72" x="149.853516"/>
      <use xlink:href="#Times-Roman-20" x="183.154297"/>
      <use xlink:href="#Times-Roman-70" x="208.154297"/>
      <use xlink:href="#Times-Roman-72" x="258.154297"/>
      <use xlink:href="#Times-Roman-65" x="291.455078"/>
      <use xlink:href="#Times-Roman-2d" x="335.839844"/>
      <use xlink:href="#Times-Roman-73" x="369.140625"/>
      <use xlink:href="#Times-Roman-65" x="408.056641"/>
      <use xlink:href="#Times-Roman-6c" x="452.441406"/>
      <use xlink:href="#Times-Roman-65" x="480.224609"/>
      <use xlink:href="#Times-Roman-63" x="524.609375"/>
      <use xlink:href="#Times-Roman-74" x="568.994141"/>
      <use xlink:href="#Times-Roman-69" x="596.777344"/>
      <use xlink:href="#Times-Roman-6f" x="624.560547"/>
      <use xlink:href="#Times-Roman-6e" x="674.560547"/>
     </g>
    </g>
    <g id="patch_127">
     <path d="M 322.025625 90.64125 
L 358.025625 90.64125 
L 358.025625 78.04125 
L 322.025625 78.04125 
z
" style="fill: #7a68a6; opacity: 0.7"/>
    </g>
    <g id="text_16">
     <!-- after pre-selection + ML -->
     <g transform="translate(372.425625 90.64125)scale(0.18 -0.18)">
      <defs>
       <path id="Times-Roman-2b" d="M 1591 3234 
L 2028 3234 
L 2028 1834 
L 3422 1834 
L 3422 1397 
L 2028 1397 
L 2028 0 
L 1591 0 
L 1591 1397 
L 191 1397 
L 191 1834 
L 1591 1834 
L 1591 3234 
z
" transform="scale(0.015625)"/>
       <path id="Times-Roman-4c" d="M 72 116 
Q 425 153 529 242 
Q 634 331 634 694 
L 634 3541 
Q 634 3881 531 3986 
Q 428 4091 72 4116 
L 72 4234 
L 1881 4234 
L 1881 4116 
Q 1528 4097 1408 4000 
Q 1288 3903 1288 3584 
L 1288 509 
Q 1288 403 1323 342 
Q 1359 281 1481 266 
Q 1553 256 1633 253 
Q 1713 250 1931 250 
Q 2784 250 3084 390 
Q 3384 531 3666 1109 
L 3828 1109 
L 3516 0 
L 72 0 
L 72 116 
z
" transform="scale(0.015625)"/>
      </defs>
      <use xlink:href="#Times-Roman-61"/>
      <use xlink:href="#Times-Roman-66" x="44.384766"/>
      <use xlink:href="#Times-Roman-74" x="77.685547"/>
      <use xlink:href="#Times-Roman-65" x="105.46875"/>
      <use xlink:href="#Times-Roman-72" x="149.853516"/>
      <use xlink:href="#Times-Roman-20" x="183.154297"/>
      <use xlink:href="#Times-Roman-70" x="208.154297"/>
      <use xlink:href="#Times-Roman-72" x="258.154297"/>
      <use xlink:href="#Times-Roman-65" x="291.455078"/>
      <use xlink:href="#Times-Roman-2d" x="335.839844"/>
      <use xlink:href="#Times-Roman-73" x="369.140625"/>
      <use xlink:href="#Times-Roman-65" x="408.056641"/>
      <use xlink:href="#Times-Roman-6c" x="452.441406"/>
      <use xlink:href="#Times-Roman-65" x="480.224609"/>
      <use xlink:href="#Times-Roman-63" x="524.609375"/>
      <use xlink:href="#Times-Roman-74" x="568.994141"/>
      <use xlink:href="#Times-Roman-69" x="596.777344"/>
      <use xlink:href="#Times-Roman-6f" x="624.560547"/>
      <use xlink:href="#Times-Roman-6e" x="674.560547"/>
      <use xlink:href="#Times-Roman-20" x="724.560547"/>
      <use xlink:href="#Times-Roman-2b" x="749.560547"/>
      <use xlink:href="#Times-Roman-20" x="805.957031"/>
      <use xlink:href="#Times-Roman-4d" x="830.957031"/>
      <use xlink:href="#Times-Roman-4c" x="919.873047"/>
     </g>
    </g>
   </g>
  </g>
 </g>
 <defs>
  <clipPath id="pf01d7fda4b">
   <rect x="61.3749" y="10.8" width="503.8251" height="289.252687"/>
  </clipPath>
 </defs>
</svg>
