<?xml version="1.0" encoding="utf-8" standalone="no"?>
<!DOCTYPE svg PUBLIC "-//W3C//DTD SVG 1.1//EN"
  "http://www.w3.org/Graphics/SVG/1.1/DTD/svg11.dtd">
<svg xmlns:xlink="http://www.w3.org/1999/xlink" width="936pt" height="720pt" viewBox="0 0 936 720" xmlns="http://www.w3.org/2000/svg" version="1.1">
 <metadata>
  <rdf:RDF xmlns:dc="http://purl.org/dc/elements/1.1/" xmlns:cc="http://creativecommons.org/ns#" xmlns:rdf="http://www.w3.org/1999/02/22-rdf-syntax-ns#">
   <cc:Work>
    <dc:type rdf:resource="http://purl.org/dc/dcmitype/StillImage"/>
    <dc:date>2023-03-19T20:01:36.619597</dc:date>
    <dc:format>image/svg+xml</dc:format>
    <dc:creator>
     <cc:Agent>
      <dc:title>Matplotlib v3.5.2, https://matplotlib.org/</dc:title>
     </cc:Agent>
    </dc:creator>
   </cc:Work>
  </rdf:RDF>
 </metadata>
 <defs>
  <style type="text/css">*{stroke-linejoin: round; stroke-linecap: butt}</style>
 </defs>
 <g id="figure_1">
  <g id="patch_1">
   <path d="M 0 720 
L 936 720 
L 936 0 
L 0 0 
z
" style="fill: #ffffff"/>
  </g>
  <g id="axes_1">
   <g id="patch_2">
    <path d="M 117 640.8 
L 842.4 640.8 
L 842.4 86.4 
L 117 86.4 
z
" style="fill: #eeeeee"/>
   </g>
   <g id="PolyCollection_1">
    <defs>
     <path id="m4c0eefb962" d="M 207.690937 -119.517293 
L 207.659063 -119.517293 
L 207.599472 -124.303046 
L 207.443838 -129.088799 
L 207.196239 -133.874551 
L 206.956289 -138.660304 
L 206.810265 -143.446057 
L 206.73312 -148.23181 
L 206.661704 -153.017562 
L 206.576957 -157.803315 
L 206.482745 -162.589068 
L 206.366754 -167.37482 
L 206.210285 -172.160573 
L 206.029371 -176.946326 
L 205.861954 -181.732078 
L 205.716503 -186.517831 
L 205.548545 -191.303584 
L 205.310098 -196.089337 
L 205.009215 -200.875089 
L 204.677893 -205.660842 
L 204.320529 -210.446595 
L 203.922693 -215.232347 
L 203.48077 -220.0181 
L 203.007366 -224.803853 
L 202.484025 -229.589605 
L 201.843327 -234.375358 
L 201.022895 -239.161111 
L 200.011722 -243.946864 
L 198.836026 -248.732616 
L 197.48547 -253.518369 
L 195.9139 -258.304122 
L 194.04218 -263.089874 
L 191.739245 -267.875627 
L 188.884373 -272.66138 
L 185.370392 -277.447132 
L 181.137334 -282.232885 
L 176.192475 -287.018638 
L 170.468938 -291.804391 
L 163.993149 -296.590143 
L 157.134864 -301.375896 
L 150.386798 -306.161649 
L 144.206246 -310.947401 
L 139.143539 -315.733154 
L 135.924112 -320.518907 
L 135.135 -325.304659 
L 136.865681 -330.090412 
L 140.953084 -334.876165 
L 146.986911 -339.661918 
L 153.914063 -344.44767 
L 160.520894 -349.233423 
L 166.345606 -354.019176 
L 171.53581 -358.804928 
L 176.134165 -363.590681 
L 180.029708 -368.376434 
L 183.281839 -373.162187 
L 186.103357 -377.947939 
L 188.617188 -382.733692 
L 190.743228 -387.519445 
L 192.407529 -392.305197 
L 193.828938 -397.09095 
L 195.240639 -401.876703 
L 196.522119 -406.662455 
L 197.495272 -411.448208 
L 198.186717 -416.233961 
L 198.727328 -421.019714 
L 199.260155 -425.805466 
L 199.822306 -430.591219 
L 200.362863 -435.376972 
L 200.872664 -440.162724 
L 201.376082 -444.948477 
L 201.844399 -449.73423 
L 202.209228 -454.519982 
L 202.509856 -459.305735 
L 202.848919 -464.091488 
L 203.192353 -468.877241 
L 203.414844 -473.662993 
L 203.504964 -478.448746 
L 203.599509 -483.234499 
L 203.798213 -488.020251 
L 204.053934 -492.806004 
L 204.277447 -497.591757 
L 204.442194 -502.377509 
L 204.564326 -507.163262 
L 204.645287 -511.949015 
L 204.682285 -516.734768 
L 204.712544 -521.52052 
L 204.801101 -526.306273 
L 204.97525 -531.092026 
L 205.173079 -535.877778 
L 205.321847 -540.663531 
L 205.432176 -545.449284 
L 205.526391 -550.235036 
L 205.586164 -555.020789 
L 205.610451 -559.806542 
L 205.629636 -564.592295 
L 205.706975 -569.378047 
L 205.961893 -574.1638 
L 206.464864 -578.949553 
L 207.053808 -583.735305 
L 207.461822 -588.521058 
L 207.628617 -593.306811 
L 207.721383 -593.306811 
L 207.721383 -593.306811 
L 207.888178 -588.521058 
L 208.296192 -583.735305 
L 208.885136 -578.949553 
L 209.388107 -574.1638 
L 209.643025 -569.378047 
L 209.720364 -564.592295 
L 209.739549 -559.806542 
L 209.763836 -555.020789 
L 209.823609 -550.235036 
L 209.917824 -545.449284 
L 210.028153 -540.663531 
L 210.176921 -535.877778 
L 210.37475 -531.092026 
L 210.548899 -526.306273 
L 210.637456 -521.52052 
L 210.667715 -516.734768 
L 210.704713 -511.949015 
L 210.785674 -507.163262 
L 210.907806 -502.377509 
L 211.072553 -497.591757 
L 211.296066 -492.806004 
L 211.551787 -488.020251 
L 211.750491 -483.234499 
L 211.845036 -478.448746 
L 211.935156 -473.662993 
L 212.157647 -468.877241 
L 212.501081 -464.091488 
L 212.840144 -459.305735 
L 213.140772 -454.519982 
L 213.505601 -449.73423 
L 213.973918 -444.948477 
L 214.477336 -440.162724 
L 214.987137 -435.376972 
L 215.527694 -430.591219 
L 216.089845 -425.805466 
L 216.622672 -421.019714 
L 217.163283 -416.233961 
L 217.854728 -411.448208 
L 218.827881 -406.662455 
L 220.109361 -401.876703 
L 221.521062 -397.09095 
L 222.942471 -392.305197 
L 224.606772 -387.519445 
L 226.732812 -382.733692 
L 229.246643 -377.947939 
L 232.068161 -373.162187 
L 235.320292 -368.376434 
L 239.215835 -363.590681 
L 243.81419 -358.804928 
L 249.004394 -354.019176 
L 254.829106 -349.233423 
L 261.435937 -344.44767 
L 268.363089 -339.661918 
L 274.396916 -334.876165 
L 278.484319 -330.090412 
L 280.215 -325.304659 
L 279.425888 -320.518907 
L 276.206461 -315.733154 
L 271.143754 -310.947401 
L 264.963202 -306.161649 
L 258.215136 -301.375896 
L 251.356851 -296.590143 
L 244.881062 -291.804391 
L 239.157525 -287.018638 
L 234.212666 -282.232885 
L 229.979608 -277.447132 
L 226.465627 -272.66138 
L 223.610755 -267.875627 
L 221.30782 -263.089874 
L 219.4361 -258.304122 
L 217.86453 -253.518369 
L 216.513974 -248.732616 
L 215.338278 -243.946864 
L 214.327105 -239.161111 
L 213.506673 -234.375358 
L 212.865975 -229.589605 
L 212.342634 -224.803853 
L 211.86923 -220.0181 
L 211.427307 -215.232347 
L 211.029471 -210.446595 
L 210.672107 -205.660842 
L 210.340785 -200.875089 
L 210.039902 -196.089337 
L 209.801455 -191.303584 
L 209.633497 -186.517831 
L 209.488046 -181.732078 
L 209.320629 -176.946326 
L 209.139715 -172.160573 
L 208.983246 -167.37482 
L 208.867255 -162.589068 
L 208.773043 -157.803315 
L 208.688296 -153.017562 
L 208.61688 -148.23181 
L 208.539735 -143.446057 
L 208.393711 -138.660304 
L 208.153761 -133.874551 
L 207.906162 -129.088799 
L 207.750528 -124.303046 
L 207.690937 -119.517293 
z
" style="stroke: #2e2e2e; stroke-width: 2"/>
    </defs>
    <g clip-path="url(#p7c27265f70)">
     <use xlink:href="#m4c0eefb962" x="0" y="720" style="fill: #4586ac; stroke: #2e2e2e; stroke-width: 2"/>
    </g>
   </g>
   <g id="PolyCollection_2">
    <defs>
     <path id="mecf478fdcb" d="M 389.086745 -119.87734 
L 388.963255 -119.87734 
L 388.721306 -124.708282 
L 388.107787 -129.539224 
L 387.216359 -134.370165 
L 386.469405 -139.201107 
L 386.10151 -144.032049 
L 385.947554 -148.862991 
L 385.778225 -153.693933 
L 385.551467 -158.524875 
L 385.322071 -163.355817 
L 385.113306 -168.186759 
L 384.934639 -173.017701 
L 384.771686 -177.848643 
L 384.556384 -182.679585 
L 384.198895 -187.510527 
L 383.646163 -192.341469 
L 382.966641 -197.172411 
L 382.314415 -202.003353 
L 381.74678 -206.834295 
L 381.220203 -211.665237 
L 380.72428 -216.496179 
L 380.307632 -221.327121 
L 379.997384 -226.158063 
L 379.712146 -230.989005 
L 379.307491 -235.819946 
L 378.691678 -240.650888 
L 377.834662 -245.48183 
L 376.730007 -250.312772 
L 375.359609 -255.143714 
L 373.694023 -259.974656 
L 371.697936 -264.805598 
L 369.2587 -269.63654 
L 366.253724 -274.467482 
L 362.644138 -279.298424 
L 358.403073 -284.129366 
L 353.461495 -288.960308 
L 347.743852 -293.79125 
L 341.313131 -298.622192 
L 334.471938 -303.453134 
L 327.734001 -308.284076 
L 321.923642 -313.115018 
L 317.982092 -317.94596 
L 316.485 -322.776902 
L 317.547584 -327.607844 
L 320.795386 -332.438786 
L 325.563164 -337.269727 
L 331.282151 -342.100669 
L 337.521269 -346.931611 
L 343.807331 -351.762553 
L 349.585437 -356.593495 
L 354.488867 -361.424437 
L 358.551531 -366.255379 
L 362.000108 -371.086321 
L 364.956947 -375.917263 
L 367.436004 -380.748205 
L 369.495576 -385.579147 
L 371.23101 -390.410089 
L 372.683876 -395.241031 
L 373.913933 -400.071973 
L 375.018117 -404.902915 
L 376.002061 -409.733857 
L 376.837859 -414.564799 
L 377.585238 -419.395741 
L 378.280628 -424.226683 
L 378.874634 -429.057625 
L 379.378483 -433.888567 
L 379.855354 -438.719509 
L 380.301994 -443.55045 
L 380.679293 -448.381392 
L 380.976459 -453.212334 
L 381.246537 -458.043276 
L 381.548726 -462.874218 
L 381.863776 -467.70516 
L 382.140509 -472.536102 
L 382.369023 -477.367044 
L 382.557241 -482.197986 
L 382.700592 -487.028928 
L 382.815251 -491.85987 
L 382.952888 -496.690812 
L 383.12042 -501.521754 
L 383.259605 -506.352696 
L 383.333116 -511.183638 
L 383.386755 -516.01458 
L 383.49355 -520.845522 
L 383.644318 -525.676464 
L 383.79144 -530.507406 
L 383.936355 -535.338348 
L 384.089374 -540.16929 
L 384.236147 -545.000231 
L 384.349984 -549.831173 
L 384.398439 -554.662115 
L 384.376594 -559.493057 
L 384.363373 -564.323999 
L 384.507624 -569.154941 
L 385.02187 -573.985883 
L 386.070989 -578.816825 
L 387.393136 -583.647767 
L 388.400879 -588.478709 
L 388.866656 -593.309651 
L 388.999017 -598.140593 
L 389.050983 -598.140593 
L 389.050983 -598.140593 
L 389.183344 -593.309651 
L 389.649121 -588.478709 
L 390.656864 -583.647767 
L 391.979011 -578.816825 
L 393.02813 -573.985883 
L 393.542376 -569.154941 
L 393.686627 -564.323999 
L 393.673406 -559.493057 
L 393.651561 -554.662115 
L 393.700016 -549.831173 
L 393.813853 -545.000231 
L 393.960626 -540.16929 
L 394.113645 -535.338348 
L 394.25856 -530.507406 
L 394.405682 -525.676464 
L 394.55645 -520.845522 
L 394.663245 -516.01458 
L 394.716884 -511.183638 
L 394.790395 -506.352696 
L 394.92958 -501.521754 
L 395.097112 -496.690812 
L 395.234749 -491.85987 
L 395.349408 -487.028928 
L 395.492759 -482.197986 
L 395.680977 -477.367044 
L 395.909491 -472.536102 
L 396.186224 -467.70516 
L 396.501274 -462.874218 
L 396.803463 -458.043276 
L 397.073541 -453.212334 
L 397.370707 -448.381392 
L 397.748006 -443.55045 
L 398.194646 -438.719509 
L 398.671517 -433.888567 
L 399.175366 -429.057625 
L 399.769372 -424.226683 
L 400.464762 -419.395741 
L 401.212141 -414.564799 
L 402.047939 -409.733857 
L 403.031883 -404.902915 
L 404.136067 -400.071973 
L 405.366124 -395.241031 
L 406.81899 -390.410089 
L 408.554424 -385.579147 
L 410.613996 -380.748205 
L 413.093053 -375.917263 
L 416.049892 -371.086321 
L 419.498469 -366.255379 
L 423.561133 -361.424437 
L 428.464563 -356.593495 
L 434.242669 -351.762553 
L 440.528731 -346.931611 
L 446.767849 -342.100669 
L 452.486836 -337.269727 
L 457.254614 -332.438786 
L 460.502416 -327.607844 
L 461.565 -322.776902 
L 460.067908 -317.94596 
L 456.126358 -313.115018 
L 450.315999 -308.284076 
L 443.578062 -303.453134 
L 436.736869 -298.622192 
L 430.306148 -293.79125 
L 424.588505 -288.960308 
L 419.646927 -284.129366 
L 415.405862 -279.298424 
L 411.796276 -274.467482 
L 408.7913 -269.63654 
L 406.352064 -264.805598 
L 404.355977 -259.974656 
L 402.690391 -255.143714 
L 401.319993 -250.312772 
L 400.215338 -245.48183 
L 399.358322 -240.650888 
L 398.742509 -235.819946 
L 398.337854 -230.989005 
L 398.052616 -226.158063 
L 397.742368 -221.327121 
L 397.32572 -216.496179 
L 396.829797 -211.665237 
L 396.30322 -206.834295 
L 395.735585 -202.003353 
L 395.083359 -197.172411 
L 394.403837 -192.341469 
L 393.851105 -187.510527 
L 393.493616 -182.679585 
L 393.278314 -177.848643 
L 393.115361 -173.017701 
L 392.936694 -168.186759 
L 392.727929 -163.355817 
L 392.498533 -158.524875 
L 392.271775 -153.693933 
L 392.102446 -148.862991 
L 391.94849 -144.032049 
L 391.580595 -139.201107 
L 390.833641 -134.370165 
L 389.942213 -129.539224 
L 389.328694 -124.708282 
L 389.086745 -119.87734 
z
" style="stroke: #2e2e2e; stroke-width: 2"/>
    </defs>
    <g clip-path="url(#p7c27265f70)">
     <use xlink:href="#mecf478fdcb" x="0" y="720" style="fill: #921a33; stroke: #2e2e2e; stroke-width: 2"/>
    </g>
   </g>
   <g id="PolyCollection_3">
    <defs>
     <path id="m15613d77a7" d="M 571.151565 -126.635282 
L 569.598435 -126.635282 
L 558.327833 -131.275503 
L 539.318812 -135.915723 
L 535.186242 -140.555944 
L 534.573172 -145.196165 
L 533.663842 -149.836386 
L 532.530999 -154.476606 
L 531.15482 -159.116827 
L 530.112208 -163.757048 
L 528.235727 -168.397269 
L 526.344179 -173.03749 
L 524.259165 -177.67771 
L 521.767836 -182.317931 
L 519.489986 -186.958152 
L 516.569998 -191.598373 
L 513.319457 -196.238593 
L 509.749328 -200.878814 
L 505.926009 -205.519035 
L 502.566177 -210.159256 
L 499.028133 -214.799476 
L 497.835 -219.439697 
L 499.988003 -224.079918 
L 509.272505 -228.720139 
L 526.390846 -233.360359 
L 543.019296 -238.00058 
L 553.19951 -242.640801 
L 558.490883 -247.281022 
L 561.263225 -251.921242 
L 562.982309 -256.561463 
L 564.206921 -261.201684 
L 565.134845 -265.841905 
L 565.741575 -270.482125 
L 566.365006 -275.122346 
L 566.660438 -279.762567 
L 567.126503 -284.402788 
L 567.461538 -289.043008 
L 567.781613 -293.683229 
L 568.154277 -298.32345 
L 568.376364 -302.963671 
L 568.480915 -307.603891 
L 568.614731 -312.244112 
L 568.828099 -316.884333 
L 569.022639 -321.524554 
L 569.237791 -326.164774 
L 569.435075 -330.804995 
L 569.546885 -335.445216 
L 569.677295 -340.085437 
L 569.80766 -344.725657 
L 569.953164 -349.365878 
L 570.061828 -354.006099 
L 570.201288 -358.64632 
L 570.307635 -363.28654 
L 570.323173 -367.926761 
L 570.328375 -372.566982 
L 570.339403 -377.207203 
L 570.33595 -381.847423 
L 570.327679 -386.487644 
L 570.333571 -391.127865 
L 570.327955 -395.768086 
L 570.335635 -400.408306 
L 570.353785 -405.048527 
L 570.336283 -409.688748 
L 570.328049 -414.328969 
L 570.333447 -418.969189 
L 570.350111 -423.60941 
L 570.345162 -428.249631 
L 570.340714 -432.889852 
L 570.333976 -437.530072 
L 570.344689 -442.170293 
L 570.350184 -446.810514 
L 570.347531 -451.450735 
L 570.339377 -456.090956 
L 570.342383 -460.731176 
L 570.352515 -465.371397 
L 570.347153 -470.011618 
L 570.349939 -474.651839 
L 570.339191 -479.292059 
L 570.336289 -483.93228 
L 570.335348 -488.572501 
L 570.337041 -493.212722 
L 570.343493 -497.852942 
L 570.345068 -502.493163 
L 570.341805 -507.133384 
L 570.348115 -511.773605 
L 570.337402 -516.413825 
L 570.33816 -521.054046 
L 570.339988 -525.694267 
L 570.34514 -530.334488 
L 570.339864 -534.974708 
L 570.338005 -539.614929 
L 570.345752 -544.25515 
L 570.340432 -548.895371 
L 570.337665 -553.535591 
L 570.334818 -558.175812 
L 570.330848 -562.816033 
L 570.341587 -567.456254 
L 570.346297 -572.096474 
L 570.352448 -576.736695 
L 570.364728 -581.376916 
L 570.374118 -586.017137 
L 570.375882 -586.017137 
L 570.375882 -586.017137 
L 570.385272 -581.376916 
L 570.397552 -576.736695 
L 570.403703 -572.096474 
L 570.408413 -567.456254 
L 570.419152 -562.816033 
L 570.415182 -558.175812 
L 570.412335 -553.535591 
L 570.409568 -548.895371 
L 570.404248 -544.25515 
L 570.411995 -539.614929 
L 570.410136 -534.974708 
L 570.40486 -530.334488 
L 570.410012 -525.694267 
L 570.41184 -521.054046 
L 570.412598 -516.413825 
L 570.401885 -511.773605 
L 570.408195 -507.133384 
L 570.404932 -502.493163 
L 570.406507 -497.852942 
L 570.412959 -493.212722 
L 570.414652 -488.572501 
L 570.413711 -483.93228 
L 570.410809 -479.292059 
L 570.400061 -474.651839 
L 570.402847 -470.011618 
L 570.397485 -465.371397 
L 570.407617 -460.731176 
L 570.410623 -456.090956 
L 570.402469 -451.450735 
L 570.399816 -446.810514 
L 570.405311 -442.170293 
L 570.416024 -437.530072 
L 570.409286 -432.889852 
L 570.404838 -428.249631 
L 570.399889 -423.60941 
L 570.416553 -418.969189 
L 570.421951 -414.328969 
L 570.413717 -409.688748 
L 570.396215 -405.048527 
L 570.414365 -400.408306 
L 570.422045 -395.768086 
L 570.416429 -391.127865 
L 570.422321 -386.487644 
L 570.41405 -381.847423 
L 570.410597 -377.207203 
L 570.421625 -372.566982 
L 570.426827 -367.926761 
L 570.442365 -363.28654 
L 570.548712 -358.64632 
L 570.688172 -354.006099 
L 570.796836 -349.365878 
L 570.94234 -344.725657 
L 571.072705 -340.085437 
L 571.203115 -335.445216 
L 571.314925 -330.804995 
L 571.512209 -326.164774 
L 571.727361 -321.524554 
L 571.921901 -316.884333 
L 572.135269 -312.244112 
L 572.269085 -307.603891 
L 572.373636 -302.963671 
L 572.595723 -298.32345 
L 572.968387 -293.683229 
L 573.288462 -289.043008 
L 573.623497 -284.402788 
L 574.089562 -279.762567 
L 574.384994 -275.122346 
L 575.008425 -270.482125 
L 575.615155 -265.841905 
L 576.543079 -261.201684 
L 577.767691 -256.561463 
L 579.486775 -251.921242 
L 582.259117 -247.281022 
L 587.55049 -242.640801 
L 597.730704 -238.00058 
L 614.359154 -233.360359 
L 631.477495 -228.720139 
L 640.761997 -224.079918 
L 642.915 -219.439697 
L 641.721867 -214.799476 
L 638.183823 -210.159256 
L 634.823991 -205.519035 
L 631.000672 -200.878814 
L 627.430543 -196.238593 
L 624.180002 -191.598373 
L 621.260014 -186.958152 
L 618.982164 -182.317931 
L 616.490835 -177.67771 
L 614.405821 -173.03749 
L 612.514273 -168.397269 
L 610.637792 -163.757048 
L 609.59518 -159.116827 
L 608.219001 -154.476606 
L 607.086158 -149.836386 
L 606.176828 -145.196165 
L 605.563758 -140.555944 
L 601.431188 -135.915723 
L 582.422167 -131.275503 
L 571.151565 -126.635282 
z
" style="stroke: #2e2e2e; stroke-width: 2"/>
    </defs>
    <g clip-path="url(#p7c27265f70)">
     <use xlink:href="#m15613d77a7" x="0" y="720" style="fill: #7d709e; stroke: #2e2e2e; stroke-width: 2"/>
    </g>
   </g>
   <g id="PolyCollection_4">
    <defs>
     <path id="m3aed2c9240" d="M 752.813082 -104.4 
L 750.636918 -104.4 
L 749.275854 -109.490909 
L 746.800904 -114.581818 
L 742.844824 -119.672727 
L 737.283324 -124.763636 
L 730.401699 -129.854545 
L 722.896054 -134.945455 
L 715.659279 -140.036364 
L 709.453053 -145.127273 
L 704.65806 -150.218182 
L 701.238004 -155.309091 
L 698.898168 -160.4 
L 697.300163 -165.490909 
L 696.196056 -170.581818 
L 695.439211 -175.672727 
L 694.924204 -180.763636 
L 694.535894 -185.854545 
L 694.14843 -190.945455 
L 693.660104 -196.036364 
L 693.027193 -201.127273 
L 692.273569 -206.218182 
L 691.474515 -211.309091 
L 690.722684 -216.4 
L 690.087256 -221.490909 
L 689.583577 -226.581818 
L 689.172013 -231.672727 
L 688.788669 -236.763636 
L 688.385598 -241.854545 
L 687.950367 -246.945455 
L 687.495829 -252.036364 
L 687.039006 -257.127273 
L 686.592467 -262.218182 
L 686.170045 -267.309091 
L 685.78973 -272.4 
L 685.463153 -277.490909 
L 685.182148 -282.581818 
L 684.91913 -287.672727 
L 684.641748 -292.763636 
L 684.327136 -297.854545 
L 683.966947 -302.945455 
L 683.568551 -308.036364 
L 683.156906 -313.127273 
L 682.769195 -318.218182 
L 682.43546 -323.309091 
L 682.157137 -328.4 
L 681.904783 -333.490909 
L 681.639267 -338.581818 
L 681.336992 -343.672727 
L 680.998904 -348.763636 
L 680.643498 -353.854545 
L 680.298224 -358.945455 
L 679.99686 -364.036364 
L 679.776018 -369.127273 
L 679.661554 -374.218182 
L 679.647773 -379.309091 
L 679.68596 -384.4 
L 679.699554 -389.490909 
L 679.626301 -394.581818 
L 679.463185 -399.672727 
L 679.279905 -404.763636 
L 679.185 -409.854545 
L 679.262637 -414.945455 
L 679.518821 -420.036364 
L 679.868437 -425.127273 
L 680.169805 -430.218182 
L 680.289762 -435.309091 
L 680.169515 -440.4 
L 679.860177 -445.490909 
L 679.507395 -450.581818 
L 679.287099 -455.672727 
L 679.322344 -460.763636 
L 679.626963 -465.854545 
L 680.108221 -470.945455 
L 680.62266 -476.036364 
L 681.046049 -481.127273 
L 681.317116 -486.218182 
L 681.441395 -491.309091 
L 681.467621 -496.4 
L 681.455545 -501.490909 
L 681.447832 -506.581818 
L 681.454994 -511.672727 
L 681.46151 -516.763636 
L 681.452873 -521.854545 
L 681.447041 -526.945455 
L 681.506656 -532.036364 
L 681.724799 -537.127273 
L 682.206722 -542.218182 
L 683.083197 -547.309091 
L 684.566696 -552.4 
L 687.009128 -557.490909 
L 690.87919 -562.581818 
L 696.597172 -567.672727 
L 704.263127 -572.763636 
L 713.435231 -577.854545 
L 723.14418 -582.945455 
L 732.197768 -588.036364 
L 739.619712 -593.127273 
L 744.96319 -598.218182 
L 748.34009 -603.309091 
L 750.212856 -608.4 
L 753.237144 -608.4 
L 753.237144 -608.4 
L 755.10991 -603.309091 
L 758.48681 -598.218182 
L 763.830288 -593.127273 
L 771.252232 -588.036364 
L 780.30582 -582.945455 
L 790.014769 -577.854545 
L 799.186873 -572.763636 
L 806.852828 -567.672727 
L 812.57081 -562.581818 
L 816.440872 -557.490909 
L 818.883304 -552.4 
L 820.366803 -547.309091 
L 821.243278 -542.218182 
L 821.725201 -537.127273 
L 821.943344 -532.036364 
L 822.002959 -526.945455 
L 821.997127 -521.854545 
L 821.98849 -516.763636 
L 821.995006 -511.672727 
L 822.002168 -506.581818 
L 821.994455 -501.490909 
L 821.982379 -496.4 
L 822.008605 -491.309091 
L 822.132884 -486.218182 
L 822.403951 -481.127273 
L 822.82734 -476.036364 
L 823.341779 -470.945455 
L 823.823037 -465.854545 
L 824.127656 -460.763636 
L 824.162901 -455.672727 
L 823.942605 -450.581818 
L 823.589823 -445.490909 
L 823.280485 -440.4 
L 823.160238 -435.309091 
L 823.280195 -430.218182 
L 823.581563 -425.127273 
L 823.931179 -420.036364 
L 824.187363 -414.945455 
L 824.265 -409.854545 
L 824.170095 -404.763636 
L 823.986815 -399.672727 
L 823.823699 -394.581818 
L 823.750446 -389.490909 
L 823.76404 -384.4 
L 823.802227 -379.309091 
L 823.788446 -374.218182 
L 823.673982 -369.127273 
L 823.45314 -364.036364 
L 823.151776 -358.945455 
L 822.806502 -353.854545 
L 822.451096 -348.763636 
L 822.113008 -343.672727 
L 821.810733 -338.581818 
L 821.545217 -333.490909 
L 821.292863 -328.4 
L 821.01454 -323.309091 
L 820.680805 -318.218182 
L 820.293094 -313.127273 
L 819.881449 -308.036364 
L 819.483053 -302.945455 
L 819.122864 -297.854545 
L 818.808252 -292.763636 
L 818.53087 -287.672727 
L 818.267852 -282.581818 
L 817.986847 -277.490909 
L 817.66027 -272.4 
L 817.279955 -267.309091 
L 816.857533 -262.218182 
L 816.410994 -257.127273 
L 815.954171 -252.036364 
L 815.499633 -246.945455 
L 815.064402 -241.854545 
L 814.661331 -236.763636 
L 814.277987 -231.672727 
L 813.866423 -226.581818 
L 813.362744 -221.490909 
L 812.727316 -216.4 
L 811.975485 -211.309091 
L 811.176431 -206.218182 
L 810.422807 -201.127273 
L 809.789896 -196.036364 
L 809.30157 -190.945455 
L 808.914106 -185.854545 
L 808.525796 -180.763636 
L 808.010789 -175.672727 
L 807.253944 -170.581818 
L 806.149837 -165.490909 
L 804.551832 -160.4 
L 802.211996 -155.309091 
L 798.79194 -150.218182 
L 793.996947 -145.127273 
L 787.790721 -140.036364 
L 780.553946 -134.945455 
L 773.048301 -129.854545 
L 766.166676 -124.763636 
L 760.605176 -119.672727 
L 756.649096 -114.581818 
L 754.174146 -109.490909 
L 752.813082 -104.4 
z
" style="stroke: #2e2e2e; stroke-width: 2"/>
    </defs>
    <g clip-path="url(#p7c27265f70)">
     <use xlink:href="#m3aed2c9240" x="0" y="720" style="fill: #486d2c; stroke: #2e2e2e; stroke-width: 2"/>
    </g>
   </g>
   <g id="matplotlib.axis_1">
    <g id="xtick_1">
     <g id="line2d_1">
      <defs>
       <path id="mfb86da4d70" d="M 0 0 
L 0 -3.5 
" style="stroke: #000000; stroke-width: 0.8"/>
      </defs>
      <g>
       <use xlink:href="#mfb86da4d70" x="207.675" y="640.8" style="stroke: #000000; stroke-width: 0.8"/>
      </g>
     </g>
     <g id="text_1">
      <!-- Signal -->
      <g transform="translate(184.674375 656.64125)scale(0.18 -0.18)">
       <defs>
        <path id="Times-Roman-53" d="M 413 1288 
Q 575 856 794 600 
Q 1175 153 1741 153 
Q 2047 153 2270 347 
Q 2494 541 2494 888 
Q 2494 1200 2269 1431 
Q 2122 1578 1650 1872 
L 1103 2213 
Q 856 2369 709 2528 
Q 438 2831 438 3197 
Q 438 3681 759 4003 
Q 1081 4325 1613 4325 
Q 1831 4325 2139 4217 
Q 2447 4109 2491 4109 
Q 2609 4109 2654 4165 
Q 2700 4222 2725 4325 
L 2856 4325 
L 2997 2963 
L 2844 2963 
Q 2688 3578 2342 3822 
Q 1997 4066 1659 4066 
Q 1397 4066 1201 3911 
Q 1006 3756 1006 3481 
Q 1006 3234 1156 3059 
Q 1306 2881 1622 2688 
L 2184 2341 
Q 2713 2016 2928 1744 
Q 3141 1469 3141 1094 
Q 3141 591 2761 253 
Q 2381 -84 1791 -84 
Q 1494 -84 1170 28 
Q 847 141 800 141 
Q 688 141 648 72 
Q 609 3 597 -75 
L 456 -75 
L 266 1288 
L 413 1288 
z
M 1781 4325 
L 1781 4325 
z
" transform="scale(0.015625)"/>
        <path id="Times-Roman-69" d="M 525 4034 
Q 525 4169 619 4266 
Q 713 4363 850 4363 
Q 984 4363 1079 4267 
Q 1175 4172 1175 4034 
Q 1175 3900 1079 3804 
Q 984 3709 850 3709 
Q 713 3709 619 3804 
Q 525 3900 525 4034 
z
M 125 88 
Q 459 119 546 201 
Q 634 284 634 650 
L 634 2141 
Q 634 2344 606 2422 
Q 559 2550 409 2550 
Q 375 2550 342 2544 
Q 309 2538 153 2494 
L 153 2591 
L 288 2634 
Q 834 2813 1050 2903 
Q 1138 2941 1163 2941 
Q 1169 2919 1169 2894 
L 1169 650 
Q 1169 294 1255 203 
Q 1341 113 1644 88 
L 1644 0 
L 125 0 
L 125 88 
z
" transform="scale(0.015625)"/>
        <path id="Times-Roman-67" d="M 628 -578 
Q 628 -841 923 -941 
Q 1219 -1041 1600 -1041 
Q 2119 -1041 2444 -861 
Q 2769 -681 2769 -419 
Q 2769 -209 2506 -141 
Q 2344 -100 1891 -94 
Q 1775 -91 1647 -86 
Q 1519 -81 1413 -75 
Q 1344 -72 1191 -50 
Q 1038 -28 963 -13 
Q 925 -13 778 -209 
Q 628 -409 628 -578 
z
M 1034 1050 
Q 750 1144 592 1384 
Q 434 1625 434 1925 
Q 434 2291 725 2619 
Q 1016 2947 1547 2947 
Q 1775 2947 2050 2839 
Q 2325 2731 2578 2731 
Q 2644 2731 2776 2736 
Q 2909 2741 2969 2741 
L 3006 2741 
L 3006 2488 
L 2466 2488 
Q 2522 2356 2553 2259 
Q 2606 2078 2606 1916 
Q 2606 1559 2311 1261 
Q 2016 963 1516 963 
Q 1438 963 1234 991 
Q 1144 991 995 837 
Q 847 684 847 588 
Q 847 488 1066 441 
Q 1209 409 1384 409 
Q 2188 409 2475 319 
Q 2947 172 2947 -313 
Q 2947 -806 2395 -1100 
Q 1844 -1394 1281 -1394 
Q 769 -1394 469 -1186 
Q 169 -978 169 -750 
Q 169 -638 248 -530 
Q 328 -422 563 -209 
L 769 -25 
L 806 13 
Q 663 69 591 122 
Q 466 219 466 344 
Q 466 459 573 598 
Q 681 738 1034 1050 
z
M 1628 1113 
Q 1800 1113 1916 1206 
Q 2103 1356 2103 1728 
Q 2103 2025 1951 2397 
Q 1800 2769 1447 2769 
Q 1141 2769 1025 2478 
Q 966 2325 966 2100 
Q 966 1719 1150 1416 
Q 1334 1113 1628 1113 
z
M 1603 2947 
L 1603 2947 
z
" transform="scale(0.015625)"/>
        <path id="Times-Roman-6e" d="M 116 88 
Q 338 116 427 198 
Q 516 281 516 569 
L 516 2153 
Q 516 2353 478 2434 
Q 419 2553 234 2553 
Q 206 2553 176 2550 
Q 147 2547 103 2541 
L 103 2650 
Q 231 2688 709 2844 
L 1003 2941 
Q 1025 2941 1029 2925 
Q 1034 2909 1034 2881 
L 1034 2422 
Q 1322 2691 1484 2791 
Q 1728 2944 1991 2944 
Q 2203 2944 2378 2822 
Q 2716 2584 2716 1975 
L 2716 516 
Q 2716 291 2806 191 
Q 2897 91 3109 88 
L 3109 0 
L 1775 0 
L 1775 88 
Q 2003 119 2093 214 
Q 2184 309 2184 628 
L 2184 1963 
Q 2184 2231 2084 2407 
Q 1984 2584 1716 2584 
Q 1531 2584 1341 2459 
Q 1234 2388 1066 2222 
L 1066 472 
Q 1066 247 1166 170 
Q 1266 94 1481 88 
L 1481 0 
L 116 0 
L 116 88 
z
M 1603 2944 
L 1603 2944 
z
" transform="scale(0.015625)"/>
        <path id="Times-Roman-61" d="M 1834 1731 
Q 1475 1613 1241 1469 
Q 791 1191 791 838 
Q 791 553 978 419 
Q 1100 331 1250 331 
Q 1456 331 1645 447 
Q 1834 563 1834 741 
L 1834 1731 
z
M 234 622 
Q 234 1075 688 1378 
Q 975 1566 1834 1888 
L 1834 2153 
Q 1834 2472 1772 2597 
Q 1666 2806 1331 2806 
Q 1172 2806 1028 2725 
Q 884 2641 884 2494 
Q 884 2456 900 2367 
Q 916 2278 916 2253 
Q 916 2078 800 2009 
Q 734 1969 644 1969 
Q 503 1969 428 2061 
Q 353 2153 353 2266 
Q 353 2484 623 2723 
Q 894 2963 1416 2963 
Q 2022 2963 2238 2569 
Q 2353 2353 2353 1941 
L 2353 688 
Q 2353 506 2378 438 
Q 2419 316 2547 316 
Q 2619 316 2666 337 
Q 2713 359 2828 444 
L 2828 281 
Q 2728 159 2613 81 
Q 2438 -38 2256 -38 
Q 2044 -38 1948 100 
Q 1853 238 1844 428 
Q 1606 222 1438 122 
Q 1153 -47 897 -47 
Q 628 -47 431 142 
Q 234 331 234 622 
z
M 1425 2963 
L 1425 2963 
z
" transform="scale(0.015625)"/>
        <path id="Times-Roman-6c" d="M 131 88 
Q 422 116 525 205 
Q 628 294 628 553 
L 628 3606 
Q 628 3813 594 3891 
Q 531 4022 341 4022 
Q 297 4022 245 4012 
Q 194 4003 116 3984 
L 116 4088 
Q 538 4200 1131 4388 
Q 1153 4388 1158 4369 
Q 1163 4350 1163 4288 
L 1163 541 
Q 1163 269 1256 189 
Q 1350 109 1644 88 
L 1644 0 
L 131 0 
L 131 88 
z
" transform="scale(0.015625)"/>
       </defs>
       <use xlink:href="#Times-Roman-53"/>
       <use xlink:href="#Times-Roman-69" x="55.615234"/>
       <use xlink:href="#Times-Roman-67" x="83.398438"/>
       <use xlink:href="#Times-Roman-6e" x="133.398438"/>
       <use xlink:href="#Times-Roman-61" x="183.398438"/>
       <use xlink:href="#Times-Roman-6c" x="227.783203"/>
      </g>
     </g>
    </g>
    <g id="xtick_2">
     <g id="line2d_2">
      <g>
       <use xlink:href="#mfb86da4d70" x="389.025" y="640.8" style="stroke: #000000; stroke-width: 0.8"/>
      </g>
     </g>
     <g id="text_2">
      <!-- Total dataset -->
      <g transform="translate(342.793125 656.64125)scale(0.18 -0.18)">
       <defs>
        <path id="Times-Roman-54" d="M 125 4234 
L 3741 4234 
L 3775 3147 
L 3622 3147 
Q 3509 3659 3336 3814 
Q 3163 3969 2606 3969 
L 2250 3969 
L 2250 694 
Q 2250 322 2365 233 
Q 2481 144 2872 116 
L 2872 0 
L 1006 0 
L 1006 116 
Q 1413 147 1513 250 
Q 1613 353 1613 769 
L 1613 3969 
L 1256 3969 
Q 725 3969 533 3816 
Q 341 3663 244 3147 
L 88 3147 
L 125 4234 
z
" transform="scale(0.015625)"/>
        <path id="Times-Roman-6f" d="M 163 1450 
Q 163 2072 558 2501 
Q 953 2931 1575 2931 
Q 2194 2931 2600 2525 
Q 3006 2119 3006 1444 
Q 3006 822 2612 362 
Q 2219 -97 1594 -97 
Q 994 -97 578 343 
Q 163 784 163 1450 
z
M 1488 2744 
Q 1241 2744 1059 2581 
Q 747 2297 747 1600 
Q 747 1044 998 562 
Q 1250 81 1697 81 
Q 2047 81 2236 403 
Q 2425 725 2425 1247 
Q 2425 1788 2184 2266 
Q 1944 2744 1488 2744 
z
M 1603 2931 
L 1603 2931 
z
" transform="scale(0.015625)"/>
        <path id="Times-Roman-74" d="M 1628 2881 
L 1628 2656 
L 991 2656 
L 984 856 
Q 984 619 1025 497 
Q 1100 281 1319 281 
Q 1431 281 1514 334 
Q 1597 388 1703 503 
L 1784 434 
L 1716 341 
Q 1553 122 1372 31 
Q 1191 -59 1022 -59 
Q 653 -59 522 269 
Q 450 447 450 763 
L 450 2656 
L 109 2656 
Q 94 2666 86 2675 
Q 78 2684 78 2700 
Q 78 2731 92 2748 
Q 106 2766 181 2828 
Q 397 3006 492 3117 
Q 588 3228 941 3703 
Q 981 3703 989 3697 
Q 997 3691 997 3650 
L 997 2881 
L 1628 2881 
z
" transform="scale(0.015625)"/>
        <path id="Times-Roman-20" transform="scale(0.015625)"/>
        <path id="Times-Roman-64" d="M 1516 2953 
Q 1744 2953 1934 2853 
Q 2059 2788 2175 2672 
L 2175 3666 
Q 2175 3856 2133 3928 
Q 2091 4000 1931 4000 
Q 1894 4000 1866 3997 
Q 1838 3994 1741 3984 
L 1741 4088 
L 1997 4153 
Q 2138 4191 2278 4231 
Q 2419 4272 2525 4309 
Q 2575 4325 2691 4369 
L 2709 4363 
L 2703 4034 
Q 2700 3856 2697 3667 
Q 2694 3478 2694 3294 
L 2688 741 
Q 2688 538 2738 456 
Q 2788 375 3003 375 
Q 3038 375 3072 376 
Q 3106 378 3141 384 
L 3141 281 
Q 3122 275 2688 125 
L 2197 -59 
L 2175 -31 
L 2175 353 
Q 2000 163 1872 81 
Q 1644 -59 1344 -59 
Q 813 -59 483 352 
Q 153 763 153 1303 
Q 153 1981 548 2467 
Q 944 2953 1516 2953 
z
M 1631 278 
Q 1875 278 2025 422 
Q 2175 566 2175 694 
L 2175 2034 
Q 2175 2441 1958 2608 
Q 1741 2775 1534 2775 
Q 1141 2775 922 2426 
Q 703 2078 703 1569 
Q 703 1066 936 672 
Q 1169 278 1631 278 
z
" transform="scale(0.015625)"/>
        <path id="Times-Roman-73" d="M 331 984 
L 434 984 
Q 506 628 628 438 
Q 847 88 1269 88 
Q 1503 88 1639 217 
Q 1775 347 1775 553 
Q 1775 684 1697 806 
Q 1619 928 1422 1044 
L 1072 1244 
Q 688 1450 506 1659 
Q 325 1869 325 2153 
Q 325 2503 575 2728 
Q 825 2953 1203 2953 
Q 1369 2953 1567 2890 
Q 1766 2828 1791 2828 
Q 1847 2828 1872 2843 
Q 1897 2859 1916 2894 
L 1991 2894 
L 2013 2022 
L 1916 2022 
Q 1853 2325 1747 2494 
Q 1553 2806 1188 2806 
Q 969 2806 844 2672 
Q 719 2538 719 2356 
Q 719 2069 1150 1844 
L 1563 1622 
Q 2228 1259 2228 778 
Q 2228 409 1951 175 
Q 1675 -59 1228 -59 
Q 1041 -59 803 3 
Q 566 66 522 66 
Q 484 66 456 39 
Q 428 13 413 -25 
L 331 -25 
L 331 984 
z
M 1247 2953 
L 1247 2953 
z
" transform="scale(0.015625)"/>
        <path id="Times-Roman-65" d="M 1466 2931 
Q 1906 2931 2237 2626 
Q 2569 2322 2569 1763 
L 584 1763 
Q 616 1038 912 706 
Q 1209 375 1616 375 
Q 1944 375 2169 547 
Q 2394 719 2584 1034 
L 2694 997 
Q 2566 600 2214 262 
Q 1863 -75 1353 -75 
Q 766 -75 445 369 
Q 125 813 125 1391 
Q 125 2019 497 2475 
Q 869 2931 1466 2931 
z
M 1284 2703 
Q 928 2703 741 2388 
Q 641 2219 597 1963 
L 1916 1963 
Q 1881 2275 1797 2428 
Q 1644 2703 1284 2703 
z
M 1425 2931 
L 1425 2931 
z
" transform="scale(0.015625)"/>
       </defs>
       <use xlink:href="#Times-Roman-54"/>
       <use xlink:href="#Times-Roman-6f" x="61.083984"/>
       <use xlink:href="#Times-Roman-74" x="111.083984"/>
       <use xlink:href="#Times-Roman-61" x="138.867188"/>
       <use xlink:href="#Times-Roman-6c" x="183.251953"/>
       <use xlink:href="#Times-Roman-20" x="211.035156"/>
       <use xlink:href="#Times-Roman-64" x="236.035156"/>
       <use xlink:href="#Times-Roman-61" x="286.035156"/>
       <use xlink:href="#Times-Roman-74" x="330.419922"/>
       <use xlink:href="#Times-Roman-61" x="358.203125"/>
       <use xlink:href="#Times-Roman-73" x="402.587891"/>
       <use xlink:href="#Times-Roman-65" x="441.503906"/>
       <use xlink:href="#Times-Roman-74" x="485.888672"/>
      </g>
     </g>
    </g>
    <g id="xtick_3">
     <g id="line2d_3">
      <g>
       <use xlink:href="#mfb86da4d70" x="570.375" y="640.8" style="stroke: #000000; stroke-width: 0.8"/>
      </g>
     </g>
     <g id="text_3">
      <!-- $\phi\mu\mu$ -->
      <g transform="translate(554.175 656.9)scale(0.18 -0.18)">
       <defs>
        <path id="Cmmi10-c1" d="M 1241 -1247 
L 1528 -91 
Q 1203 -91 922 61 
Q 641 213 470 484 
Q 300 756 300 1075 
Q 300 1422 472 1737 
Q 644 2053 942 2311 
Q 1241 2569 1584 2708 
Q 1928 2847 2266 2847 
L 2650 4403 
Q 2663 4441 2700 4441 
L 2778 4441 
Q 2803 4441 2818 4419 
Q 2834 4397 2834 4378 
L 2450 2847 
Q 2691 2847 2916 2759 
Q 3141 2672 3314 2514 
Q 3488 2356 3584 2142 
Q 3681 1928 3681 1684 
Q 3681 1338 3509 1022 
Q 3338 706 3047 453 
Q 2756 200 2398 54 
Q 2041 -91 1716 -91 
L 1422 -1275 
Q 1409 -1313 1369 -1313 
L 1294 -1313 
Q 1269 -1313 1255 -1289 
Q 1241 -1266 1241 -1247 
z
M 1569 78 
L 2222 2681 
Q 2059 2681 1881 2615 
Q 1703 2550 1545 2450 
Q 1388 2350 1259 2222 
Q 1103 2066 984 1853 
Q 866 1641 805 1405 
Q 744 1169 744 941 
Q 744 700 847 503 
Q 950 306 1137 192 
Q 1325 78 1569 78 
z
M 1759 78 
Q 2000 78 2272 215 
Q 2544 353 2719 538 
Q 2959 775 3098 1120 
Q 3238 1466 3238 1819 
Q 3238 2056 3134 2254 
Q 3031 2453 2843 2567 
Q 2656 2681 2413 2681 
L 1759 78 
z
" transform="scale(0.015625)"/>
        <path id="Cmmi10-b9" d="M 178 -1203 
Q 178 -1166 184 -1153 
L 1125 2625 
Q 1153 2716 1226 2772 
Q 1300 2828 1394 2828 
Q 1475 2828 1531 2779 
Q 1588 2731 1588 2650 
Q 1588 2631 1586 2620 
Q 1584 2609 1581 2597 
L 1203 1100 
Q 1141 834 1141 641 
Q 1141 403 1253 250 
Q 1366 97 1594 97 
Q 2059 97 2413 678 
Q 2416 684 2417 687 
Q 2419 691 2419 697 
L 2881 2553 
Q 2903 2638 2981 2698 
Q 3059 2759 3150 2759 
Q 3225 2759 3283 2709 
Q 3341 2659 3341 2578 
Q 3341 2541 3334 2528 
L 2875 684 
Q 2828 503 2828 372 
Q 2828 97 3016 97 
Q 3216 97 3317 344 
Q 3419 591 3494 941 
Q 3506 978 3547 978 
L 3622 978 
Q 3647 978 3664 958 
Q 3681 938 3681 916 
Q 3569 469 3436 198 
Q 3303 -72 3003 -72 
Q 2791 -72 2627 50 
Q 2463 172 2413 378 
Q 2253 178 2039 53 
Q 1825 -72 1588 -72 
Q 1188 -72 959 116 
L 634 -1178 
Q 616 -1269 541 -1325 
Q 466 -1381 372 -1381 
Q 294 -1381 236 -1332 
Q 178 -1284 178 -1203 
z
" transform="scale(0.015625)"/>
       </defs>
       <use xlink:href="#Cmmi10-c1" transform="translate(0 0.609375)"/>
       <use xlink:href="#Cmmi10-b9" transform="translate(59.521484 0.609375)"/>
       <use xlink:href="#Cmmi10-b9" transform="translate(119.726562 0.609375)"/>
      </g>
     </g>
    </g>
    <g id="xtick_4">
     <g id="line2d_4">
      <g>
       <use xlink:href="#mfb86da4d70" x="751.725" y="640.8" style="stroke: #000000; stroke-width: 0.8"/>
      </g>
     </g>
     <g id="text_4">
      <!-- $K^+\mu^+\mu^-$ -->
      <g transform="translate(707.985 658.7)scale(0.18 -0.18)">
       <defs>
        <path id="Cmmi10-4b" d="M 300 0 
Q 238 0 238 84 
Q 241 100 250 139 
Q 259 178 276 201 
Q 294 225 319 225 
Q 709 225 863 269 
Q 947 297 984 441 
L 1863 3956 
Q 1875 4019 1875 4044 
Q 1875 4113 1797 4122 
Q 1678 4147 1338 4147 
Q 1275 4147 1275 4231 
Q 1297 4313 1309 4342 
Q 1322 4372 1381 4372 
L 3103 4372 
Q 3169 4372 3169 4288 
Q 3166 4272 3156 4234 
Q 3147 4197 3131 4172 
Q 3116 4147 3084 4147 
Q 2694 4147 2541 4103 
Q 2456 4072 2419 3928 
L 1900 1856 
L 4409 3794 
Q 4416 3806 4489 3879 
Q 4563 3953 4563 4025 
Q 4563 4147 4347 4147 
Q 4281 4147 4281 4231 
Q 4294 4281 4301 4309 
Q 4309 4338 4329 4355 
Q 4350 4372 4391 4372 
L 5631 4372 
Q 5666 4372 5681 4347 
Q 5697 4322 5697 4288 
Q 5694 4272 5683 4231 
Q 5672 4191 5655 4169 
Q 5638 4147 5606 4147 
Q 5138 4147 4581 3713 
Q 4578 3709 4572 3707 
Q 4566 3706 4559 3704 
Q 4553 3703 4550 3700 
L 3231 2675 
L 4191 428 
Q 4278 288 4378 256 
Q 4478 225 4684 225 
Q 4750 225 4750 141 
Q 4731 66 4712 33 
Q 4694 0 4641 0 
L 3156 0 
Q 3097 0 3097 84 
Q 3106 150 3118 187 
Q 3131 225 3181 225 
Q 3344 225 3458 258 
Q 3572 291 3572 409 
Q 3572 453 3566 475 
L 2772 2322 
L 1838 1600 
L 1544 416 
Q 1528 338 1528 325 
Q 1528 259 1606 250 
Q 1728 225 2069 225 
Q 2131 225 2131 141 
Q 2109 50 2096 25 
Q 2084 0 2022 0 
L 300 0 
z
" transform="scale(0.015625)"/>
        <path id="Cmr10-2b" d="M 481 1472 
Q 428 1472 393 1512 
Q 359 1553 359 1600 
Q 359 1647 393 1687 
Q 428 1728 481 1728 
L 2363 1728 
L 2363 3616 
Q 2363 3666 2400 3698 
Q 2438 3731 2491 3731 
Q 2538 3731 2578 3698 
Q 2619 3666 2619 3616 
L 2619 1728 
L 4500 1728 
Q 4547 1728 4581 1687 
Q 4616 1647 4616 1600 
Q 4616 1553 4581 1512 
Q 4547 1472 4500 1472 
L 2619 1472 
L 2619 -416 
Q 2619 -466 2578 -498 
Q 2538 -531 2491 -531 
Q 2438 -531 2400 -498 
Q 2363 -466 2363 -416 
L 2363 1472 
L 481 1472 
z
" transform="scale(0.015625)"/>
        <path id="Cmsy10-a1" d="M 653 1472 
Q 600 1472 565 1512 
Q 531 1553 531 1600 
Q 531 1647 565 1687 
Q 600 1728 653 1728 
L 4325 1728 
Q 4375 1728 4408 1687 
Q 4441 1647 4441 1600 
Q 4441 1553 4408 1512 
Q 4375 1472 4325 1472 
L 653 1472 
z
" transform="scale(0.015625)"/>
       </defs>
       <use xlink:href="#Cmmi10-4b" transform="translate(0 0.928125)"/>
       <use xlink:href="#Cmr10-2b" transform="translate(108.572656 39.192187)scale(0.7)"/>
       <use xlink:href="#Cmmi10-b9" transform="translate(181.620898 0.928125)"/>
       <use xlink:href="#Cmr10-2b" transform="translate(260.420273 39.192187)scale(0.7)"/>
       <use xlink:href="#Cmmi10-b9" transform="translate(333.468516 0.928125)"/>
       <use xlink:href="#Cmsy10-a1" transform="translate(412.267891 39.192187)scale(0.7)"/>
      </g>
     </g>
    </g>
    <g id="text_5">
     <!-- Decay -->
     <g transform="translate(454.160937 680.35375)scale(0.2 -0.2)">
      <defs>
       <path id="Times-Roman-44" d="M 1316 494 
Q 1316 338 1392 288 
Q 1469 238 1709 238 
Q 2459 238 2944 534 
Q 3688 991 3688 2094 
Q 3688 3078 3075 3575 
Q 2550 4000 1684 4000 
Q 1469 4000 1392 3953 
Q 1316 3906 1316 3747 
L 1316 494 
z
M 103 116 
Q 453 153 559 242 
Q 666 331 666 694 
L 666 3541 
Q 666 3891 562 3991 
Q 459 4091 103 4116 
L 103 4234 
L 1828 4234 
Q 2700 4234 3303 3947 
Q 4391 3431 4391 2103 
Q 4391 1625 4195 1194 
Q 4000 763 3606 466 
Q 3356 278 3088 181 
Q 2597 0 1881 0 
L 103 0 
L 103 116 
z
" transform="scale(0.015625)"/>
       <path id="Times-Roman-63" d="M 1591 2947 
Q 1981 2947 2264 2745 
Q 2547 2544 2547 2303 
Q 2547 2200 2475 2111 
Q 2403 2022 2253 2022 
Q 2144 2022 2061 2097 
Q 1978 2172 1941 2316 
L 1903 2466 
Q 1863 2631 1763 2700 
Q 1659 2766 1491 2766 
Q 1134 2766 889 2455 
Q 644 2144 644 1628 
Q 644 1156 914 781 
Q 1184 406 1644 406 
Q 1969 406 2222 619 
Q 2366 741 2547 1006 
L 2634 953 
Q 2456 578 2259 359 
Q 1881 -59 1384 -59 
Q 897 -59 522 325 
Q 147 709 147 1369 
Q 147 2016 556 2481 
Q 966 2947 1591 2947 
z
M 1453 2947 
L 1453 2947 
z
" transform="scale(0.015625)"/>
       <path id="Times-Roman-79" d="M 88 2872 
L 1406 2872 
L 1406 2775 
Q 1250 2772 1175 2747 
Q 1031 2706 1031 2588 
Q 1031 2544 1047 2498 
Q 1063 2453 1103 2363 
L 1834 741 
L 2422 2375 
Q 2431 2400 2451 2487 
Q 2472 2575 2472 2606 
Q 2472 2688 2415 2725 
Q 2359 2763 2272 2769 
L 2175 2775 
L 2175 2872 
L 3034 2872 
L 3034 2775 
Q 2906 2759 2842 2687 
Q 2778 2616 2731 2488 
L 1747 -119 
Q 1491 -794 1256 -1097 
Q 1022 -1400 663 -1400 
Q 488 -1400 334 -1312 
Q 181 -1225 181 -1034 
Q 181 -909 273 -829 
Q 366 -750 506 -750 
Q 588 -750 748 -809 
Q 909 -869 978 -869 
Q 1153 -869 1347 -462 
Q 1541 -56 1541 81 
Q 1541 109 1531 150 
Q 1522 191 1509 222 
L 509 2384 
Q 403 2616 323 2689 
Q 244 2763 88 2784 
L 88 2872 
z
M 1575 2931 
L 1575 2931 
z
" transform="scale(0.015625)"/>
      </defs>
      <use xlink:href="#Times-Roman-44"/>
      <use xlink:href="#Times-Roman-65" x="72.216797"/>
      <use xlink:href="#Times-Roman-63" x="116.601562"/>
      <use xlink:href="#Times-Roman-61" x="160.986328"/>
      <use xlink:href="#Times-Roman-79" x="205.371094"/>
     </g>
    </g>
   </g>
   <g id="matplotlib.axis_2">
    <g id="ytick_1">
     <g id="line2d_5">
      <path d="M 117 582.386603 
L 842.4 582.386603 
" clip-path="url(#p7c27265f70)" style="fill: none; stroke-dasharray: 1.85,0.8; stroke-dashoffset: 0; stroke: #b2b2b2; stroke-width: 0.5"/>
     </g>
     <g id="line2d_6">
      <defs>
       <path id="m19a4010548" d="M 0 0 
L 3.5 0 
" style="stroke: #000000; stroke-width: 0.8"/>
      </defs>
      <g>
       <use xlink:href="#m19a4010548" x="117" y="582.386603" style="stroke: #000000; stroke-width: 0.8"/>
      </g>
     </g>
     <g id="text_6">
      <!-- 750 -->
      <g transform="translate(86.5 588.557228)scale(0.18 -0.18)">
       <defs>
        <path id="Times-Roman-37" d="M 2872 4234 
L 2872 4131 
L 1516 -59 
L 1103 -59 
L 2369 3763 
L 1006 3763 
Q 703 3763 570 3663 
Q 438 3563 234 3244 
L 125 3294 
Q 328 3794 376 3911 
Q 425 4028 503 4234 
L 2872 4234 
z
" transform="scale(0.015625)"/>
        <path id="Times-Roman-35" d="M 478 572 
Q 656 572 945 370 
Q 1234 169 1391 169 
Q 1750 169 2019 486 
Q 2288 803 2288 1266 
Q 2288 2075 1425 2431 
Q 947 2628 534 2628 
Q 466 2628 448 2633 
Q 431 2638 406 2666 
Q 413 2691 417 2708 
Q 422 2725 428 2741 
L 1109 4234 
L 2450 4234 
Q 2550 4234 2604 4268 
Q 2659 4303 2747 4397 
L 2797 4353 
L 2553 3775 
Q 2541 3747 2484 3739 
Q 2428 3731 2363 3731 
L 1153 3731 
L 888 3184 
Q 1400 3097 1638 3019 
Q 2028 2888 2291 2631 
Q 2516 2409 2631 2132 
Q 2747 1856 2747 1547 
Q 2747 856 2255 393 
Q 1763 -69 1009 -69 
Q 703 -69 516 -9 
Q 203 88 203 338 
Q 203 431 270 501 
Q 338 572 478 572 
z
" transform="scale(0.015625)"/>
        <path id="Times-Roman-30" d="M 1531 116 
Q 1991 116 2162 619 
Q 2334 1122 2334 2075 
Q 2334 2834 2231 3288 
Q 2038 4131 1506 4131 
Q 975 4131 778 3263 
Q 675 2800 675 2044 
Q 675 1334 781 909 
Q 981 116 1531 116 
z
M 1522 4300 
Q 2241 4300 2638 3547 
Q 2953 2938 2953 2147 
Q 2953 1525 2759 975 
Q 2394 -59 1494 -59 
Q 878 -59 481 500 
Q 56 1097 56 2122 
Q 56 2928 341 3509 
Q 725 4300 1522 4300 
z
" transform="scale(0.015625)"/>
       </defs>
       <use xlink:href="#Times-Roman-37"/>
       <use xlink:href="#Times-Roman-35" x="50"/>
       <use xlink:href="#Times-Roman-30" x="100"/>
      </g>
     </g>
    </g>
    <g id="ytick_2">
     <g id="line2d_7">
      <path d="M 117 518.380209 
L 842.4 518.380209 
" clip-path="url(#p7c27265f70)" style="fill: none; stroke-dasharray: 1.85,0.8; stroke-dashoffset: 0; stroke: #b2b2b2; stroke-width: 0.5"/>
     </g>
     <g id="line2d_8">
      <g>
       <use xlink:href="#m19a4010548" x="117" y="518.380209" style="stroke: #000000; stroke-width: 0.8"/>
      </g>
     </g>
     <g id="text_7">
      <!-- 800 -->
      <g transform="translate(86.5 524.550834)scale(0.18 -0.18)">
       <defs>
        <path id="Times-Roman-38" d="M 1609 106 
Q 1969 106 2153 306 
Q 2338 506 2338 806 
Q 2338 1147 2142 1358 
Q 1947 1569 1341 1997 
Q 1072 1828 950 1559 
Q 828 1291 828 1041 
Q 828 613 1048 359 
Q 1269 106 1609 106 
z
M 1650 2494 
Q 1944 2700 2056 2841 
Q 2250 3081 2250 3422 
Q 2250 3719 2067 3926 
Q 1884 4134 1513 4134 
Q 1225 4134 1037 3953 
Q 850 3772 850 3513 
Q 850 3219 1070 2967 
Q 1291 2716 1650 2494 
z
M 1169 2131 
Q 756 2463 606 2659 
Q 375 2959 375 3322 
Q 375 3734 717 4021 
Q 1059 4309 1606 4309 
Q 2109 4309 2406 4037 
Q 2703 3766 2703 3406 
Q 2703 3041 2400 2750 
Q 2225 2584 1834 2369 
Q 2366 1975 2595 1683 
Q 2825 1391 2825 994 
Q 2825 544 2486 237 
Q 2147 -69 1578 -69 
Q 1069 -69 705 214 
Q 341 497 341 959 
Q 341 1356 594 1659 
Q 759 1856 1169 2131 
z
" transform="scale(0.015625)"/>
       </defs>
       <use xlink:href="#Times-Roman-38"/>
       <use xlink:href="#Times-Roman-30" x="50"/>
       <use xlink:href="#Times-Roman-30" x="100"/>
      </g>
     </g>
    </g>
    <g id="ytick_3">
     <g id="line2d_9">
      <path d="M 117 454.373815 
L 842.4 454.373815 
" clip-path="url(#p7c27265f70)" style="fill: none; stroke-dasharray: 1.85,0.8; stroke-dashoffset: 0; stroke: #b2b2b2; stroke-width: 0.5"/>
     </g>
     <g id="line2d_10">
      <g>
       <use xlink:href="#m19a4010548" x="117" y="454.373815" style="stroke: #000000; stroke-width: 0.8"/>
      </g>
     </g>
     <g id="text_8">
      <!-- 850 -->
      <g transform="translate(86.5 460.54444)scale(0.18 -0.18)">
       <use xlink:href="#Times-Roman-38"/>
       <use xlink:href="#Times-Roman-35" x="50"/>
       <use xlink:href="#Times-Roman-30" x="100"/>
      </g>
     </g>
    </g>
    <g id="ytick_4">
     <g id="line2d_11">
      <path d="M 117 390.36742 
L 842.4 390.36742 
" clip-path="url(#p7c27265f70)" style="fill: none; stroke-dasharray: 1.85,0.8; stroke-dashoffset: 0; stroke: #b2b2b2; stroke-width: 0.5"/>
     </g>
     <g id="line2d_12">
      <g>
       <use xlink:href="#m19a4010548" x="117" y="390.36742" style="stroke: #000000; stroke-width: 0.8"/>
      </g>
     </g>
     <g id="text_9">
      <!-- 900 -->
      <g transform="translate(86.5 396.538045)scale(0.18 -0.18)">
       <defs>
        <path id="Times-Roman-39" d="M 1597 1791 
Q 1809 1791 2036 1909 
Q 2263 2028 2294 2109 
Q 2306 2141 2315 2342 
Q 2325 2544 2325 2669 
Q 2325 3319 2106 3725 
Q 1888 4131 1466 4131 
Q 1159 4131 970 3853 
Q 781 3575 781 3022 
Q 781 2566 957 2178 
Q 1134 1791 1597 1791 
z
M 1509 4309 
Q 2197 4309 2572 3761 
Q 2947 3213 2947 2538 
Q 2947 2063 2769 1572 
Q 2591 1081 2250 697 
Q 1853 253 1244 38 
Q 903 -84 384 -150 
L 353 -25 
Q 678 50 894 134 
Q 1281 288 1516 509 
Q 1847 825 2045 1214 
Q 2244 1603 2294 1866 
L 2184 1784 
Q 1953 1609 1641 1544 
Q 1478 1506 1344 1506 
Q 813 1506 502 1882 
Q 191 2259 191 2781 
Q 191 3447 561 3878 
Q 931 4309 1509 4309 
z
" transform="scale(0.015625)"/>
       </defs>
       <use xlink:href="#Times-Roman-39"/>
       <use xlink:href="#Times-Roman-30" x="50"/>
       <use xlink:href="#Times-Roman-30" x="100"/>
      </g>
     </g>
    </g>
    <g id="ytick_5">
     <g id="line2d_13">
      <path d="M 117 326.361026 
L 842.4 326.361026 
" clip-path="url(#p7c27265f70)" style="fill: none; stroke-dasharray: 1.85,0.8; stroke-dashoffset: 0; stroke: #b2b2b2; stroke-width: 0.5"/>
     </g>
     <g id="line2d_14">
      <g>
       <use xlink:href="#m19a4010548" x="117" y="326.361026" style="stroke: #000000; stroke-width: 0.8"/>
      </g>
     </g>
     <g id="text_10">
      <!-- 950 -->
      <g transform="translate(86.5 332.531651)scale(0.18 -0.18)">
       <use xlink:href="#Times-Roman-39"/>
       <use xlink:href="#Times-Roman-35" x="50"/>
       <use xlink:href="#Times-Roman-30" x="100"/>
      </g>
     </g>
    </g>
    <g id="ytick_6">
     <g id="line2d_15">
      <path d="M 117 262.354632 
L 842.4 262.354632 
" clip-path="url(#p7c27265f70)" style="fill: none; stroke-dasharray: 1.85,0.8; stroke-dashoffset: 0; stroke: #b2b2b2; stroke-width: 0.5"/>
     </g>
     <g id="line2d_16">
      <g>
       <use xlink:href="#m19a4010548" x="117" y="262.354632" style="stroke: #000000; stroke-width: 0.8"/>
      </g>
     </g>
     <g id="text_11">
      <!-- 1000 -->
      <g transform="translate(77.5 268.525257)scale(0.18 -0.18)">
       <defs>
        <path id="Times-Roman-31" d="M 1894 4294 
Q 1906 4278 1907 4270 
Q 1909 4263 1909 4234 
L 1909 472 
Q 1909 231 2037 165 
Q 2166 100 2516 88 
L 2516 0 
L 753 0 
L 753 94 
Q 1131 113 1247 197 
Q 1363 281 1363 563 
L 1363 3456 
Q 1363 3606 1325 3684 
Q 1288 3763 1163 3763 
Q 1081 3763 951 3717 
Q 822 3672 709 3622 
L 709 3709 
L 1856 4294 
L 1894 4294 
z
" transform="scale(0.015625)"/>
       </defs>
       <use xlink:href="#Times-Roman-31"/>
       <use xlink:href="#Times-Roman-30" x="50"/>
       <use xlink:href="#Times-Roman-30" x="100"/>
       <use xlink:href="#Times-Roman-30" x="150"/>
      </g>
     </g>
    </g>
    <g id="ytick_7">
     <g id="line2d_17">
      <path d="M 117 198.348238 
L 842.4 198.348238 
" clip-path="url(#p7c27265f70)" style="fill: none; stroke-dasharray: 1.85,0.8; stroke-dashoffset: 0; stroke: #b2b2b2; stroke-width: 0.5"/>
     </g>
     <g id="line2d_18">
      <g>
       <use xlink:href="#m19a4010548" x="117" y="198.348238" style="stroke: #000000; stroke-width: 0.8"/>
      </g>
     </g>
     <g id="text_12">
      <!-- 1050 -->
      <g transform="translate(77.5 204.518863)scale(0.18 -0.18)">
       <use xlink:href="#Times-Roman-31"/>
       <use xlink:href="#Times-Roman-30" x="50"/>
       <use xlink:href="#Times-Roman-35" x="100"/>
       <use xlink:href="#Times-Roman-30" x="150"/>
      </g>
     </g>
    </g>
    <g id="ytick_8">
     <g id="line2d_19">
      <path d="M 117 134.341844 
L 842.4 134.341844 
" clip-path="url(#p7c27265f70)" style="fill: none; stroke-dasharray: 1.85,0.8; stroke-dashoffset: 0; stroke: #b2b2b2; stroke-width: 0.5"/>
     </g>
     <g id="line2d_20">
      <g>
       <use xlink:href="#m19a4010548" x="117" y="134.341844" style="stroke: #000000; stroke-width: 0.8"/>
      </g>
     </g>
     <g id="text_13">
      <!-- 1100 -->
      <g transform="translate(77.5 140.512469)scale(0.18 -0.18)">
       <use xlink:href="#Times-Roman-31"/>
       <use xlink:href="#Times-Roman-31" x="50"/>
       <use xlink:href="#Times-Roman-30" x="100"/>
       <use xlink:href="#Times-Roman-30" x="150"/>
      </g>
     </g>
    </g>
    <g id="text_14">
     <!-- $m_{K^*}$ -->
     <g transform="translate(69.14375 384.4)rotate(-90)scale(0.2 -0.2)">
      <defs>
       <path id="Cmmi10-6d" d="M 494 109 
Q 494 147 500 166 
L 978 2075 
Q 1025 2253 1025 2388 
Q 1025 2663 838 2663 
Q 638 2663 541 2423 
Q 444 2184 353 1819 
Q 353 1800 334 1789 
Q 316 1778 300 1778 
L 225 1778 
Q 203 1778 187 1801 
Q 172 1825 172 1844 
Q 241 2122 305 2315 
Q 369 2509 505 2668 
Q 641 2828 844 2828 
Q 1084 2828 1268 2676 
Q 1453 2525 1453 2291 
Q 1644 2541 1900 2684 
Q 2156 2828 2444 2828 
Q 2747 2828 2967 2673 
Q 3188 2519 3188 2234 
Q 3384 2513 3648 2670 
Q 3913 2828 4225 2828 
Q 4556 2828 4757 2648 
Q 4959 2469 4959 2138 
Q 4959 1875 4842 1503 
Q 4725 1131 4550 672 
Q 4459 450 4459 288 
Q 4459 97 4609 97 
Q 4859 97 5025 365 
Q 5191 634 5259 941 
Q 5278 978 5313 978 
L 5388 978 
Q 5413 978 5430 961 
Q 5447 944 5447 922 
Q 5447 916 5441 903 
Q 5353 541 5136 234 
Q 4919 -72 4594 -72 
Q 4369 -72 4209 83 
Q 4050 238 4050 459 
Q 4050 572 4103 709 
Q 4284 1191 4404 1569 
Q 4525 1947 4525 2234 
Q 4525 2413 4453 2538 
Q 4381 2663 4213 2663 
Q 3863 2663 3606 2448 
Q 3350 2234 3163 1881 
Q 3150 1819 3144 1784 
L 2731 141 
Q 2709 53 2632 -9 
Q 2556 -72 2463 -72 
Q 2388 -72 2330 -22 
Q 2272 28 2272 109 
Q 2272 147 2278 166 
L 2688 1797 
Q 2753 2059 2753 2234 
Q 2753 2413 2679 2538 
Q 2606 2663 2431 2663 
Q 2197 2663 2000 2559 
Q 1803 2456 1656 2286 
Q 1509 2116 1388 1881 
L 953 141 
Q 931 53 854 -9 
Q 778 -72 684 -72 
Q 606 -72 550 -22 
Q 494 28 494 109 
z
" transform="scale(0.015625)"/>
       <path id="Cmsy10-a4" d="M 603 813 
Q 531 813 473 873 
Q 416 934 416 1006 
Q 416 1116 506 1159 
L 1428 1600 
L 506 2034 
Q 416 2072 416 2188 
Q 416 2259 473 2320 
Q 531 2381 603 2381 
Q 650 2381 691 2350 
L 1509 1753 
L 1416 2797 
Q 1416 2875 1469 2925 
Q 1522 2975 1600 2975 
Q 1675 2975 1726 2928 
Q 1778 2881 1778 2809 
L 1778 2797 
L 1684 1753 
L 2503 2350 
Q 2544 2381 2591 2381 
Q 2669 2381 2723 2320 
Q 2778 2259 2778 2188 
Q 2778 2072 2688 2034 
L 1766 1600 
L 2688 1159 
Q 2778 1116 2778 1006 
Q 2778 934 2723 873 
Q 2669 813 2591 813 
Q 2544 813 2503 844 
L 1684 1441 
L 1778 403 
L 1778 384 
Q 1778 313 1723 266 
Q 1669 219 1600 219 
Q 1525 219 1470 270 
Q 1416 322 1416 397 
L 1509 1441 
L 691 844 
Q 650 813 603 813 
z
" transform="scale(0.015625)"/>
      </defs>
      <use xlink:href="#Cmmi10-6d" transform="translate(0 0.8125)"/>
      <use xlink:href="#Cmmi10-4b" transform="translate(87.792969 -16.19375)scale(0.7)"/>
      <use xlink:href="#Cmsy10-a4" transform="translate(163.793828 10.591094)scale(0.49)"/>
     </g>
    </g>
   </g>
   <g id="line2d_21">
    <path d="M 150.95968 415.919096 
L 264.39032 415.919096 
" clip-path="url(#p7c27265f70)" style="fill: none; stroke-dasharray: 6,6; stroke-dashoffset: 0; stroke: #2e2e2e; stroke-width: 2"/>
   </g>
   <g id="line2d_22">
    <path d="M 137.573774 391.221563 
L 277.776226 391.221563 
" clip-path="url(#p7c27265f70)" style="fill: none; stroke-dasharray: 12,12; stroke-dashoffset: 0; stroke: #2e2e2e; stroke-width: 2"/>
   </g>
   <g id="line2d_23">
    <path d="M 171.897202 359.93736 
L 243.452798 359.93736 
" clip-path="url(#p7c27265f70)" style="fill: none; stroke-dasharray: 6,6; stroke-dashoffset: 0; stroke: #2e2e2e; stroke-width: 2"/>
   </g>
   <g id="line2d_24">
    <path d="M 341.79025 420.475182 
L 436.25975 420.475182 
" clip-path="url(#p7c27265f70)" style="fill: none; stroke-dasharray: 6,6; stroke-dashoffset: 0; stroke: #2e2e2e; stroke-width: 2"/>
   </g>
   <g id="line2d_25">
    <path d="M 318.262358 391.168623 
L 459.787642 391.168623 
" clip-path="url(#p7c27265f70)" style="fill: none; stroke-dasharray: 12,12; stroke-dashoffset: 0; stroke: #2e2e2e; stroke-width: 2"/>
   </g>
   <g id="line2d_26">
    <path d="M 358.856266 351.857403 
L 419.193734 351.857403 
" clip-path="url(#p7c27265f70)" style="fill: none; stroke-dasharray: 6,6; stroke-dashoffset: 0; stroke: #2e2e2e; stroke-width: 2"/>
   </g>
   <g id="line2d_27">
    <path d="M 526.784487 549.184581 
L 613.965513 549.184581 
" clip-path="url(#p7c27265f70)" style="fill: none; stroke-dasharray: 6,6; stroke-dashoffset: 0; stroke: #2e2e2e; stroke-width: 2"/>
   </g>
   <g id="line2d_28">
    <path d="M 510.355584 520.478136 
L 630.394416 520.478136 
" clip-path="url(#p7c27265f70)" style="fill: none; stroke-dasharray: 12,12; stroke-dashoffset: 0; stroke: #2e2e2e; stroke-width: 2"/>
   </g>
   <g id="line2d_29">
    <path d="M 498.5604 499.090405 
L 642.1896 499.090405 
" clip-path="url(#p7c27265f70)" style="fill: none; stroke-dasharray: 6,6; stroke-dashoffset: 0; stroke: #2e2e2e; stroke-width: 2"/>
   </g>
   <g id="line2d_30">
    <path d="M 687.243792 459.210808 
L 816.206208 459.210808 
" clip-path="url(#p7c27265f70)" style="fill: none; stroke-dasharray: 6,6; stroke-dashoffset: 0; stroke: #2e2e2e; stroke-width: 2"/>
   </g>
   <g id="line2d_31">
    <path d="M 680.495508 350.365865 
L 822.954492 350.365865 
" clip-path="url(#p7c27265f70)" style="fill: none; stroke-dasharray: 12,12; stroke-dashoffset: 0; stroke: #2e2e2e; stroke-width: 2"/>
   </g>
   <g id="line2d_32">
    <path d="M 680.824389 247.088327 
L 822.625611 247.088327 
" clip-path="url(#p7c27265f70)" style="fill: none; stroke-dasharray: 6,6; stroke-dashoffset: 0; stroke: #2e2e2e; stroke-width: 2"/>
   </g>
   <g id="patch_3">
    <path d="M 117 640.8 
L 117 86.4 
" style="fill: none; stroke: #bcbcbc; stroke-width: 0.8; stroke-linejoin: miter; stroke-linecap: square"/>
   </g>
   <g id="patch_4">
    <path d="M 842.4 640.8 
L 842.4 86.4 
" style="fill: none; stroke: #bcbcbc; stroke-width: 0.8; stroke-linejoin: miter; stroke-linecap: square"/>
   </g>
   <g id="patch_5">
    <path d="M 117 640.8 
L 842.4 640.8 
" style="fill: none; stroke: #bcbcbc; stroke-width: 0.8; stroke-linejoin: miter; stroke-linecap: square"/>
   </g>
   <g id="patch_6">
    <path d="M 117 86.4 
L 842.4 86.4 
" style="fill: none; stroke: #bcbcbc; stroke-width: 0.8; stroke-linejoin: miter; stroke-linecap: square"/>
   </g>
  </g>
 </g>
 <defs>
  <clipPath id="p7c27265f70">
   <rect x="117" y="86.4" width="725.4" height="554.4"/>
  </clipPath>
 </defs>
</svg>
