<?xml version="1.0" encoding="utf-8" standalone="no"?>
<!DOCTYPE svg PUBLIC "-//W3C//DTD SVG 1.1//EN"
  "http://www.w3.org/Graphics/SVG/1.1/DTD/svg11.dtd">
<svg xmlns:xlink="http://www.w3.org/1999/xlink" width="576pt" height="360pt" viewBox="0 0 576 360" xmlns="http://www.w3.org/2000/svg" version="1.1">
 <metadata>
  <rdf:RDF xmlns:dc="http://purl.org/dc/elements/1.1/" xmlns:cc="http://creativecommons.org/ns#" xmlns:rdf="http://www.w3.org/1999/02/22-rdf-syntax-ns#">
   <cc:Work>
    <dc:type rdf:resource="http://purl.org/dc/dcmitype/StillImage"/>
    <dc:date>2023-03-17T14:32:55.976387</dc:date>
    <dc:format>image/svg+xml</dc:format>
    <dc:creator>
     <cc:Agent>
      <dc:title>Matplotlib v3.5.2, https://matplotlib.org/</dc:title>
     </cc:Agent>
    </dc:creator>
   </cc:Work>
  </rdf:RDF>
 </metadata>
 <defs>
  <style type="text/css">*{stroke-linejoin: round; stroke-linecap: butt}</style>
 </defs>
 <g id="figure_1">
  <g id="patch_1">
   <path d="M 0 360 
L 576 360 
L 576 0 
L 0 0 
z
" style="fill: #ffffff"/>
  </g>
  <g id="axes_1">
   <g id="patch_2">
    <path d="M 72.55875 300.052687 
L 565.2 300.052687 
L 565.2 10.8 
L 72.55875 10.8 
z
" style="fill: #eeeeee"/>
   </g>
   <g id="patch_3">
    <path d="M -190.109858 978.714689 
L -190.109858 978.714689 
L -190.109858 977.924377 
L -190.109858 977.924377 
z
" clip-path="url(#pba1ebee7be)" style="fill: #348abd"/>
   </g>
   <g id="patch_4">
    <path d="M -127.251686 978.714689 
L -127.251686 978.714689 
L -127.251686 974.763129 
L -127.251686 974.763129 
z
" clip-path="url(#pba1ebee7be)" style="fill: #348abd"/>
   </g>
   <g id="patch_5">
    <path d="M -64.393515 978.714689 
L -64.393515 978.714689 
L -64.393515 972.787349 
L -64.393515 972.787349 
z
" clip-path="url(#pba1ebee7be)" style="fill: #348abd"/>
   </g>
   <g id="patch_6">
    <path d="M -1.535343 978.714689 
L -1.535343 978.714689 
L -1.535343 967.255165 
L -1.535343 967.255165 
z
" clip-path="url(#pba1ebee7be)" style="fill: #348abd"/>
   </g>
   <g id="patch_7">
    <path d="M 61.322829 978.714689 
L 61.322829 978.714689 
L 61.322829 951.84408 
L 61.322829 951.84408 
z
" clip-path="url(#pba1ebee7be)" style="fill: #348abd"/>
   </g>
   <g id="patch_8">
    <path d="M 124.181001 978.714689 
L 124.181001 978.714689 
L 124.181001 885.45787 
L 124.181001 885.45787 
z
" clip-path="url(#pba1ebee7be)" style="fill: #348abd"/>
   </g>
   <g id="patch_9">
    <path d="M 187.039173 978.714689 
L 187.039173 978.714689 
L 187.039173 671.678465 
L 187.039173 671.678465 
z
" clip-path="url(#pba1ebee7be)" style="fill: #348abd"/>
   </g>
   <g id="patch_10">
    <path d="M 249.897344 978.714689 
L 249.897344 978.714689 
L 249.897344 208.555614 
L 249.897344 208.555614 
z
" clip-path="url(#pba1ebee7be)" style="fill: #348abd"/>
   </g>
   <g id="patch_11">
    <path d="M 312.755516 978.714689 
L 312.755516 978.714689 
L 312.755516 80.525065 
L 312.755516 80.525065 
z
" clip-path="url(#pba1ebee7be)" style="fill: #348abd"/>
   </g>
   <g id="patch_12">
    <path d="M 375.613688 978.714689 
L 375.613688 978.714689 
L 375.613688 484.374513 
L 375.613688 484.374513 
z
" clip-path="url(#pba1ebee7be)" style="fill: #348abd"/>
   </g>
   <g id="patch_13">
    <path d="M 438.47186 978.714689 
L 438.47186 978.714689 
L 438.47186 841.990708 
L 438.47186 841.990708 
z
" clip-path="url(#pba1ebee7be)" style="fill: #348abd"/>
   </g>
   <g id="patch_14">
    <path d="M 501.330031 978.714689 
L 501.330031 978.714689 
L 501.330031 941.174868 
L 501.330031 941.174868 
z
" clip-path="url(#pba1ebee7be)" style="fill: #348abd"/>
   </g>
   <g id="patch_15">
    <path d="M 564.188203 978.714689 
L 564.188203 978.714689 
L 564.188203 966.069697 
L 564.188203 966.069697 
z
" clip-path="url(#pba1ebee7be)" style="fill: #348abd"/>
   </g>
   <g id="patch_16">
    <path d="M 627.046375 978.714689 
L 627.046375 978.714689 
L 627.046375 975.553441 
L 627.046375 975.553441 
z
" clip-path="url(#pba1ebee7be)" style="fill: #348abd"/>
   </g>
   <g id="patch_17">
    <path d="M 689.904547 978.714689 
L 689.904547 978.714689 
L 689.904547 977.924377 
L 689.904547 977.924377 
z
" clip-path="url(#pba1ebee7be)" style="fill: #348abd"/>
   </g>
   <g id="patch_18">
    <path d="M 752.762718 978.714689 
L 752.762718 978.714689 
L 752.762718 975.553441 
L 752.762718 975.553441 
z
" clip-path="url(#pba1ebee7be)" style="fill: #348abd"/>
   </g>
   <g id="patch_19">
    <path d="M 815.62089 978.714689 
L 815.62089 978.714689 
L 815.62089 977.924377 
L 815.62089 977.924377 
z
" clip-path="url(#pba1ebee7be)" style="fill: #348abd"/>
   </g>
   <g id="patch_20">
    <path d="M 878.479062 978.714689 
L 878.479062 978.714689 
L 878.479062 978.714689 
L 878.479062 978.714689 
z
" clip-path="url(#pba1ebee7be)" style="fill: #348abd"/>
   </g>
   <g id="patch_21">
    <path d="M 941.337234 978.714689 
L 941.337234 978.714689 
L 941.337234 977.924377 
L 941.337234 977.924377 
z
" clip-path="url(#pba1ebee7be)" style="fill: #348abd"/>
   </g>
   <g id="patch_22">
    <path d="M 1004.195406 978.714689 
L 1004.195406 978.714689 
L 1004.195406 978.319533 
L 1004.195406 978.319533 
z
" clip-path="url(#pba1ebee7be)" style="fill: #348abd"/>
   </g>
   <g id="patch_23">
    <path d="M 1067.053577 978.714689 
L 1067.053577 978.714689 
L 1067.053577 978.319533 
L 1067.053577 978.319533 
z
" clip-path="url(#pba1ebee7be)" style="fill: #348abd"/>
   </g>
   <g id="patch_24">
    <path d="M 1129.911749 978.714689 
L 1129.911749 978.714689 
L 1129.911749 978.714689 
L 1129.911749 978.714689 
z
" clip-path="url(#pba1ebee7be)" style="fill: #348abd"/>
   </g>
   <g id="patch_25">
    <path d="M 1192.769921 978.714689 
L 1192.769921 978.714689 
L 1192.769921 978.319533 
L 1192.769921 978.319533 
z
" clip-path="url(#pba1ebee7be)" style="fill: #348abd"/>
   </g>
   <g id="patch_26">
    <path d="M 1255.628093 978.714689 
L 1255.628093 978.714689 
L 1255.628093 978.714689 
L 1255.628093 978.714689 
z
" clip-path="url(#pba1ebee7be)" style="fill: #348abd"/>
   </g>
   <g id="patch_27">
    <path d="M 1318.486264 978.714689 
L 1318.486264 978.714689 
L 1318.486264 977.924377 
L 1318.486264 977.924377 
z
" clip-path="url(#pba1ebee7be)" style="fill: #348abd"/>
   </g>
   <g id="patch_28">
    <path d="M 1381.344436 978.714689 
L 1381.344436 978.714689 
L 1381.344436 978.714689 
L 1381.344436 978.714689 
z
" clip-path="url(#pba1ebee7be)" style="fill: #348abd"/>
   </g>
   <g id="patch_29">
    <path d="M 1444.202608 978.714689 
L 1444.202608 978.714689 
L 1444.202608 978.714689 
L 1444.202608 978.714689 
z
" clip-path="url(#pba1ebee7be)" style="fill: #348abd"/>
   </g>
   <g id="patch_30">
    <path d="M 1507.06078 978.714689 
L 1507.06078 978.714689 
L 1507.06078 978.319533 
L 1507.06078 978.319533 
z
" clip-path="url(#pba1ebee7be)" style="fill: #348abd"/>
   </g>
   <g id="patch_31">
    <path d="M 1569.918951 978.714689 
L 1569.918951 978.714689 
L 1569.918951 977.924377 
L 1569.918951 977.924377 
z
" clip-path="url(#pba1ebee7be)" style="fill: #348abd"/>
   </g>
   <g id="patch_32">
    <path d="M 1632.777123 978.714689 
L 1632.777123 978.714689 
L 1632.777123 978.714689 
L 1632.777123 978.714689 
z
" clip-path="url(#pba1ebee7be)" style="fill: #348abd"/>
   </g>
   <g id="patch_33">
    <path d="M 1695.635295 978.714689 
L 1695.635295 978.714689 
L 1695.635295 978.714689 
L 1695.635295 978.714689 
z
" clip-path="url(#pba1ebee7be)" style="fill: #348abd"/>
   </g>
   <g id="patch_34">
    <path d="M 1758.493467 978.714689 
L 1758.493467 978.714689 
L 1758.493467 978.714689 
L 1758.493467 978.714689 
z
" clip-path="url(#pba1ebee7be)" style="fill: #348abd"/>
   </g>
   <g id="patch_35">
    <path d="M 1821.351639 978.714689 
L 1821.351639 978.714689 
L 1821.351639 978.714689 
L 1821.351639 978.714689 
z
" clip-path="url(#pba1ebee7be)" style="fill: #348abd"/>
   </g>
   <g id="patch_36">
    <path d="M 1884.20981 978.714689 
L 1884.20981 978.714689 
L 1884.20981 978.714689 
L 1884.20981 978.714689 
z
" clip-path="url(#pba1ebee7be)" style="fill: #348abd"/>
   </g>
   <g id="patch_37">
    <path d="M 1947.067982 978.714689 
L 1947.067982 978.714689 
L 1947.067982 978.714689 
L 1947.067982 978.714689 
z
" clip-path="url(#pba1ebee7be)" style="fill: #348abd"/>
   </g>
   <g id="patch_38">
    <path d="M 2009.926154 978.714689 
L 2009.926154 978.714689 
L 2009.926154 978.714689 
L 2009.926154 978.714689 
z
" clip-path="url(#pba1ebee7be)" style="fill: #348abd"/>
   </g>
   <g id="patch_39">
    <path d="M 2072.784326 978.714689 
L 2072.784326 978.714689 
L 2072.784326 978.714689 
L 2072.784326 978.714689 
z
" clip-path="url(#pba1ebee7be)" style="fill: #348abd"/>
   </g>
   <g id="patch_40">
    <path d="M 2135.642497 978.714689 
L 2135.642497 978.714689 
L 2135.642497 978.714689 
L 2135.642497 978.714689 
z
" clip-path="url(#pba1ebee7be)" style="fill: #348abd"/>
   </g>
   <g id="patch_41">
    <path d="M 2198.500669 978.714689 
L 2198.500669 978.714689 
L 2198.500669 978.714689 
L 2198.500669 978.714689 
z
" clip-path="url(#pba1ebee7be)" style="fill: #348abd"/>
   </g>
   <g id="matplotlib.axis_1">
    <g id="xtick_1">
     <g id="line2d_1">
      <path d="M 102.239941 300.052687 
L 102.239941 10.8 
" clip-path="url(#pba1ebee7be)" style="fill: none; stroke-dasharray: 1.85,0.8; stroke-dashoffset: 0; stroke: #b2b2b2; stroke-width: 0.5"/>
     </g>
     <g id="line2d_2">
      <defs>
       <path id="m7c269738b5" d="M 0 0 
L 0 -3.5 
" style="stroke: #000000; stroke-width: 0.8"/>
      </defs>
      <g>
       <use xlink:href="#m7c269738b5" x="102.239941" y="300.052687" style="stroke: #000000; stroke-width: 0.8"/>
      </g>
     </g>
     <g id="text_1">
      <!-- 5240 -->
      <g transform="translate(84.239941 315.893937)scale(0.18 -0.18)">
       <defs>
        <path id="Times-Roman-35" d="M 478 572 
Q 656 572 945 370 
Q 1234 169 1391 169 
Q 1750 169 2019 486 
Q 2288 803 2288 1266 
Q 2288 2075 1425 2431 
Q 947 2628 534 2628 
Q 466 2628 448 2633 
Q 431 2638 406 2666 
Q 413 2691 417 2708 
Q 422 2725 428 2741 
L 1109 4234 
L 2450 4234 
Q 2550 4234 2604 4268 
Q 2659 4303 2747 4397 
L 2797 4353 
L 2553 3775 
Q 2541 3747 2484 3739 
Q 2428 3731 2363 3731 
L 1153 3731 
L 888 3184 
Q 1400 3097 1638 3019 
Q 2028 2888 2291 2631 
Q 2516 2409 2631 2132 
Q 2747 1856 2747 1547 
Q 2747 856 2255 393 
Q 1763 -69 1009 -69 
Q 703 -69 516 -9 
Q 203 88 203 338 
Q 203 431 270 501 
Q 338 572 478 572 
z
" transform="scale(0.015625)"/>
        <path id="Times-Roman-32" d="M 191 72 
Q 1334 1259 1743 1815 
Q 2153 2372 2153 2900 
Q 2153 3363 1903 3605 
Q 1653 3847 1306 3847 
Q 878 3847 613 3534 
Q 466 3363 331 3006 
L 197 3034 
Q 353 3753 726 4033 
Q 1100 4313 1528 4313 
Q 2056 4313 2382 3980 
Q 2709 3647 2709 3166 
Q 2709 2653 2356 2178 
Q 2003 1703 822 488 
L 2256 488 
Q 2556 488 2678 559 
Q 2800 631 2953 909 
L 3034 872 
L 2688 0 
L 191 0 
L 191 72 
z
" transform="scale(0.015625)"/>
        <path id="Times-Roman-34" d="M 1866 3650 
L 331 1481 
L 1866 1481 
L 1866 3650 
z
M 2072 4294 
L 2369 4294 
L 2369 1481 
L 3022 1481 
L 3022 1066 
L 2369 1066 
L 2369 0 
L 1872 0 
L 1872 1066 
L 72 1066 
L 72 1481 
L 2072 4294 
z
" transform="scale(0.015625)"/>
        <path id="Times-Roman-30" d="M 1531 116 
Q 1991 116 2162 619 
Q 2334 1122 2334 2075 
Q 2334 2834 2231 3288 
Q 2038 4131 1506 4131 
Q 975 4131 778 3263 
Q 675 2800 675 2044 
Q 675 1334 781 909 
Q 981 116 1531 116 
z
M 1522 4300 
Q 2241 4300 2638 3547 
Q 2953 2938 2953 2147 
Q 2953 1525 2759 975 
Q 2394 -59 1494 -59 
Q 878 -59 481 500 
Q 56 1097 56 2122 
Q 56 2928 341 3509 
Q 725 4300 1522 4300 
z
" transform="scale(0.015625)"/>
       </defs>
       <use xlink:href="#Times-Roman-35"/>
       <use xlink:href="#Times-Roman-32" x="50"/>
       <use xlink:href="#Times-Roman-34" x="100"/>
       <use xlink:href="#Times-Roman-30" x="150"/>
      </g>
     </g>
    </g>
    <g id="xtick_2">
     <g id="line2d_3">
      <path d="M 194.748194 300.052687 
L 194.748194 10.8 
" clip-path="url(#pba1ebee7be)" style="fill: none; stroke-dasharray: 1.85,0.8; stroke-dashoffset: 0; stroke: #b2b2b2; stroke-width: 0.5"/>
     </g>
     <g id="line2d_4">
      <g>
       <use xlink:href="#m7c269738b5" x="194.748194" y="300.052687" style="stroke: #000000; stroke-width: 0.8"/>
      </g>
     </g>
     <g id="text_2">
      <!-- 5260 -->
      <g transform="translate(176.748194 315.893937)scale(0.18 -0.18)">
       <defs>
        <path id="Times-Roman-36" d="M 2994 1422 
Q 2994 850 2626 390 
Q 2259 -69 1672 -69 
Q 1122 -69 670 447 
Q 219 963 219 1819 
Q 219 2922 1094 3713 
Q 1875 4375 2850 4375 
L 2866 4272 
Q 2475 4200 2192 4076 
Q 1909 3953 1688 3731 
Q 1459 3506 1259 3159 
Q 1059 2813 984 2472 
Q 1178 2591 1319 2647 
Q 1569 2747 1822 2747 
Q 2319 2747 2656 2403 
Q 2994 2059 2994 1422 
z
M 2422 1181 
Q 2422 1597 2291 1919 
Q 2072 2456 1547 2456 
Q 1063 2456 903 2169 
Q 809 2000 809 1606 
Q 809 1097 1026 609 
Q 1244 122 1713 122 
Q 2084 122 2253 439 
Q 2422 756 2422 1181 
z
" transform="scale(0.015625)"/>
       </defs>
       <use xlink:href="#Times-Roman-35"/>
       <use xlink:href="#Times-Roman-32" x="50"/>
       <use xlink:href="#Times-Roman-36" x="100"/>
       <use xlink:href="#Times-Roman-30" x="150"/>
      </g>
     </g>
    </g>
    <g id="xtick_3">
     <g id="line2d_5">
      <path d="M 287.256446 300.052687 
L 287.256446 10.8 
" clip-path="url(#pba1ebee7be)" style="fill: none; stroke-dasharray: 1.85,0.8; stroke-dashoffset: 0; stroke: #b2b2b2; stroke-width: 0.5"/>
     </g>
     <g id="line2d_6">
      <g>
       <use xlink:href="#m7c269738b5" x="287.256446" y="300.052687" style="stroke: #000000; stroke-width: 0.8"/>
      </g>
     </g>
     <g id="text_3">
      <!-- 5280 -->
      <g transform="translate(269.256446 315.893937)scale(0.18 -0.18)">
       <defs>
        <path id="Times-Roman-38" d="M 1609 106 
Q 1969 106 2153 306 
Q 2338 506 2338 806 
Q 2338 1147 2142 1358 
Q 1947 1569 1341 1997 
Q 1072 1828 950 1559 
Q 828 1291 828 1041 
Q 828 613 1048 359 
Q 1269 106 1609 106 
z
M 1650 2494 
Q 1944 2700 2056 2841 
Q 2250 3081 2250 3422 
Q 2250 3719 2067 3926 
Q 1884 4134 1513 4134 
Q 1225 4134 1037 3953 
Q 850 3772 850 3513 
Q 850 3219 1070 2967 
Q 1291 2716 1650 2494 
z
M 1169 2131 
Q 756 2463 606 2659 
Q 375 2959 375 3322 
Q 375 3734 717 4021 
Q 1059 4309 1606 4309 
Q 2109 4309 2406 4037 
Q 2703 3766 2703 3406 
Q 2703 3041 2400 2750 
Q 2225 2584 1834 2369 
Q 2366 1975 2595 1683 
Q 2825 1391 2825 994 
Q 2825 544 2486 237 
Q 2147 -69 1578 -69 
Q 1069 -69 705 214 
Q 341 497 341 959 
Q 341 1356 594 1659 
Q 759 1856 1169 2131 
z
" transform="scale(0.015625)"/>
       </defs>
       <use xlink:href="#Times-Roman-35"/>
       <use xlink:href="#Times-Roman-32" x="50"/>
       <use xlink:href="#Times-Roman-38" x="100"/>
       <use xlink:href="#Times-Roman-30" x="150"/>
      </g>
     </g>
    </g>
    <g id="xtick_4">
     <g id="line2d_7">
      <path d="M 379.764699 300.052687 
L 379.764699 10.8 
" clip-path="url(#pba1ebee7be)" style="fill: none; stroke-dasharray: 1.85,0.8; stroke-dashoffset: 0; stroke: #b2b2b2; stroke-width: 0.5"/>
     </g>
     <g id="line2d_8">
      <g>
       <use xlink:href="#m7c269738b5" x="379.764699" y="300.052687" style="stroke: #000000; stroke-width: 0.8"/>
      </g>
     </g>
     <g id="text_4">
      <!-- 5300 -->
      <g transform="translate(361.764699 315.893937)scale(0.18 -0.18)">
       <defs>
        <path id="Times-Roman-33" d="M 497 544 
Q 669 544 951 366 
Q 1234 188 1431 188 
Q 1869 188 2081 483 
Q 2294 778 2294 1125 
Q 2294 1459 2122 1713 
Q 1831 2141 1141 2141 
Q 1100 2141 1062 2139 
Q 1025 2138 975 2131 
L 969 2213 
Q 1469 2394 1756 2628 
Q 2044 2863 2044 3247 
Q 2044 3588 1817 3766 
Q 1591 3944 1300 3944 
Q 956 3944 694 3691 
Q 550 3553 384 3266 
L 288 3288 
Q 413 3763 753 4047 
Q 1094 4331 1541 4331 
Q 2019 4331 2280 4068 
Q 2541 3806 2541 3463 
Q 2541 3159 2325 2906 
Q 2203 2763 1947 2584 
Q 2247 2456 2428 2284 
Q 2769 1956 2769 1453 
Q 2769 859 2301 406 
Q 1834 -47 972 -47 
Q 588 -47 433 67 
Q 278 181 278 313 
Q 278 394 329 469 
Q 381 544 497 544 
z
" transform="scale(0.015625)"/>
       </defs>
       <use xlink:href="#Times-Roman-35"/>
       <use xlink:href="#Times-Roman-33" x="50"/>
       <use xlink:href="#Times-Roman-30" x="100"/>
       <use xlink:href="#Times-Roman-30" x="150"/>
      </g>
     </g>
    </g>
    <g id="xtick_5">
     <g id="line2d_9">
      <path d="M 472.272952 300.052687 
L 472.272952 10.8 
" clip-path="url(#pba1ebee7be)" style="fill: none; stroke-dasharray: 1.85,0.8; stroke-dashoffset: 0; stroke: #b2b2b2; stroke-width: 0.5"/>
     </g>
     <g id="line2d_10">
      <g>
       <use xlink:href="#m7c269738b5" x="472.272952" y="300.052687" style="stroke: #000000; stroke-width: 0.8"/>
      </g>
     </g>
     <g id="text_5">
      <!-- 5320 -->
      <g transform="translate(454.272952 315.893937)scale(0.18 -0.18)">
       <use xlink:href="#Times-Roman-35"/>
       <use xlink:href="#Times-Roman-33" x="50"/>
       <use xlink:href="#Times-Roman-32" x="100"/>
       <use xlink:href="#Times-Roman-30" x="150"/>
      </g>
     </g>
    </g>
    <g id="xtick_6">
     <g id="line2d_11">
      <path d="M 564.781205 300.052687 
L 564.781205 10.8 
" clip-path="url(#pba1ebee7be)" style="fill: none; stroke-dasharray: 1.85,0.8; stroke-dashoffset: 0; stroke: #b2b2b2; stroke-width: 0.5"/>
     </g>
     <g id="line2d_12">
      <g>
       <use xlink:href="#m7c269738b5" x="564.781205" y="300.052687" style="stroke: #000000; stroke-width: 0.8"/>
      </g>
     </g>
     <g id="text_6">
      <!-- 5340 -->
      <g transform="translate(546.781205 315.893937)scale(0.18 -0.18)">
       <use xlink:href="#Times-Roman-35"/>
       <use xlink:href="#Times-Roman-33" x="50"/>
       <use xlink:href="#Times-Roman-34" x="100"/>
       <use xlink:href="#Times-Roman-30" x="150"/>
      </g>
     </g>
    </g>
    <g id="text_7">
     <!-- $m_{K^+ \pi^- \mu^+ \mu^-}$ [MeV/$c^2$] -->
     <g transform="translate(223.479375 340.814563)scale(0.2 -0.2)">
      <defs>
       <path id="Cmmi10-6d" d="M 494 109 
Q 494 147 500 166 
L 978 2075 
Q 1025 2253 1025 2388 
Q 1025 2663 838 2663 
Q 638 2663 541 2423 
Q 444 2184 353 1819 
Q 353 1800 334 1789 
Q 316 1778 300 1778 
L 225 1778 
Q 203 1778 187 1801 
Q 172 1825 172 1844 
Q 241 2122 305 2315 
Q 369 2509 505 2668 
Q 641 2828 844 2828 
Q 1084 2828 1268 2676 
Q 1453 2525 1453 2291 
Q 1644 2541 1900 2684 
Q 2156 2828 2444 2828 
Q 2747 2828 2967 2673 
Q 3188 2519 3188 2234 
Q 3384 2513 3648 2670 
Q 3913 2828 4225 2828 
Q 4556 2828 4757 2648 
Q 4959 2469 4959 2138 
Q 4959 1875 4842 1503 
Q 4725 1131 4550 672 
Q 4459 450 4459 288 
Q 4459 97 4609 97 
Q 4859 97 5025 365 
Q 5191 634 5259 941 
Q 5278 978 5313 978 
L 5388 978 
Q 5413 978 5430 961 
Q 5447 944 5447 922 
Q 5447 916 5441 903 
Q 5353 541 5136 234 
Q 4919 -72 4594 -72 
Q 4369 -72 4209 83 
Q 4050 238 4050 459 
Q 4050 572 4103 709 
Q 4284 1191 4404 1569 
Q 4525 1947 4525 2234 
Q 4525 2413 4453 2538 
Q 4381 2663 4213 2663 
Q 3863 2663 3606 2448 
Q 3350 2234 3163 1881 
Q 3150 1819 3144 1784 
L 2731 141 
Q 2709 53 2632 -9 
Q 2556 -72 2463 -72 
Q 2388 -72 2330 -22 
Q 2272 28 2272 109 
Q 2272 147 2278 166 
L 2688 1797 
Q 2753 2059 2753 2234 
Q 2753 2413 2679 2538 
Q 2606 2663 2431 2663 
Q 2197 2663 2000 2559 
Q 1803 2456 1656 2286 
Q 1509 2116 1388 1881 
L 953 141 
Q 931 53 854 -9 
Q 778 -72 684 -72 
Q 606 -72 550 -22 
Q 494 28 494 109 
z
" transform="scale(0.015625)"/>
       <path id="Cmmi10-4b" d="M 300 0 
Q 238 0 238 84 
Q 241 100 250 139 
Q 259 178 276 201 
Q 294 225 319 225 
Q 709 225 863 269 
Q 947 297 984 441 
L 1863 3956 
Q 1875 4019 1875 4044 
Q 1875 4113 1797 4122 
Q 1678 4147 1338 4147 
Q 1275 4147 1275 4231 
Q 1297 4313 1309 4342 
Q 1322 4372 1381 4372 
L 3103 4372 
Q 3169 4372 3169 4288 
Q 3166 4272 3156 4234 
Q 3147 4197 3131 4172 
Q 3116 4147 3084 4147 
Q 2694 4147 2541 4103 
Q 2456 4072 2419 3928 
L 1900 1856 
L 4409 3794 
Q 4416 3806 4489 3879 
Q 4563 3953 4563 4025 
Q 4563 4147 4347 4147 
Q 4281 4147 4281 4231 
Q 4294 4281 4301 4309 
Q 4309 4338 4329 4355 
Q 4350 4372 4391 4372 
L 5631 4372 
Q 5666 4372 5681 4347 
Q 5697 4322 5697 4288 
Q 5694 4272 5683 4231 
Q 5672 4191 5655 4169 
Q 5638 4147 5606 4147 
Q 5138 4147 4581 3713 
Q 4578 3709 4572 3707 
Q 4566 3706 4559 3704 
Q 4553 3703 4550 3700 
L 3231 2675 
L 4191 428 
Q 4278 288 4378 256 
Q 4478 225 4684 225 
Q 4750 225 4750 141 
Q 4731 66 4712 33 
Q 4694 0 4641 0 
L 3156 0 
Q 3097 0 3097 84 
Q 3106 150 3118 187 
Q 3131 225 3181 225 
Q 3344 225 3458 258 
Q 3572 291 3572 409 
Q 3572 453 3566 475 
L 2772 2322 
L 1838 1600 
L 1544 416 
Q 1528 338 1528 325 
Q 1528 259 1606 250 
Q 1728 225 2069 225 
Q 2131 225 2131 141 
Q 2109 50 2096 25 
Q 2084 0 2022 0 
L 300 0 
z
" transform="scale(0.015625)"/>
       <path id="Cmr10-2b" d="M 481 1472 
Q 428 1472 393 1512 
Q 359 1553 359 1600 
Q 359 1647 393 1687 
Q 428 1728 481 1728 
L 2363 1728 
L 2363 3616 
Q 2363 3666 2400 3698 
Q 2438 3731 2491 3731 
Q 2538 3731 2578 3698 
Q 2619 3666 2619 3616 
L 2619 1728 
L 4500 1728 
Q 4547 1728 4581 1687 
Q 4616 1647 4616 1600 
Q 4616 1553 4581 1512 
Q 4547 1472 4500 1472 
L 2619 1472 
L 2619 -416 
Q 2619 -466 2578 -498 
Q 2538 -531 2491 -531 
Q 2438 -531 2400 -498 
Q 2363 -466 2363 -416 
L 2363 1472 
L 481 1472 
z
" transform="scale(0.015625)"/>
       <path id="Cmmi10-bc" d="M 647 109 
Q 647 144 672 213 
Q 850 584 1004 942 
Q 1159 1300 1282 1639 
Q 1406 1978 1509 2363 
L 1100 2363 
Q 866 2363 662 2216 
Q 459 2069 325 1844 
Q 313 1819 288 1819 
L 213 1819 
Q 153 1819 153 1881 
Q 153 1894 166 1919 
Q 375 2275 614 2517 
Q 853 2759 1153 2759 
L 3475 2759 
Q 3541 2759 3587 2715 
Q 3634 2672 3634 2597 
Q 3634 2503 3567 2433 
Q 3500 2363 3406 2363 
L 2591 2363 
Q 2488 1859 2478 1381 
Q 2478 766 2694 269 
Q 2713 231 2713 191 
Q 2713 122 2672 62 
Q 2631 3 2567 -34 
Q 2503 -72 2431 -72 
Q 2263 -72 2200 203 
Q 2138 478 2138 738 
Q 2138 1103 2200 1442 
Q 2263 1781 2400 2363 
L 1703 2363 
Q 1197 313 1094 103 
Q 1003 -72 844 -72 
Q 766 -72 706 -20 
Q 647 31 647 109 
z
" transform="scale(0.015625)"/>
       <path id="Cmsy10-a1" d="M 653 1472 
Q 600 1472 565 1512 
Q 531 1553 531 1600 
Q 531 1647 565 1687 
Q 600 1728 653 1728 
L 4325 1728 
Q 4375 1728 4408 1687 
Q 4441 1647 4441 1600 
Q 4441 1553 4408 1512 
Q 4375 1472 4325 1472 
L 653 1472 
z
" transform="scale(0.015625)"/>
       <path id="Cmmi10-b9" d="M 178 -1203 
Q 178 -1166 184 -1153 
L 1125 2625 
Q 1153 2716 1226 2772 
Q 1300 2828 1394 2828 
Q 1475 2828 1531 2779 
Q 1588 2731 1588 2650 
Q 1588 2631 1586 2620 
Q 1584 2609 1581 2597 
L 1203 1100 
Q 1141 834 1141 641 
Q 1141 403 1253 250 
Q 1366 97 1594 97 
Q 2059 97 2413 678 
Q 2416 684 2417 687 
Q 2419 691 2419 697 
L 2881 2553 
Q 2903 2638 2981 2698 
Q 3059 2759 3150 2759 
Q 3225 2759 3283 2709 
Q 3341 2659 3341 2578 
Q 3341 2541 3334 2528 
L 2875 684 
Q 2828 503 2828 372 
Q 2828 97 3016 97 
Q 3216 97 3317 344 
Q 3419 591 3494 941 
Q 3506 978 3547 978 
L 3622 978 
Q 3647 978 3664 958 
Q 3681 938 3681 916 
Q 3569 469 3436 198 
Q 3303 -72 3003 -72 
Q 2791 -72 2627 50 
Q 2463 172 2413 378 
Q 2253 178 2039 53 
Q 1825 -72 1588 -72 
Q 1188 -72 959 116 
L 634 -1178 
Q 616 -1269 541 -1325 
Q 466 -1381 372 -1381 
Q 294 -1381 236 -1332 
Q 178 -1284 178 -1203 
z
" transform="scale(0.015625)"/>
       <path id="Times-Roman-20" transform="scale(0.015625)"/>
       <path id="Times-Roman-5b" d="M 563 4234 
L 1909 4234 
L 1909 4081 
L 1341 4081 
Q 1153 4081 1088 3963 
Q 1050 3900 1050 3791 
L 1050 -513 
Q 1050 -656 1091 -725 
Q 1159 -847 1363 -847 
L 1909 -847 
L 1909 -1009 
L 563 -1009 
L 563 4234 
z
" transform="scale(0.015625)"/>
       <path id="Times-Roman-4d" d="M 72 116 
Q 469 156 581 295 
Q 694 434 694 941 
L 694 3541 
Q 694 3888 584 3992 
Q 475 4097 88 4116 
L 88 4234 
L 1353 4234 
L 2834 1006 
L 4250 4234 
L 5525 4234 
L 5525 4116 
Q 5169 4091 5066 3986 
Q 4963 3881 4963 3541 
L 4963 694 
Q 4963 344 5066 245 
Q 5169 147 5525 116 
L 5525 0 
L 3731 0 
L 3731 116 
Q 4119 147 4214 255 
Q 4309 363 4309 769 
L 4309 3644 
L 2672 0 
L 2584 0 
L 975 3494 
L 975 941 
Q 975 416 1128 256 
Q 1228 153 1575 116 
L 1575 0 
L 72 0 
L 72 116 
z
" transform="scale(0.015625)"/>
       <path id="Times-Roman-65" d="M 1466 2931 
Q 1906 2931 2237 2626 
Q 2569 2322 2569 1763 
L 584 1763 
Q 616 1038 912 706 
Q 1209 375 1616 375 
Q 1944 375 2169 547 
Q 2394 719 2584 1034 
L 2694 997 
Q 2566 600 2214 262 
Q 1863 -75 1353 -75 
Q 766 -75 445 369 
Q 125 813 125 1391 
Q 125 2019 497 2475 
Q 869 2931 1466 2931 
z
M 1284 2703 
Q 928 2703 741 2388 
Q 641 2219 597 1963 
L 1916 1963 
Q 1881 2275 1797 2428 
Q 1644 2703 1284 2703 
z
M 1425 2931 
L 1425 2931 
z
" transform="scale(0.015625)"/>
       <path id="Times-Roman-56" d="M 1806 4234 
L 1806 4116 
Q 1566 4113 1478 4084 
Q 1325 4034 1325 3881 
Q 1325 3803 1379 3662 
Q 1434 3522 1584 3191 
L 2584 963 
L 3494 3375 
Q 3553 3534 3584 3643 
Q 3616 3753 3616 3822 
Q 3616 4006 3456 4072 
Q 3363 4109 3147 4116 
L 3147 4234 
L 4456 4234 
L 4456 4125 
Q 4253 4097 4156 4016 
Q 4009 3894 3866 3525 
L 2450 -75 
L 2353 -75 
L 775 3444 
Q 575 3891 454 4000 
Q 334 4109 103 4125 
L 103 4234 
L 1806 4234 
z
" transform="scale(0.015625)"/>
       <path id="Times-Roman-2f" d="M 1434 4325 
L 1747 4325 
L 331 -106 
L 13 -106 
L 1434 4325 
z
" transform="scale(0.015625)"/>
       <path id="Cmmi10-63" d="M 750 763 
Q 750 484 892 290 
Q 1034 97 1300 97 
Q 1681 97 2032 272 
Q 2384 447 2606 756 
Q 2625 775 2656 775 
Q 2688 775 2720 739 
Q 2753 703 2753 672 
Q 2753 647 2741 634 
Q 2506 306 2109 117 
Q 1713 -72 1288 -72 
Q 981 -72 747 73 
Q 513 219 384 462 
Q 256 706 256 1013 
Q 256 1444 497 1869 
Q 738 2294 1138 2561 
Q 1538 2828 1978 2828 
Q 2266 2828 2495 2689 
Q 2725 2550 2725 2278 
Q 2725 2103 2623 1979 
Q 2522 1856 2350 1856 
Q 2247 1856 2176 1920 
Q 2106 1984 2106 2088 
Q 2106 2238 2215 2344 
Q 2325 2450 2472 2450 
L 2484 2450 
Q 2409 2559 2267 2611 
Q 2125 2663 1972 2663 
Q 1597 2663 1315 2342 
Q 1034 2022 892 1576 
Q 750 1131 750 763 
z
" transform="scale(0.015625)"/>
       <path id="Cmr10-32" d="M 319 0 
L 319 172 
Q 319 188 331 206 
L 1325 1306 
Q 1550 1550 1690 1715 
Q 1831 1881 1968 2097 
Q 2106 2313 2186 2536 
Q 2266 2759 2266 3009 
Q 2266 3272 2169 3511 
Q 2072 3750 1880 3894 
Q 1688 4038 1416 4038 
Q 1138 4038 916 3870 
Q 694 3703 603 3438 
Q 628 3444 672 3444 
Q 816 3444 917 3347 
Q 1019 3250 1019 3097 
Q 1019 2950 917 2848 
Q 816 2747 672 2747 
Q 522 2747 420 2851 
Q 319 2956 319 3097 
Q 319 3338 409 3548 
Q 500 3759 670 3923 
Q 841 4088 1055 4175 
Q 1269 4263 1509 4263 
Q 1875 4263 2190 4108 
Q 2506 3953 2690 3670 
Q 2875 3388 2875 3009 
Q 2875 2731 2753 2481 
Q 2631 2231 2440 2026 
Q 2250 1822 1953 1562 
Q 1656 1303 1563 1216 
L 838 519 
L 1453 519 
Q 1906 519 2211 526 
Q 2516 534 2534 550 
Q 2609 631 2688 1141 
L 2875 1141 
L 2694 0 
L 319 0 
z
" transform="scale(0.015625)"/>
       <path id="Times-Roman-5d" d="M 1563 -1009 
L 213 -1009 
L 213 -853 
L 784 -853 
Q 969 -853 1038 -738 
Q 1072 -675 1072 -566 
L 1072 3741 
Q 1072 3894 1011 3983 
Q 950 4072 763 4072 
L 213 4072 
L 213 4234 
L 1563 4234 
L 1563 -1009 
z
" transform="scale(0.015625)"/>
      </defs>
      <use xlink:href="#Cmmi10-6d" transform="translate(0 0.109375)"/>
      <use xlink:href="#Cmmi10-4b" transform="translate(87.792969 -16.896875)scale(0.7)"/>
      <use xlink:href="#Cmr10-2b" transform="translate(163.793828 9.887969)scale(0.49)"/>
      <use xlink:href="#Cmmi10-bc" transform="translate(214.927598 -16.896875)scale(0.7)"/>
      <use xlink:href="#Cmsy10-a1" transform="translate(267.672816 9.887969)scale(0.49)"/>
      <use xlink:href="#Cmmi10-b9" transform="translate(318.806586 -16.896875)scale(0.7)"/>
      <use xlink:href="#Cmr10-2b" transform="translate(373.966148 9.887969)scale(0.49)"/>
      <use xlink:href="#Cmmi10-b9" transform="translate(425.099918 -16.896875)scale(0.7)"/>
      <use xlink:href="#Cmsy10-a1" transform="translate(480.25948 9.887969)scale(0.49)"/>
      <use xlink:href="#Times-Roman-20" transform="translate(537.770594 0.109375)"/>
      <use xlink:href="#Times-Roman-5b" transform="translate(562.770594 0.109375)"/>
      <use xlink:href="#Times-Roman-4d" transform="translate(596.071375 0.109375)"/>
      <use xlink:href="#Times-Roman-65" transform="translate(684.987391 0.109375)"/>
      <use xlink:href="#Times-Roman-56" transform="translate(729.372156 0.109375)"/>
      <use xlink:href="#Times-Roman-2f" transform="translate(801.588953 0.109375)"/>
      <use xlink:href="#Cmmi10-63" transform="translate(829.372156 0.109375)"/>
      <use xlink:href="#Cmr10-32" transform="translate(878.888328 38.373438)scale(0.7)"/>
      <use xlink:href="#Times-Roman-5d" transform="translate(920.265672 0.109375)"/>
     </g>
    </g>
   </g>
   <g id="matplotlib.axis_2">
    <g id="ytick_1">
     <g id="line2d_13">
      <path d="M 72.55875 267.433861 
L 565.2 267.433861 
" clip-path="url(#pba1ebee7be)" style="fill: none; stroke-dasharray: 1.85,0.8; stroke-dashoffset: 0; stroke: #b2b2b2; stroke-width: 0.5"/>
     </g>
     <g id="line2d_14">
      <defs>
       <path id="m641c980b40" d="M 0 0 
L 3.5 0 
" style="stroke: #000000; stroke-width: 0.8"/>
      </defs>
      <g>
       <use xlink:href="#m641c980b40" x="72.55875" y="267.433861" style="stroke: #000000; stroke-width: 0.8"/>
      </g>
     </g>
     <g id="text_8">
      <!-- 1800 -->
      <g transform="translate(33.05875 273.604486)scale(0.18 -0.18)">
       <defs>
        <path id="Times-Roman-31" d="M 1894 4294 
Q 1906 4278 1907 4270 
Q 1909 4263 1909 4234 
L 1909 472 
Q 1909 231 2037 165 
Q 2166 100 2516 88 
L 2516 0 
L 753 0 
L 753 94 
Q 1131 113 1247 197 
Q 1363 281 1363 563 
L 1363 3456 
Q 1363 3606 1325 3684 
Q 1288 3763 1163 3763 
Q 1081 3763 951 3717 
Q 822 3672 709 3622 
L 709 3709 
L 1856 4294 
L 1894 4294 
z
" transform="scale(0.015625)"/>
       </defs>
       <use xlink:href="#Times-Roman-31"/>
       <use xlink:href="#Times-Roman-38" x="50"/>
       <use xlink:href="#Times-Roman-30" x="100"/>
       <use xlink:href="#Times-Roman-30" x="150"/>
      </g>
     </g>
    </g>
    <g id="ytick_2">
     <g id="line2d_15">
      <path d="M 72.55875 227.918259 
L 565.2 227.918259 
" clip-path="url(#pba1ebee7be)" style="fill: none; stroke-dasharray: 1.85,0.8; stroke-dashoffset: 0; stroke: #b2b2b2; stroke-width: 0.5"/>
     </g>
     <g id="line2d_16">
      <g>
       <use xlink:href="#m641c980b40" x="72.55875" y="227.918259" style="stroke: #000000; stroke-width: 0.8"/>
      </g>
     </g>
     <g id="text_9">
      <!-- 1900 -->
      <g transform="translate(33.05875 234.088884)scale(0.18 -0.18)">
       <defs>
        <path id="Times-Roman-39" d="M 1597 1791 
Q 1809 1791 2036 1909 
Q 2263 2028 2294 2109 
Q 2306 2141 2315 2342 
Q 2325 2544 2325 2669 
Q 2325 3319 2106 3725 
Q 1888 4131 1466 4131 
Q 1159 4131 970 3853 
Q 781 3575 781 3022 
Q 781 2566 957 2178 
Q 1134 1791 1597 1791 
z
M 1509 4309 
Q 2197 4309 2572 3761 
Q 2947 3213 2947 2538 
Q 2947 2063 2769 1572 
Q 2591 1081 2250 697 
Q 1853 253 1244 38 
Q 903 -84 384 -150 
L 353 -25 
Q 678 50 894 134 
Q 1281 288 1516 509 
Q 1847 825 2045 1214 
Q 2244 1603 2294 1866 
L 2184 1784 
Q 1953 1609 1641 1544 
Q 1478 1506 1344 1506 
Q 813 1506 502 1882 
Q 191 2259 191 2781 
Q 191 3447 561 3878 
Q 931 4309 1509 4309 
z
" transform="scale(0.015625)"/>
       </defs>
       <use xlink:href="#Times-Roman-31"/>
       <use xlink:href="#Times-Roman-39" x="50"/>
       <use xlink:href="#Times-Roman-30" x="100"/>
       <use xlink:href="#Times-Roman-30" x="150"/>
      </g>
     </g>
    </g>
    <g id="ytick_3">
     <g id="line2d_17">
      <path d="M 72.55875 188.402658 
L 565.2 188.402658 
" clip-path="url(#pba1ebee7be)" style="fill: none; stroke-dasharray: 1.85,0.8; stroke-dashoffset: 0; stroke: #b2b2b2; stroke-width: 0.5"/>
     </g>
     <g id="line2d_18">
      <g>
       <use xlink:href="#m641c980b40" x="72.55875" y="188.402658" style="stroke: #000000; stroke-width: 0.8"/>
      </g>
     </g>
     <g id="text_10">
      <!-- 2000 -->
      <g transform="translate(33.05875 194.573283)scale(0.18 -0.18)">
       <use xlink:href="#Times-Roman-32"/>
       <use xlink:href="#Times-Roman-30" x="50"/>
       <use xlink:href="#Times-Roman-30" x="100"/>
       <use xlink:href="#Times-Roman-30" x="150"/>
      </g>
     </g>
    </g>
    <g id="ytick_4">
     <g id="line2d_19">
      <path d="M 72.55875 148.887056 
L 565.2 148.887056 
" clip-path="url(#pba1ebee7be)" style="fill: none; stroke-dasharray: 1.85,0.8; stroke-dashoffset: 0; stroke: #b2b2b2; stroke-width: 0.5"/>
     </g>
     <g id="line2d_20">
      <g>
       <use xlink:href="#m641c980b40" x="72.55875" y="148.887056" style="stroke: #000000; stroke-width: 0.8"/>
      </g>
     </g>
     <g id="text_11">
      <!-- 2100 -->
      <g transform="translate(33.05875 155.057681)scale(0.18 -0.18)">
       <use xlink:href="#Times-Roman-32"/>
       <use xlink:href="#Times-Roman-31" x="50"/>
       <use xlink:href="#Times-Roman-30" x="100"/>
       <use xlink:href="#Times-Roman-30" x="150"/>
      </g>
     </g>
    </g>
    <g id="ytick_5">
     <g id="line2d_21">
      <path d="M 72.55875 109.371454 
L 565.2 109.371454 
" clip-path="url(#pba1ebee7be)" style="fill: none; stroke-dasharray: 1.85,0.8; stroke-dashoffset: 0; stroke: #b2b2b2; stroke-width: 0.5"/>
     </g>
     <g id="line2d_22">
      <g>
       <use xlink:href="#m641c980b40" x="72.55875" y="109.371454" style="stroke: #000000; stroke-width: 0.8"/>
      </g>
     </g>
     <g id="text_12">
      <!-- 2200 -->
      <g transform="translate(33.05875 115.542079)scale(0.18 -0.18)">
       <use xlink:href="#Times-Roman-32"/>
       <use xlink:href="#Times-Roman-32" x="50"/>
       <use xlink:href="#Times-Roman-30" x="100"/>
       <use xlink:href="#Times-Roman-30" x="150"/>
      </g>
     </g>
    </g>
    <g id="ytick_6">
     <g id="line2d_23">
      <path d="M 72.55875 69.855853 
L 565.2 69.855853 
" clip-path="url(#pba1ebee7be)" style="fill: none; stroke-dasharray: 1.85,0.8; stroke-dashoffset: 0; stroke: #b2b2b2; stroke-width: 0.5"/>
     </g>
     <g id="line2d_24">
      <g>
       <use xlink:href="#m641c980b40" x="72.55875" y="69.855853" style="stroke: #000000; stroke-width: 0.8"/>
      </g>
     </g>
     <g id="text_13">
      <!-- 2300 -->
      <g transform="translate(33.05875 76.026478)scale(0.18 -0.18)">
       <use xlink:href="#Times-Roman-32"/>
       <use xlink:href="#Times-Roman-33" x="50"/>
       <use xlink:href="#Times-Roman-30" x="100"/>
       <use xlink:href="#Times-Roman-30" x="150"/>
      </g>
     </g>
    </g>
    <g id="ytick_7">
     <g id="line2d_25">
      <path d="M 72.55875 30.340251 
L 565.2 30.340251 
" clip-path="url(#pba1ebee7be)" style="fill: none; stroke-dasharray: 1.85,0.8; stroke-dashoffset: 0; stroke: #b2b2b2; stroke-width: 0.5"/>
     </g>
     <g id="line2d_26">
      <g>
       <use xlink:href="#m641c980b40" x="72.55875" y="30.340251" style="stroke: #000000; stroke-width: 0.8"/>
      </g>
     </g>
     <g id="text_14">
      <!-- 2400 -->
      <g transform="translate(33.05875 36.510876)scale(0.18 -0.18)">
       <use xlink:href="#Times-Roman-32"/>
       <use xlink:href="#Times-Roman-34" x="50"/>
       <use xlink:href="#Times-Roman-30" x="100"/>
       <use xlink:href="#Times-Roman-30" x="150"/>
      </g>
     </g>
    </g>
    <g id="text_15">
     <!-- Events -->
     <g transform="translate(24.7025 182.643531)rotate(-90)scale(0.2 -0.2)">
      <defs>
       <path id="Times-Roman-45" d="M 72 116 
Q 425 153 529 242 
Q 634 331 634 694 
L 634 3541 
Q 634 3881 531 3986 
Q 428 4091 72 4116 
L 72 4234 
L 3472 4234 
L 3494 3316 
L 3331 3316 
Q 3250 3741 3087 3866 
Q 2925 3991 2363 3991 
L 1494 3991 
Q 1353 3991 1320 3945 
Q 1288 3900 1288 3775 
L 1288 2347 
L 2272 2347 
Q 2681 2347 2793 2469 
Q 2906 2591 2975 2963 
L 3125 2963 
L 3125 1481 
L 2975 1481 
Q 2903 1853 2790 1973 
Q 2678 2094 2272 2094 
L 1288 2094 
L 1288 509 
Q 1288 319 1408 284 
Q 1528 250 2128 250 
Q 2778 250 3087 392 
Q 3397 534 3644 1081 
L 3822 1081 
L 3531 0 
L 72 0 
L 72 116 
z
M 1959 4234 
L 1959 4234 
z
" transform="scale(0.015625)"/>
       <path id="Times-Roman-76" d="M 1375 2903 
L 1375 2806 
Q 1213 2788 1145 2756 
Q 1078 2725 1078 2619 
Q 1078 2569 1092 2523 
Q 1106 2478 1141 2391 
L 1791 775 
L 2353 2206 
Q 2394 2309 2430 2421 
Q 2466 2534 2466 2594 
Q 2466 2716 2350 2769 
Q 2281 2797 2163 2806 
L 2163 2903 
L 3050 2903 
L 3050 2806 
Q 2897 2794 2830 2705 
Q 2763 2616 2634 2294 
L 1731 44 
Q 1706 -16 1690 -37 
Q 1675 -59 1647 -59 
Q 1616 -59 1594 -23 
Q 1572 13 1547 66 
L 591 2353 
Q 475 2631 344 2731 
Q 266 2788 116 2806 
L 116 2903 
L 1375 2903 
z
" transform="scale(0.015625)"/>
       <path id="Times-Roman-6e" d="M 116 88 
Q 338 116 427 198 
Q 516 281 516 569 
L 516 2153 
Q 516 2353 478 2434 
Q 419 2553 234 2553 
Q 206 2553 176 2550 
Q 147 2547 103 2541 
L 103 2650 
Q 231 2688 709 2844 
L 1003 2941 
Q 1025 2941 1029 2925 
Q 1034 2909 1034 2881 
L 1034 2422 
Q 1322 2691 1484 2791 
Q 1728 2944 1991 2944 
Q 2203 2944 2378 2822 
Q 2716 2584 2716 1975 
L 2716 516 
Q 2716 291 2806 191 
Q 2897 91 3109 88 
L 3109 0 
L 1775 0 
L 1775 88 
Q 2003 119 2093 214 
Q 2184 309 2184 628 
L 2184 1963 
Q 2184 2231 2084 2407 
Q 1984 2584 1716 2584 
Q 1531 2584 1341 2459 
Q 1234 2388 1066 2222 
L 1066 472 
Q 1066 247 1166 170 
Q 1266 94 1481 88 
L 1481 0 
L 116 0 
L 116 88 
z
M 1603 2944 
L 1603 2944 
z
" transform="scale(0.015625)"/>
       <path id="Times-Roman-74" d="M 1628 2881 
L 1628 2656 
L 991 2656 
L 984 856 
Q 984 619 1025 497 
Q 1100 281 1319 281 
Q 1431 281 1514 334 
Q 1597 388 1703 503 
L 1784 434 
L 1716 341 
Q 1553 122 1372 31 
Q 1191 -59 1022 -59 
Q 653 -59 522 269 
Q 450 447 450 763 
L 450 2656 
L 109 2656 
Q 94 2666 86 2675 
Q 78 2684 78 2700 
Q 78 2731 92 2748 
Q 106 2766 181 2828 
Q 397 3006 492 3117 
Q 588 3228 941 3703 
Q 981 3703 989 3697 
Q 997 3691 997 3650 
L 997 2881 
L 1628 2881 
z
" transform="scale(0.015625)"/>
       <path id="Times-Roman-73" d="M 331 984 
L 434 984 
Q 506 628 628 438 
Q 847 88 1269 88 
Q 1503 88 1639 217 
Q 1775 347 1775 553 
Q 1775 684 1697 806 
Q 1619 928 1422 1044 
L 1072 1244 
Q 688 1450 506 1659 
Q 325 1869 325 2153 
Q 325 2503 575 2728 
Q 825 2953 1203 2953 
Q 1369 2953 1567 2890 
Q 1766 2828 1791 2828 
Q 1847 2828 1872 2843 
Q 1897 2859 1916 2894 
L 1991 2894 
L 2013 2022 
L 1916 2022 
Q 1853 2325 1747 2494 
Q 1553 2806 1188 2806 
Q 969 2806 844 2672 
Q 719 2538 719 2356 
Q 719 2069 1150 1844 
L 1563 1622 
Q 2228 1259 2228 778 
Q 2228 409 1951 175 
Q 1675 -59 1228 -59 
Q 1041 -59 803 3 
Q 566 66 522 66 
Q 484 66 456 39 
Q 428 13 413 -25 
L 331 -25 
L 331 984 
z
M 1247 2953 
L 1247 2953 
z
" transform="scale(0.015625)"/>
      </defs>
      <use xlink:href="#Times-Roman-45"/>
      <use xlink:href="#Times-Roman-76" x="61.083984"/>
      <use xlink:href="#Times-Roman-65" x="111.083984"/>
      <use xlink:href="#Times-Roman-6e" x="155.46875"/>
      <use xlink:href="#Times-Roman-74" x="205.46875"/>
      <use xlink:href="#Times-Roman-73" x="233.251953"/>
     </g>
    </g>
   </g>
   <g id="LineCollection_1">
    <path clip-path="url(#pba1ebee7be)" style="fill: none; stroke: #000000; stroke-width: 2"/>
    <path clip-path="url(#pba1ebee7be)" style="fill: none; stroke: #000000; stroke-width: 2"/>
    <path clip-path="url(#pba1ebee7be)" style="fill: none; stroke: #000000; stroke-width: 2"/>
    <path clip-path="url(#pba1ebee7be)" style="fill: none; stroke: #000000; stroke-width: 2"/>
    <path clip-path="url(#pba1ebee7be)" style="fill: none; stroke: #000000; stroke-width: 2"/>
    <path clip-path="url(#pba1ebee7be)" style="fill: none; stroke: #000000; stroke-width: 2"/>
    <path clip-path="url(#pba1ebee7be)" style="fill: none; stroke: #000000; stroke-width: 2"/>
    <path d="M 218.468258 208.555614 
L 281.32643 208.555614 
" clip-path="url(#pba1ebee7be)" style="fill: none; stroke: #000000; stroke-width: 2"/>
    <path d="M 281.32643 80.525065 
L 344.184602 80.525065 
" clip-path="url(#pba1ebee7be)" style="fill: none; stroke: #000000; stroke-width: 2"/>
    <path clip-path="url(#pba1ebee7be)" style="fill: none; stroke: #000000; stroke-width: 2"/>
    <path clip-path="url(#pba1ebee7be)" style="fill: none; stroke: #000000; stroke-width: 2"/>
    <path clip-path="url(#pba1ebee7be)" style="fill: none; stroke: #000000; stroke-width: 2"/>
    <path clip-path="url(#pba1ebee7be)" style="fill: none; stroke: #000000; stroke-width: 2"/>
    <path clip-path="url(#pba1ebee7be)" style="fill: none; stroke: #000000; stroke-width: 2"/>
    <path clip-path="url(#pba1ebee7be)" style="fill: none; stroke: #000000; stroke-width: 2"/>
    <path clip-path="url(#pba1ebee7be)" style="fill: none; stroke: #000000; stroke-width: 2"/>
    <path clip-path="url(#pba1ebee7be)" style="fill: none; stroke: #000000; stroke-width: 2"/>
    <path clip-path="url(#pba1ebee7be)" style="fill: none; stroke: #000000; stroke-width: 2"/>
    <path clip-path="url(#pba1ebee7be)" style="fill: none; stroke: #000000; stroke-width: 2"/>
    <path clip-path="url(#pba1ebee7be)" style="fill: none; stroke: #000000; stroke-width: 2"/>
    <path clip-path="url(#pba1ebee7be)" style="fill: none; stroke: #000000; stroke-width: 2"/>
    <path clip-path="url(#pba1ebee7be)" style="fill: none; stroke: #000000; stroke-width: 2"/>
    <path clip-path="url(#pba1ebee7be)" style="fill: none; stroke: #000000; stroke-width: 2"/>
    <path clip-path="url(#pba1ebee7be)" style="fill: none; stroke: #000000; stroke-width: 2"/>
    <path clip-path="url(#pba1ebee7be)" style="fill: none; stroke: #000000; stroke-width: 2"/>
    <path clip-path="url(#pba1ebee7be)" style="fill: none; stroke: #000000; stroke-width: 2"/>
    <path clip-path="url(#pba1ebee7be)" style="fill: none; stroke: #000000; stroke-width: 2"/>
    <path clip-path="url(#pba1ebee7be)" style="fill: none; stroke: #000000; stroke-width: 2"/>
    <path clip-path="url(#pba1ebee7be)" style="fill: none; stroke: #000000; stroke-width: 2"/>
    <path clip-path="url(#pba1ebee7be)" style="fill: none; stroke: #000000; stroke-width: 2"/>
    <path clip-path="url(#pba1ebee7be)" style="fill: none; stroke: #000000; stroke-width: 2"/>
    <path clip-path="url(#pba1ebee7be)" style="fill: none; stroke: #000000; stroke-width: 2"/>
    <path clip-path="url(#pba1ebee7be)" style="fill: none; stroke: #000000; stroke-width: 2"/>
    <path clip-path="url(#pba1ebee7be)" style="fill: none; stroke: #000000; stroke-width: 2"/>
    <path clip-path="url(#pba1ebee7be)" style="fill: none; stroke: #000000; stroke-width: 2"/>
    <path clip-path="url(#pba1ebee7be)" style="fill: none; stroke: #000000; stroke-width: 2"/>
    <path clip-path="url(#pba1ebee7be)" style="fill: none; stroke: #000000; stroke-width: 2"/>
    <path clip-path="url(#pba1ebee7be)" style="fill: none; stroke: #000000; stroke-width: 2"/>
    <path clip-path="url(#pba1ebee7be)" style="fill: none; stroke: #000000; stroke-width: 2"/>
   </g>
   <g id="LineCollection_2">
    <path clip-path="url(#pba1ebee7be)" style="fill: none; stroke: #000000; stroke-width: 2"/>
    <path clip-path="url(#pba1ebee7be)" style="fill: none; stroke: #000000; stroke-width: 2"/>
    <path clip-path="url(#pba1ebee7be)" style="fill: none; stroke: #000000; stroke-width: 2"/>
    <path clip-path="url(#pba1ebee7be)" style="fill: none; stroke: #000000; stroke-width: 2"/>
    <path clip-path="url(#pba1ebee7be)" style="fill: none; stroke: #000000; stroke-width: 2"/>
    <path clip-path="url(#pba1ebee7be)" style="fill: none; stroke: #000000; stroke-width: 2"/>
    <path clip-path="url(#pba1ebee7be)" style="fill: none; stroke: #000000; stroke-width: 2"/>
    <path d="M 249.897344 226.000757 
L 249.897344 191.110472 
" clip-path="url(#pba1ebee7be)" style="fill: none; stroke: #000000; stroke-width: 2"/>
    <path d="M 312.755516 99.364519 
L 312.755516 61.685611 
" clip-path="url(#pba1ebee7be)" style="fill: none; stroke: #000000; stroke-width: 2"/>
    <path clip-path="url(#pba1ebee7be)" style="fill: none; stroke: #000000; stroke-width: 2"/>
    <path clip-path="url(#pba1ebee7be)" style="fill: none; stroke: #000000; stroke-width: 2"/>
    <path clip-path="url(#pba1ebee7be)" style="fill: none; stroke: #000000; stroke-width: 2"/>
    <path clip-path="url(#pba1ebee7be)" style="fill: none; stroke: #000000; stroke-width: 2"/>
    <path clip-path="url(#pba1ebee7be)" style="fill: none; stroke: #000000; stroke-width: 2"/>
    <path clip-path="url(#pba1ebee7be)" style="fill: none; stroke: #000000; stroke-width: 2"/>
    <path clip-path="url(#pba1ebee7be)" style="fill: none; stroke: #000000; stroke-width: 2"/>
    <path clip-path="url(#pba1ebee7be)" style="fill: none; stroke: #000000; stroke-width: 2"/>
    <path clip-path="url(#pba1ebee7be)" style="fill: none; stroke: #000000; stroke-width: 2"/>
    <path clip-path="url(#pba1ebee7be)" style="fill: none; stroke: #000000; stroke-width: 2"/>
    <path clip-path="url(#pba1ebee7be)" style="fill: none; stroke: #000000; stroke-width: 2"/>
    <path clip-path="url(#pba1ebee7be)" style="fill: none; stroke: #000000; stroke-width: 2"/>
    <path clip-path="url(#pba1ebee7be)" style="fill: none; stroke: #000000; stroke-width: 2"/>
    <path clip-path="url(#pba1ebee7be)" style="fill: none; stroke: #000000; stroke-width: 2"/>
    <path clip-path="url(#pba1ebee7be)" style="fill: none; stroke: #000000; stroke-width: 2"/>
    <path clip-path="url(#pba1ebee7be)" style="fill: none; stroke: #000000; stroke-width: 2"/>
    <path clip-path="url(#pba1ebee7be)" style="fill: none; stroke: #000000; stroke-width: 2"/>
    <path clip-path="url(#pba1ebee7be)" style="fill: none; stroke: #000000; stroke-width: 2"/>
    <path clip-path="url(#pba1ebee7be)" style="fill: none; stroke: #000000; stroke-width: 2"/>
    <path clip-path="url(#pba1ebee7be)" style="fill: none; stroke: #000000; stroke-width: 2"/>
    <path clip-path="url(#pba1ebee7be)" style="fill: none; stroke: #000000; stroke-width: 2"/>
    <path clip-path="url(#pba1ebee7be)" style="fill: none; stroke: #000000; stroke-width: 2"/>
    <path clip-path="url(#pba1ebee7be)" style="fill: none; stroke: #000000; stroke-width: 2"/>
    <path clip-path="url(#pba1ebee7be)" style="fill: none; stroke: #000000; stroke-width: 2"/>
    <path clip-path="url(#pba1ebee7be)" style="fill: none; stroke: #000000; stroke-width: 2"/>
    <path clip-path="url(#pba1ebee7be)" style="fill: none; stroke: #000000; stroke-width: 2"/>
    <path clip-path="url(#pba1ebee7be)" style="fill: none; stroke: #000000; stroke-width: 2"/>
    <path clip-path="url(#pba1ebee7be)" style="fill: none; stroke: #000000; stroke-width: 2"/>
    <path clip-path="url(#pba1ebee7be)" style="fill: none; stroke: #000000; stroke-width: 2"/>
    <path clip-path="url(#pba1ebee7be)" style="fill: none; stroke: #000000; stroke-width: 2"/>
   </g>
   <g id="line2d_27">
    <path d="M 228.999994 361 
L 235.348008 311.291335 
L 240.260771 273.708554 
L 245.173534 237.398728 
L 250.086297 202.840424 
L 254.99906 170.512821 
L 259.911823 140.884236 
L 264.824586 114.40029 
L 269.737348 91.472154 
L 274.650111 72.465307 
L 279.562874 57.68925 
L 284.475637 47.3886 
L 289.3884 41.735927 
L 294.301163 40.826639 
L 299.213926 44.676128 
L 304.126689 53.219314 
L 309.039452 66.31259 
L 313.952215 83.73809 
L 318.864978 105.210112 
L 323.777741 130.38339 
L 328.690504 158.862907 
L 333.603266 190.214819 
L 338.516029 223.978069 
L 343.428792 259.676239 
L 348.341555 296.829216 
L 356.562687 361 
L 356.562687 361 
" clip-path="url(#pba1ebee7be)" style="fill: none; stroke: #000000; stroke-width: 2; stroke-linecap: square"/>
   </g>
   <g id="line2d_28">
    <path d="M 229.67201 361 
L 235.348008 320.064982 
L 240.260771 285.599038 
L 245.173534 252.437955 
L 250.086297 220.99566 
L 254.99906 191.683288 
L 259.911823 164.899853 
L 264.824586 141.02276 
L 269.737348 120.398463 
L 274.650111 103.333604 
L 279.562874 90.086962 
L 284.475637 80.862518 
L 289.3884 75.803892 
L 294.301163 74.990389 
L 299.213926 78.434799 
L 304.126689 86.083039 
L 309.039452 97.815658 
L 313.952215 113.451136 
L 318.864978 132.750857 
L 323.777741 155.425549 
L 328.690504 181.142941 
L 333.603266 209.536356 
L 338.516029 240.213908 
L 343.428792 272.76797 
L 348.341555 306.784607 
L 355.887804 361 
L 355.887804 361 
" clip-path="url(#pba1ebee7be)" style="fill: none; stroke-dasharray: 7.4,3.2; stroke-dashoffset: 0; stroke: #ff0000; stroke-opacity: 0.5; stroke-width: 2"/>
   </g>
   <g id="line2d_29">
    <defs>
     <path id="m780be3bb59" d="M 0 1.5 
C 0.397805 1.5 0.77937 1.341951 1.06066 1.06066 
C 1.341951 0.77937 1.5 0.397805 1.5 0 
C 1.5 -0.397805 1.341951 -0.77937 1.06066 -1.06066 
C 0.77937 -1.341951 0.397805 -1.5 0 -1.5 
C -0.397805 -1.5 -0.77937 -1.341951 -1.06066 -1.06066 
C -1.341951 -0.77937 -1.5 -0.397805 -1.5 0 
C -1.5 0.397805 -1.341951 0.77937 -1.06066 1.06066 
C -0.77937 1.341951 -0.397805 1.5 0 1.5 
z
" style="stroke: #000000"/>
    </defs>
    <g clip-path="url(#pba1ebee7be)">
     <use xlink:href="#m780be3bb59" x="-1" y="967.123914" style="stroke: #000000"/>
     <use xlink:href="#m780be3bb59" x="61.322829" y="951.84408" style="stroke: #000000"/>
     <use xlink:href="#m780be3bb59" x="124.181001" y="885.45787" style="stroke: #000000"/>
     <use xlink:href="#m780be3bb59" x="187.039173" y="671.678465" style="stroke: #000000"/>
     <use xlink:href="#m780be3bb59" x="249.897344" y="208.555614" style="stroke: #000000"/>
     <use xlink:href="#m780be3bb59" x="312.755516" y="80.525065" style="stroke: #000000"/>
     <use xlink:href="#m780be3bb59" x="375.613688" y="484.374513" style="stroke: #000000"/>
     <use xlink:href="#m780be3bb59" x="438.47186" y="841.990708" style="stroke: #000000"/>
     <use xlink:href="#m780be3bb59" x="501.330031" y="941.174868" style="stroke: #000000"/>
     <use xlink:href="#m780be3bb59" x="564.188203" y="966.069697" style="stroke: #000000"/>
     <use xlink:href="#m780be3bb59" x="627.046375" y="975.553441" style="stroke: #000000"/>
     <use xlink:href="#m780be3bb59" x="689.904547" y="977.924377" style="stroke: #000000"/>
     <use xlink:href="#m780be3bb59" x="752.762718" y="975.553441" style="stroke: #000000"/>
     <use xlink:href="#m780be3bb59" x="815.62089" y="977.924377" style="stroke: #000000"/>
     <use xlink:href="#m780be3bb59" x="878.479062" y="978.714689" style="stroke: #000000"/>
     <use xlink:href="#m780be3bb59" x="941.337234" y="977.924377" style="stroke: #000000"/>
     <use xlink:href="#m780be3bb59" x="1004.195406" y="978.319533" style="stroke: #000000"/>
     <use xlink:href="#m780be3bb59" x="1067.053577" y="978.319533" style="stroke: #000000"/>
     <use xlink:href="#m780be3bb59" x="1129.911749" y="978.714689" style="stroke: #000000"/>
     <use xlink:href="#m780be3bb59" x="1192.769921" y="978.319533" style="stroke: #000000"/>
     <use xlink:href="#m780be3bb59" x="1255.628093" y="978.714689" style="stroke: #000000"/>
     <use xlink:href="#m780be3bb59" x="1318.486264" y="977.924377" style="stroke: #000000"/>
     <use xlink:href="#m780be3bb59" x="1381.344436" y="978.714689" style="stroke: #000000"/>
     <use xlink:href="#m780be3bb59" x="1444.202608" y="978.714689" style="stroke: #000000"/>
     <use xlink:href="#m780be3bb59" x="1507.06078" y="978.319533" style="stroke: #000000"/>
     <use xlink:href="#m780be3bb59" x="1569.918951" y="977.924377" style="stroke: #000000"/>
     <use xlink:href="#m780be3bb59" x="1632.777123" y="978.714689" style="stroke: #000000"/>
     <use xlink:href="#m780be3bb59" x="1695.635295" y="978.714689" style="stroke: #000000"/>
     <use xlink:href="#m780be3bb59" x="1758.493467" y="978.714689" style="stroke: #000000"/>
     <use xlink:href="#m780be3bb59" x="1821.351639" y="978.714689" style="stroke: #000000"/>
     <use xlink:href="#m780be3bb59" x="1884.20981" y="978.714689" style="stroke: #000000"/>
     <use xlink:href="#m780be3bb59" x="1947.067982" y="978.714689" style="stroke: #000000"/>
     <use xlink:href="#m780be3bb59" x="2009.926154" y="978.714689" style="stroke: #000000"/>
     <use xlink:href="#m780be3bb59" x="2072.784326" y="978.714689" style="stroke: #000000"/>
     <use xlink:href="#m780be3bb59" x="2135.642497" y="978.714689" style="stroke: #000000"/>
     <use xlink:href="#m780be3bb59" x="2198.500669" y="978.714689" style="stroke: #000000"/>
    </g>
   </g>
   <g id="patch_42">
    <path d="M 72.55875 300.052688 
L 72.55875 10.8 
" style="fill: none; stroke: #bcbcbc; stroke-width: 0.8; stroke-linejoin: miter; stroke-linecap: square"/>
   </g>
   <g id="patch_43">
    <path d="M 565.2 300.052688 
L 565.2 10.8 
" style="fill: none; stroke: #bcbcbc; stroke-width: 0.8; stroke-linejoin: miter; stroke-linecap: square"/>
   </g>
   <g id="patch_44">
    <path d="M 72.55875 300.052687 
L 565.2 300.052687 
" style="fill: none; stroke: #bcbcbc; stroke-width: 0.8; stroke-linejoin: miter; stroke-linecap: square"/>
   </g>
   <g id="patch_45">
    <path d="M 72.55875 10.8 
L 565.2 10.8 
" style="fill: none; stroke: #bcbcbc; stroke-width: 0.8; stroke-linejoin: miter; stroke-linecap: square"/>
   </g>
   <g id="legend_1">
    <g id="patch_46">
     <path d="M 397.62 76.24125 
L 552.6 76.24125 
Q 556.2 76.24125 556.2 72.64125 
L 556.2 23.4 
Q 556.2 19.8 552.6 19.8 
L 397.62 19.8 
Q 394.02 19.8 394.02 23.4 
L 394.02 72.64125 
Q 394.02 76.24125 397.62 76.24125 
z
" style="fill: #eeeeee; opacity: 0.8; stroke: #cccccc; stroke-width: 0.5; stroke-linejoin: miter"/>
    </g>
    <g id="line2d_30">
     <path d="M 401.22 33.3 
L 419.22 33.3 
L 437.22 33.3 
" style="fill: none; stroke: #000000; stroke-width: 2; stroke-linecap: square"/>
    </g>
    <g id="text_16">
     <!-- Fine-tuned $\sigma$  -->
     <g transform="translate(451.62 39.6)scale(0.18 -0.18)">
      <defs>
       <path id="Times-Roman-46" d="M 72 116 
Q 450 156 542 254 
Q 634 353 634 769 
L 634 3541 
Q 634 3881 531 3986 
Q 428 4091 72 4116 
L 72 4234 
L 3481 4234 
L 3503 3316 
L 3325 3316 
Q 3259 3756 3078 3873 
Q 2897 3991 2363 3991 
L 1488 3991 
Q 1359 3991 1323 3947 
Q 1288 3903 1288 3775 
L 1288 2347 
L 2213 2347 
Q 2622 2347 2734 2469 
Q 2847 2591 2916 2963 
L 3066 2963 
L 3066 1481 
L 2916 1481 
Q 2844 1853 2731 1973 
Q 2619 2094 2213 2094 
L 1288 2094 
L 1288 694 
Q 1288 341 1395 242 
Q 1503 144 1866 116 
L 1866 0 
L 72 0 
L 72 116 
z
" transform="scale(0.015625)"/>
       <path id="Times-Roman-69" d="M 525 4034 
Q 525 4169 619 4266 
Q 713 4363 850 4363 
Q 984 4363 1079 4267 
Q 1175 4172 1175 4034 
Q 1175 3900 1079 3804 
Q 984 3709 850 3709 
Q 713 3709 619 3804 
Q 525 3900 525 4034 
z
M 125 88 
Q 459 119 546 201 
Q 634 284 634 650 
L 634 2141 
Q 634 2344 606 2422 
Q 559 2550 409 2550 
Q 375 2550 342 2544 
Q 309 2538 153 2494 
L 153 2591 
L 288 2634 
Q 834 2813 1050 2903 
Q 1138 2941 1163 2941 
Q 1169 2919 1169 2894 
L 1169 650 
Q 1169 294 1255 203 
Q 1341 113 1644 88 
L 1644 0 
L 125 0 
L 125 88 
z
" transform="scale(0.015625)"/>
       <path id="Times-Roman-2d" d="M 250 1644 
L 1822 1644 
L 1822 1244 
L 250 1244 
L 250 1644 
z
" transform="scale(0.015625)"/>
       <path id="Times-Roman-75" d="M 991 2894 
L 991 894 
Q 991 681 1050 553 
Q 1166 316 1475 316 
Q 1688 316 1891 456 
Q 2006 534 2125 672 
L 2125 2384 
Q 2125 2625 2031 2700 
Q 1938 2775 1656 2791 
L 1656 2894 
L 2666 2894 
L 2666 694 
Q 2666 481 2742 401 
Q 2819 322 3066 331 
L 3066 244 
Q 2894 197 2812 173 
Q 2731 150 2541 88 
Q 2459 59 2184 -47 
Q 2169 -47 2166 -33 
Q 2163 -19 2163 0 
L 2163 503 
Q 1950 250 1775 128 
Q 1509 -59 1213 -59 
Q 941 -59 700 134 
Q 456 325 456 775 
L 456 2397 
Q 456 2647 350 2731 
Q 281 2784 56 2806 
L 56 2894 
L 991 2894 
z
M 1603 2931 
L 1603 2931 
z
" transform="scale(0.015625)"/>
       <path id="Times-Roman-64" d="M 1516 2953 
Q 1744 2953 1934 2853 
Q 2059 2788 2175 2672 
L 2175 3666 
Q 2175 3856 2133 3928 
Q 2091 4000 1931 4000 
Q 1894 4000 1866 3997 
Q 1838 3994 1741 3984 
L 1741 4088 
L 1997 4153 
Q 2138 4191 2278 4231 
Q 2419 4272 2525 4309 
Q 2575 4325 2691 4369 
L 2709 4363 
L 2703 4034 
Q 2700 3856 2697 3667 
Q 2694 3478 2694 3294 
L 2688 741 
Q 2688 538 2738 456 
Q 2788 375 3003 375 
Q 3038 375 3072 376 
Q 3106 378 3141 384 
L 3141 281 
Q 3122 275 2688 125 
L 2197 -59 
L 2175 -31 
L 2175 353 
Q 2000 163 1872 81 
Q 1644 -59 1344 -59 
Q 813 -59 483 352 
Q 153 763 153 1303 
Q 153 1981 548 2467 
Q 944 2953 1516 2953 
z
M 1631 278 
Q 1875 278 2025 422 
Q 2175 566 2175 694 
L 2175 2034 
Q 2175 2441 1958 2608 
Q 1741 2775 1534 2775 
Q 1141 2775 922 2426 
Q 703 2078 703 1569 
Q 703 1066 936 672 
Q 1169 278 1631 278 
z
" transform="scale(0.015625)"/>
       <path id="Cmmi10-be" d="M 1197 -72 
Q 913 -72 692 64 
Q 472 200 351 431 
Q 231 663 231 941 
Q 231 1238 365 1566 
Q 500 1894 733 2166 
Q 966 2438 1259 2598 
Q 1553 2759 1863 2759 
L 3475 2759 
Q 3541 2759 3587 2715 
Q 3634 2672 3634 2597 
Q 3634 2503 3567 2433 
Q 3500 2363 3406 2363 
L 2625 2363 
Q 2809 2088 2809 1697 
Q 2809 1375 2684 1062 
Q 2559 750 2337 492 
Q 2116 234 1820 81 
Q 1525 -72 1197 -72 
z
M 1203 97 
Q 1553 97 1823 370 
Q 2094 644 2237 1039 
Q 2381 1434 2381 1772 
Q 2381 2047 2229 2205 
Q 2078 2363 1806 2363 
Q 1434 2363 1173 2113 
Q 913 1863 783 1484 
Q 653 1106 653 756 
Q 653 481 798 289 
Q 944 97 1203 97 
z
" transform="scale(0.015625)"/>
      </defs>
      <use xlink:href="#Times-Roman-46" transform="translate(0 0.734375)"/>
      <use xlink:href="#Times-Roman-69" transform="translate(55.615234 0.734375)"/>
      <use xlink:href="#Times-Roman-6e" transform="translate(83.398438 0.734375)"/>
      <use xlink:href="#Times-Roman-65" transform="translate(133.398438 0.734375)"/>
      <use xlink:href="#Times-Roman-2d" transform="translate(177.783203 0.734375)"/>
      <use xlink:href="#Times-Roman-74" transform="translate(211.083984 0.734375)"/>
      <use xlink:href="#Times-Roman-75" transform="translate(238.867188 0.734375)"/>
      <use xlink:href="#Times-Roman-6e" transform="translate(288.867188 0.734375)"/>
      <use xlink:href="#Times-Roman-65" transform="translate(338.867188 0.734375)"/>
      <use xlink:href="#Times-Roman-64" transform="translate(383.251953 0.734375)"/>
      <use xlink:href="#Times-Roman-20" transform="translate(433.251953 0.734375)"/>
      <use xlink:href="#Cmmi10-be" transform="translate(458.251953 0.734375)"/>
      <use xlink:href="#Times-Roman-20" transform="translate(515.332031 0.734375)"/>
     </g>
    </g>
    <g id="line2d_31">
     <path d="M 401.22 58.820625 
L 419.22 58.820625 
L 437.22 58.820625 
" style="fill: none; stroke-dasharray: 7.4,3.2; stroke-dashoffset: 0; stroke: #ff0000; stroke-opacity: 0.5; stroke-width: 2"/>
    </g>
    <g id="text_17">
     <!-- Initial $\sigma$ -->
     <g transform="translate(451.62 65.120625)scale(0.18 -0.18)">
      <defs>
       <path id="Times-Roman-49" d="M 103 116 
Q 494 144 609 233 
Q 725 322 725 694 
L 725 3541 
Q 725 3894 609 3995 
Q 494 4097 103 4116 
L 103 4234 
L 1997 4234 
L 1997 4116 
Q 1606 4097 1490 3995 
Q 1375 3894 1375 3541 
L 1375 694 
Q 1375 322 1490 233 
Q 1606 144 1997 116 
L 1997 0 
L 103 0 
L 103 116 
z
M 1050 4234 
L 1050 4234 
z
" transform="scale(0.015625)"/>
       <path id="Times-Roman-61" d="M 1834 1731 
Q 1475 1613 1241 1469 
Q 791 1191 791 838 
Q 791 553 978 419 
Q 1100 331 1250 331 
Q 1456 331 1645 447 
Q 1834 563 1834 741 
L 1834 1731 
z
M 234 622 
Q 234 1075 688 1378 
Q 975 1566 1834 1888 
L 1834 2153 
Q 1834 2472 1772 2597 
Q 1666 2806 1331 2806 
Q 1172 2806 1028 2725 
Q 884 2641 884 2494 
Q 884 2456 900 2367 
Q 916 2278 916 2253 
Q 916 2078 800 2009 
Q 734 1969 644 1969 
Q 503 1969 428 2061 
Q 353 2153 353 2266 
Q 353 2484 623 2723 
Q 894 2963 1416 2963 
Q 2022 2963 2238 2569 
Q 2353 2353 2353 1941 
L 2353 688 
Q 2353 506 2378 438 
Q 2419 316 2547 316 
Q 2619 316 2666 337 
Q 2713 359 2828 444 
L 2828 281 
Q 2728 159 2613 81 
Q 2438 -38 2256 -38 
Q 2044 -38 1948 100 
Q 1853 238 1844 428 
Q 1606 222 1438 122 
Q 1153 -47 897 -47 
Q 628 -47 431 142 
Q 234 331 234 622 
z
M 1425 2963 
L 1425 2963 
z
" transform="scale(0.015625)"/>
       <path id="Times-Roman-6c" d="M 131 88 
Q 422 116 525 205 
Q 628 294 628 553 
L 628 3606 
Q 628 3813 594 3891 
Q 531 4022 341 4022 
Q 297 4022 245 4012 
Q 194 4003 116 3984 
L 116 4088 
Q 538 4200 1131 4388 
Q 1153 4388 1158 4369 
Q 1163 4350 1163 4288 
L 1163 541 
Q 1163 269 1256 189 
Q 1350 109 1644 88 
L 1644 0 
L 131 0 
L 131 88 
z
" transform="scale(0.015625)"/>
      </defs>
      <use xlink:href="#Times-Roman-49" transform="translate(0 0.4375)"/>
      <use xlink:href="#Times-Roman-6e" transform="translate(33.300781 0.4375)"/>
      <use xlink:href="#Times-Roman-69" transform="translate(83.300781 0.4375)"/>
      <use xlink:href="#Times-Roman-74" transform="translate(111.083984 0.4375)"/>
      <use xlink:href="#Times-Roman-69" transform="translate(138.867188 0.4375)"/>
      <use xlink:href="#Times-Roman-61" transform="translate(166.650391 0.4375)"/>
      <use xlink:href="#Times-Roman-6c" transform="translate(211.035156 0.4375)"/>
      <use xlink:href="#Times-Roman-20" transform="translate(238.818359 0.4375)"/>
      <use xlink:href="#Cmmi10-be" transform="translate(263.818359 0.4375)"/>
     </g>
    </g>
   </g>
  </g>
 </g>
 <defs>
  <clipPath id="pba1ebee7be">
   <rect x="72.55875" y="10.8" width="492.64125" height="289.252687"/>
  </clipPath>
 </defs>
</svg>
